<svg width="311" height="311" viewBox="0 0 311 311" fill="none" xmlns="http://www.w3.org/2000/svg">
<g clip-path="url(#clip0_21_423)">
<path d="M60.7422 51.3271C58.4103 51.3271 56.0784 50.4379 54.2999 48.6581L23.8638 18.2227H9.11133C4.07945 18.2227 0 14.1432 0 9.11133C0 4.07945 4.07945 0 9.11133 0H27.6377C30.054 0 32.3713 0.960334 34.08 2.66901L67.1845 35.7735C70.7428 39.3318 70.7428 45.1005 67.1845 48.6587C65.406 50.4379 63.0741 51.3271 60.7422 51.3271V51.3271Z" fill="#007A9F"/>
<path d="M56.1039 258.309L83.1299 234.448C59.7551 214.164 44.9492 184.25 44.9492 150.944C44.9492 89.9865 94.5422 40.3936 155.5 40.3936C157.257 40.3936 159.004 40.4391 160.742 40.5211L169.756 5.25177C165.063 4.7956 160.31 4.55566 155.5 4.55566C74.7809 4.55566 9.11133 70.2253 9.11133 150.944C9.11133 193.327 27.2228 231.552 56.1039 258.309Z" fill="#0060B9"/>
<path d="M250.258 58.0088C247.926 58.0088 245.594 57.1195 243.816 55.3398C240.257 51.7815 240.257 46.0128 243.816 42.4545L276.92 9.35004C278.629 7.64197 280.946 6.68164 283.362 6.68164H301.889C306.921 6.68164 311 10.7611 311 15.793C311 20.8249 306.921 24.9043 301.889 24.9043H287.136L256.7 55.3398C254.922 57.1195 252.59 58.0088 250.258 58.0088Z" fill="#00607F"/>
<path d="M67.1201 311H48.5938C43.5619 311 39.4824 306.921 39.4824 301.889C39.4824 296.857 43.5619 292.778 48.5938 292.778H63.3462L82.6968 273.427C86.2545 269.869 92.0238 269.869 95.5821 273.427C99.1404 276.986 99.1404 282.754 95.5821 286.313L73.563 308.332C71.8538 310.04 69.5371 311 67.1201 311Z" fill="#007A9F"/>
<path d="M266.051 150.944C266.051 152.471 266.011 153.988 265.949 155.5H301.811L301.281 137.679C294.555 63.1543 231.747 4.55566 155.5 4.55566V40.3936C216.458 40.3936 266.051 89.9865 266.051 150.944Z" fill="#FEB512"/>
<path d="M265.95 155.5C264.772 184.399 252.452 210.473 233.174 229.529L258.503 254.858C284.273 229.313 300.62 194.282 301.811 155.5H265.95Z" fill="#F14842"/>
<path d="M155.5 297.333C195.515 297.333 231.824 281.19 258.276 255.08L235.083 227.596C214.961 248.48 186.723 261.495 155.5 261.495C124.174 261.495 95.85 248.396 75.7152 227.389L50.3857 252.719C77.0145 280.212 114.293 297.333 155.5 297.333Z" fill="#FEB512"/>
<path d="M155.502 297.333C195.516 297.333 231.825 281.189 258.276 255.08L235.083 227.596C214.961 248.48 186.724 261.494 155.501 261.495V297.333H155.502Z" fill="#002D69"/>
</g>
<defs>
<clipPath id="clip0_21_423">
<rect width="311" height="311" fill="white"/>
</clipPath>
</defs>
</svg>
