<svg width="40" height="40" viewBox="0 0 40 40" fill="none" xmlns="http://www.w3.org/2000/svg">
<g id="development 1">
<g id="Monitor setting">
<path id="Vector" d="M35.625 6.875H4.375C2.99429 6.875 1.875 7.99429 1.875 9.375V29.375C1.875 30.7557 2.99429 31.875 4.375 31.875H35.625C37.0057 31.875 38.125 30.7557 38.125 29.375V9.375C38.125 7.99429 37.0057 6.875 35.625 6.875Z" fill="#2488FF"/>
<path id="Vector_2" d="M4.375 9.375H35.625V28.125H4.375V9.375Z" fill="#FFCD00"/>
<path id="Vector_3" d="M16.25 31.875H23.75V35.625H16.25V31.875Z" fill="#A7A9AC"/>
<path id="Vector_4" d="M11.25 35.625C10.9185 35.625 10.6005 35.7567 10.3661 35.9911C10.1317 36.2255 10 36.5435 10 36.875C10 37.2065 10.1317 37.5245 10.3661 37.7589C10.6005 37.9933 10.9185 38.125 11.25 38.125H28.75C29.0815 38.125 29.3995 37.9933 29.6339 37.7589C29.8683 37.5245 30 37.2065 30 36.875C30 36.5435 29.8683 36.2255 29.6339 35.9911C29.3995 35.7567 29.0815 35.625 28.75 35.625H11.25Z" fill="#808285"/>
<path id="Vector_5" d="M30.4063 12.5C30.3681 12.6254 30.3179 12.7468 30.2563 12.8625L31.7375 14.3438L29.9688 16.1125L28.4875 14.6313C28.3718 14.6929 28.2504 14.7431 28.125 14.7812V16.875H25.625V14.7812C25.4996 14.7431 25.3782 14.6929 25.2625 14.6313L23.7812 16.1125L22.0125 14.3438L23.4938 12.8625C23.4321 12.7468 23.3819 12.6254 23.3437 12.5H21.25V10H23.3437C23.3819 9.87458 23.4321 9.75317 23.4938 9.6375L22.0125 8.15625L23.7812 6.3875L25.2625 7.86875C25.3782 7.80709 25.4996 7.75686 25.625 7.71875V5.625H28.125V7.71875C28.2504 7.75686 28.3718 7.80709 28.4875 7.86875L29.9688 6.3875L31.7375 8.15625L30.2563 9.6375C30.3179 9.75317 30.3681 9.87458 30.4063 10H32.5V12.5H30.4063Z" fill="#EE8700"/>
<path id="Vector_6" d="M26.875 13.125C27.9105 13.125 28.75 12.2855 28.75 11.25C28.75 10.2145 27.9105 9.375 26.875 9.375C25.8395 9.375 25 10.2145 25 11.25C25 12.2855 25.8395 13.125 26.875 13.125Z" fill="#F1F2F2"/>
<path id="Vector_7" d="M17.2812 8.75C17.2431 8.87542 17.1929 8.99683 17.1313 9.1125L18.6125 10.5938L16.8438 12.3625L15.3625 10.8813C15.2468 10.9429 15.1254 10.9931 15 11.0312V13.125H12.5V11.0312C12.3746 10.9931 12.2532 10.9429 12.1375 10.8813L10.6562 12.3625L8.8875 10.5938L10.3688 9.1125C10.3071 8.99683 10.2569 8.87542 10.2188 8.75H8.125V6.25H10.2188C10.2569 6.12458 10.3071 6.00317 10.3688 5.8875L8.8875 4.40625L10.6562 2.6375L12.1375 4.11875C12.2532 4.05709 12.3746 4.00686 12.5 3.96875V1.875H15V3.96875C15.1254 4.00686 15.2468 4.05709 15.3625 4.11875L16.8438 2.6375L18.6125 4.40625L17.1313 5.8875C17.1929 6.00317 17.2431 6.12458 17.2812 6.25H19.375V8.75H17.2812Z" fill="#5EAC24"/>
<path id="Vector_8" d="M13.75 9.375C14.7855 9.375 15.625 8.53553 15.625 7.5C15.625 6.46447 14.7855 5.625 13.75 5.625C12.7145 5.625 11.875 6.46447 11.875 7.5C11.875 8.53553 12.7145 9.375 13.75 9.375Z" fill="#F1F2F2"/>
<path id="Vector_9" d="M12.5 28.125H35.625V9.375C35.625 19.7388 25.2819 28.125 12.5 28.125Z" fill="#DDB200"/>
<path id="Vector_10" d="M27.5 28.125V24.375H24.7125C24.6033 24.0248 24.461 23.6857 24.2875 23.3625L26.2625 21.3875L23.6125 18.7375L21.6375 20.7125C21.3143 20.539 20.9752 20.3967 20.625 20.2875V17.5H16.875V20.2875C16.5248 20.3967 16.1857 20.539 15.8625 20.7125L13.8875 18.7375L11.2375 21.3875L13.2125 23.3625C13.039 23.6857 12.8967 24.0248 12.7875 24.375H10V28.125H27.5Z" fill="#D80027"/>
<path id="Vector_11" d="M18.7498 23.125C17.921 23.125 17.1261 23.4542 16.5401 24.0403C15.954 24.6263 15.6248 25.4212 15.6248 26.25C15.6221 26.9266 15.8417 27.5853 16.2498 28.125H21.2498C21.6579 27.5853 21.8775 26.9266 21.8748 26.25C21.8748 25.4212 21.5455 24.6263 20.9595 24.0403C20.3734 23.4542 19.5786 23.125 18.7498 23.125Z" fill="#F1F2F2"/>
<path id="Vector_12" d="M16.25 31.875H23.75V33.125H16.25V31.875Z" fill="#808285"/>
<g id="Group">
<path id="Vector_13" d="M35.625 6.25H33.75C33.5842 6.25 33.4253 6.31585 33.3081 6.43306C33.1908 6.55027 33.125 6.70924 33.125 6.875C33.125 7.04076 33.1908 7.19973 33.3081 7.31694C33.4253 7.43415 33.5842 7.5 33.75 7.5H35.625C36.1223 7.5 36.5992 7.69754 36.9508 8.04917C37.3025 8.40081 37.5 8.87772 37.5 9.375V29.375C37.5 29.8723 37.3025 30.3492 36.9508 30.7008C36.5992 31.0525 36.1223 31.25 35.625 31.25H4.375C3.87772 31.25 3.40081 31.0525 3.04917 30.7008C2.69754 30.3492 2.5 29.8723 2.5 29.375V9.375C2.5 8.87772 2.69754 8.40081 3.04917 8.04917C3.40081 7.69754 3.87772 7.5 4.375 7.5H6.25C6.41576 7.5 6.57473 7.43415 6.69194 7.31694C6.80915 7.19973 6.875 7.04076 6.875 6.875C6.875 6.70924 6.80915 6.55027 6.69194 6.43306C6.57473 6.31585 6.41576 6.25 6.25 6.25H4.375C3.5465 6.25099 2.75222 6.58055 2.16639 7.16639C1.58055 7.75222 1.25099 8.5465 1.25 9.375V29.375C1.25099 30.2035 1.58055 30.9978 2.16639 31.5836C2.75222 32.1694 3.5465 32.499 4.375 32.5H15.625V35H11.25C10.7527 35 10.2758 35.1975 9.92417 35.5492C9.57254 35.9008 9.375 36.3777 9.375 36.875C9.375 37.3723 9.57254 37.8492 9.92417 38.2008C10.2758 38.5525 10.7527 38.75 11.25 38.75H28.75C29.2473 38.75 29.7242 38.5525 30.0758 38.2008C30.4275 37.8492 30.625 37.3723 30.625 36.875C30.625 36.3777 30.4275 35.9008 30.0758 35.5492C29.7242 35.1975 29.2473 35 28.75 35H24.375V32.5H35.625C36.4535 32.499 37.2478 32.1694 37.8336 31.5836C38.4194 30.9978 38.749 30.2035 38.75 29.375V9.375C38.749 8.5465 38.4194 7.75222 37.8336 7.16639C37.2478 6.58055 36.4535 6.25099 35.625 6.25ZM29.375 36.875C29.375 37.0408 29.3092 37.1997 29.1919 37.3169C29.0747 37.4342 28.9158 37.5 28.75 37.5H11.25C11.0842 37.5 10.9253 37.4342 10.8081 37.3169C10.6908 37.1997 10.625 37.0408 10.625 36.875C10.625 36.7092 10.6908 36.5503 10.8081 36.4331C10.9253 36.3158 11.0842 36.25 11.25 36.25H28.75C28.9158 36.25 29.0747 36.3158 29.1919 36.4331C29.3092 36.5503 29.375 36.7092 29.375 36.875ZM23.125 35H16.875V32.5H23.125V35Z" fill="#231F20"/>
<path id="Vector_14" d="M19.375 29.375C19.2092 29.375 19.0503 29.4408 18.9331 29.5581C18.8158 29.6753 18.75 29.8342 18.75 30C18.75 30.1658 18.8158 30.3247 18.9331 30.4419C19.0503 30.5592 19.2092 30.625 19.375 30.625H20.625C20.7908 30.625 20.9497 30.5592 21.0669 30.4419C21.1842 30.3247 21.25 30.1658 21.25 30C21.25 29.8342 21.1842 29.6753 21.0669 29.5581C20.9497 29.4408 20.7908 29.375 20.625 29.375H19.375Z" fill="#231F20"/>
<path id="Vector_15" d="M21.25 13.125H22.3475L21.5706 13.9019C21.4535 14.0191 21.3876 14.178 21.3876 14.3438C21.3876 14.5095 21.4535 14.6684 21.5706 14.7856L23.3394 16.5544C23.4566 16.6715 23.6155 16.7374 23.7812 16.7374C23.947 16.7374 24.1059 16.6715 24.2231 16.5544L25 15.7775V16.875C25 17.0408 25.0658 17.1997 25.1831 17.3169C25.3003 17.4342 25.4592 17.5 25.625 17.5H28.125C28.2908 17.5 28.4497 17.4342 28.5669 17.3169C28.6842 17.1997 28.75 17.0408 28.75 16.875V15.7775L29.5269 16.5544C29.6441 16.6715 29.803 16.7374 29.9688 16.7374C30.1345 16.7374 30.2934 16.6715 30.4106 16.5544L32.1794 14.7856C32.2965 14.6684 32.3624 14.5095 32.3624 14.3438C32.3624 14.178 32.2965 14.0191 32.1794 13.9019L31.4025 13.125H32.5C32.6658 13.125 32.8247 13.0592 32.9419 12.9419C33.0592 12.8247 33.125 12.6658 33.125 12.5V10C33.125 9.83424 33.0592 9.67527 32.9419 9.55806C32.8247 9.44085 32.6658 9.375 32.5 9.375H31.4025L32.1794 8.59812C32.2965 8.48092 32.3624 8.32198 32.3624 8.15625C32.3624 7.99052 32.2965 7.83158 32.1794 7.71438L30.4106 5.94562C30.2934 5.82846 30.1345 5.76263 29.9688 5.76263C29.803 5.76263 29.6441 5.82846 29.5269 5.94562L28.75 6.7225V5.625C28.75 5.45924 28.6842 5.30027 28.5669 5.18306C28.4497 5.06585 28.2908 5 28.125 5H25.625C25.4592 5 25.3003 5.06585 25.1831 5.18306C25.0658 5.30027 25 5.45924 25 5.625V6.7225L24.2231 5.94562C24.1059 5.82846 23.947 5.76263 23.7812 5.76263C23.6155 5.76263 23.4566 5.82846 23.3394 5.94562L21.5706 7.71438C21.4535 7.83158 21.3876 7.99052 21.3876 8.15625C21.3876 8.32198 21.4535 8.48092 21.5706 8.59812L22.3475 9.375H21.25C21.0842 9.375 20.9253 9.44085 20.8081 9.55806C20.6908 9.67527 20.625 9.83424 20.625 10V12.5C20.625 12.6658 20.6908 12.8247 20.8081 12.9419C20.9253 13.0592 21.0842 13.125 21.25 13.125ZM21.875 10.625H23.3437C23.4782 10.625 23.6091 10.5817 23.7169 10.5014C23.8248 10.4211 23.9039 10.3082 23.9425 10.1794C23.9691 10.0929 24.0041 10.0091 24.0469 9.92938C24.109 9.8113 24.1317 9.67645 24.1117 9.54453C24.0917 9.41262 24.03 9.29057 23.9356 9.19625L22.8962 8.15625L23.7812 7.27125L24.8206 8.3125C24.9148 8.40669 25.0366 8.46835 25.1682 8.48847C25.2999 8.50859 25.4345 8.48614 25.5525 8.42438C25.6323 8.38145 25.716 8.34628 25.8025 8.31938C25.932 8.28103 26.0455 8.20179 26.1262 8.09352C26.2069 7.98525 26.2503 7.85377 26.25 7.71875V6.25H27.5V7.71875C27.5 7.85321 27.5433 7.98409 27.6236 8.09195C27.7039 8.19981 27.8168 8.27891 27.9456 8.3175C28.0321 8.34441 28.1158 8.37957 28.1956 8.4225C28.3136 8.48426 28.4483 8.50672 28.5799 8.4866C28.7116 8.46647 28.8333 8.40482 28.9275 8.31063L29.9669 7.27125L30.8519 8.15625L29.8125 9.19563C29.7183 9.28978 29.6567 9.41156 29.6365 9.54321C29.6164 9.67487 29.6389 9.80951 29.7006 9.9275C29.7436 10.0073 29.7787 10.091 29.8056 10.1775C29.844 10.307 29.9232 10.4205 30.0315 10.5012C30.1397 10.5819 30.2712 10.6253 30.4063 10.625H31.875V11.875H30.4063C30.2718 11.875 30.1409 11.9183 30.0331 11.9986C29.9252 12.0789 29.8461 12.1918 29.8075 12.3206C29.7806 12.4071 29.7454 12.4908 29.7025 12.5706C29.6407 12.6886 29.6183 12.8233 29.6384 12.9549C29.6585 13.0866 29.7202 13.2083 29.8144 13.3025L30.8538 14.3419L29.9688 15.2287L28.9294 14.1875C28.8352 14.0933 28.7134 14.0317 28.5818 14.0115C28.4501 13.9914 28.3155 14.0139 28.1975 14.0756C28.1177 14.1186 28.034 14.1537 27.9475 14.1806C27.818 14.219 27.7045 14.2982 27.6238 14.4065C27.5431 14.5147 27.4997 14.6462 27.5 14.7812V16.25H26.25V14.7812C26.25 14.6468 26.2067 14.5159 26.1264 14.4081C26.0461 14.3002 25.9332 14.2211 25.8044 14.1825C25.7179 14.1556 25.6342 14.1204 25.5544 14.0775C25.4364 14.0157 25.3017 13.9933 25.1701 14.0134C25.0384 14.0335 24.9167 14.0952 24.8225 14.1894L23.7812 15.2287L22.8962 14.3438L23.9375 13.3044C24.0319 13.2101 24.0936 13.088 24.1136 12.9561C24.1336 12.8242 24.1109 12.6893 24.0488 12.5712C24.006 12.4915 23.971 12.4078 23.9444 12.3213C23.9058 12.192 23.8265 12.0787 23.7182 11.9983C23.61 11.9179 23.4786 11.8746 23.3437 11.875H21.875V10.625Z" fill="#231F20"/>
<path id="Vector_16" d="M16.25 17.5V19.8456C16.16 19.8813 16.0731 19.9169 15.9881 19.9544L14.3294 18.2956C14.2122 18.1785 14.0532 18.1126 13.8875 18.1126C13.7218 18.1126 13.5628 18.1785 13.4456 18.2956L10.7956 20.9456C10.6785 21.0628 10.6126 21.2218 10.6126 21.3875C10.6126 21.5532 10.6785 21.7122 10.7956 21.8294L12.4544 23.4881C12.4169 23.5731 12.3813 23.66 12.3456 23.75H10C9.83424 23.75 9.67527 23.8158 9.55806 23.9331C9.44085 24.0503 9.375 24.2092 9.375 24.375V27.5H5V10H6.25C6.41576 10 6.57473 9.93415 6.69194 9.81694C6.80915 9.69973 6.875 9.54076 6.875 9.375C6.875 9.20924 6.80915 9.05027 6.69194 8.93306C6.57473 8.81585 6.41576 8.75 6.25 8.75H4.375C4.20924 8.75 4.05027 8.81585 3.93306 8.93306C3.81585 9.05027 3.75 9.20924 3.75 9.375V28.125C3.75 28.2908 3.81585 28.4497 3.93306 28.5669C4.05027 28.6842 4.20924 28.75 4.375 28.75H35.625C35.7908 28.75 35.9497 28.6842 36.0669 28.5669C36.1842 28.4497 36.25 28.2908 36.25 28.125V9.375C36.25 9.20924 36.1842 9.05027 36.0669 8.93306C35.9497 8.81585 35.7908 8.75 35.625 8.75H34.375C34.2092 8.75 34.0503 8.81585 33.9331 8.93306C33.8158 9.05027 33.75 9.20924 33.75 9.375C33.75 9.54076 33.8158 9.69973 33.9331 9.81694C34.0503 9.93415 34.2092 10 34.375 10H35V27.5H28.125V24.375C28.125 24.2092 28.0592 24.0503 27.9419 23.9331C27.8247 23.8158 27.6658 23.75 27.5 23.75H25.1544C25.1188 23.66 25.0831 23.5731 25.0456 23.4881L26.7044 21.8294C26.8215 21.7122 26.8874 21.5532 26.8874 21.3875C26.8874 21.2218 26.8215 21.0628 26.7044 20.9456L24.0544 18.2956C23.935 18.1827 23.7768 18.1198 23.6125 18.1198C23.4482 18.1198 23.29 18.1827 23.1706 18.2956L21.5119 19.9544C21.4269 19.9169 21.34 19.8813 21.25 19.8456V17.5C21.25 17.3342 21.1842 17.1753 21.0669 17.0581C20.9497 16.9408 20.7908 16.875 20.625 16.875H16.875C16.7092 16.875 16.5503 16.9408 16.4331 17.0581C16.3158 17.1753 16.25 17.3342 16.25 17.5ZM16.25 26.25C16.25 25.587 16.5134 24.9511 16.9822 24.4822C17.4511 24.0134 18.087 23.75 18.75 23.75C19.413 23.75 20.0489 24.0134 20.5178 24.4822C20.9866 24.9511 21.25 25.587 21.25 26.25C21.2502 26.6895 21.1328 27.1211 20.91 27.5H16.59C16.3672 27.1211 16.2498 26.6895 16.25 26.25ZM17.5 20.2875V18.125H20V20.2875C20 20.4198 20.042 20.5487 20.12 20.6557C20.1979 20.7626 20.3078 20.842 20.4338 20.8825C20.7461 20.9796 21.0485 21.1063 21.3369 21.2606C21.4555 21.3256 21.592 21.3504 21.7258 21.3313C21.8597 21.3121 21.9838 21.25 22.0794 21.1544L23.6125 19.6212L25.3787 21.3875L23.8456 22.9206C23.75 23.0162 23.6879 23.1403 23.6687 23.2742C23.6496 23.408 23.6744 23.5445 23.7394 23.6631C23.8937 23.9515 24.0204 24.2539 24.1175 24.5662C24.158 24.6922 24.2374 24.8021 24.3443 24.88C24.4513 24.958 24.5802 25 24.7125 25H26.875V27.5H22.2837C22.4847 26.9342 22.5468 26.3285 22.465 25.7337C22.3831 25.139 22.1597 24.5725 21.8134 24.0821C21.4671 23.5916 21.0081 23.1915 20.4751 22.9153C19.942 22.6391 19.3504 22.495 18.75 22.495C18.1496 22.495 17.558 22.6391 17.0249 22.9153C16.4919 23.1915 16.0329 23.5916 15.6866 24.0821C15.3403 24.5725 15.1169 25.139 15.035 25.7337C14.9532 26.3285 15.0153 26.9342 15.2163 27.5H10.625V25H12.7875C12.9198 25 13.0487 24.958 13.1557 24.88C13.2626 24.8021 13.342 24.6922 13.3825 24.5662C13.4796 24.2539 13.6063 23.9515 13.7606 23.6631C13.8256 23.5445 13.8504 23.408 13.8313 23.2742C13.8121 23.1403 13.75 23.0162 13.6544 22.9206L12.1212 21.3875L13.8875 19.6212L15.4206 21.1544C15.5162 21.25 15.6403 21.3121 15.7742 21.3313C15.908 21.3504 16.0445 21.3256 16.1631 21.2606C16.4515 21.1063 16.7539 20.9796 17.0662 20.8825C17.1922 20.842 17.3021 20.7626 17.38 20.6557C17.458 20.5487 17.5 20.4198 17.5 20.2875Z" fill="#231F20"/>
<path id="Vector_17" d="M26.875 13.75C27.3695 13.75 27.8528 13.6034 28.2639 13.3287C28.6751 13.054 28.9955 12.6635 29.1847 12.2067C29.3739 11.7499 29.4234 11.2472 29.327 10.7623C29.2305 10.2773 28.9924 9.83187 28.6428 9.48223C28.2931 9.1326 27.8477 8.8945 27.3627 8.79804C26.8778 8.70157 26.3751 8.75108 25.9183 8.9403C25.4615 9.12952 25.071 9.44995 24.7963 9.86108C24.5216 10.2722 24.375 10.7555 24.375 11.25C24.375 11.913 24.6384 12.5489 25.1072 13.0178C25.5761 13.4866 26.212 13.75 26.875 13.75ZM26.875 10C27.1222 10 27.3639 10.0733 27.5695 10.2107C27.775 10.348 27.9352 10.5432 28.0299 10.7716C28.1245 11.0001 28.1492 11.2514 28.101 11.4939C28.0528 11.7363 27.9337 11.9591 27.7589 12.1339C27.5841 12.3087 27.3613 12.4278 27.1189 12.476C26.8764 12.5242 26.6251 12.4995 26.3966 12.4049C26.1682 12.3102 25.973 12.15 25.8357 11.9445C25.6983 11.7389 25.625 11.4972 25.625 11.25C25.625 10.9185 25.7567 10.6005 25.9911 10.3661C26.2255 10.1317 26.5435 10 26.875 10Z" fill="#231F20"/>
<path id="Vector_18" d="M8.125 9.375H9.2225L8.44562 10.1519C8.32846 10.2691 8.26263 10.428 8.26263 10.5938C8.26263 10.7595 8.32846 10.9184 8.44562 11.0356L10.2144 12.8044C10.3316 12.9215 10.4905 12.9874 10.6562 12.9874C10.822 12.9874 10.9809 12.9215 11.0981 12.8044L11.875 12.0275V13.125C11.875 13.2908 11.9408 13.4497 12.0581 13.5669C12.1753 13.6842 12.3342 13.75 12.5 13.75H15C15.1658 13.75 15.3247 13.6842 15.4419 13.5669C15.5592 13.4497 15.625 13.2908 15.625 13.125V12.0275L16.4019 12.8044C16.5191 12.9215 16.678 12.9874 16.8438 12.9874C17.0095 12.9874 17.1684 12.9215 17.2856 12.8044L19.0544 11.0356C19.1715 10.9184 19.2374 10.7595 19.2374 10.5938C19.2374 10.428 19.1715 10.2691 19.0544 10.1519L18.2775 9.375H19.375C19.5408 9.375 19.6997 9.30915 19.8169 9.19194C19.9342 9.07473 20 8.91576 20 8.75V6.25C20 6.08424 19.9342 5.92527 19.8169 5.80806C19.6997 5.69085 19.5408 5.625 19.375 5.625H18.2775L19.0544 4.84812C19.1715 4.73092 19.2374 4.57198 19.2374 4.40625C19.2374 4.24052 19.1715 4.08158 19.0544 3.96438L17.2856 2.19563C17.1684 2.07846 17.0095 2.01263 16.8438 2.01263C16.678 2.01263 16.5191 2.07846 16.4019 2.19563L15.625 2.9725V1.875C15.625 1.70924 15.5592 1.55027 15.4419 1.43306C15.3247 1.31585 15.1658 1.25 15 1.25H12.5C12.3342 1.25 12.1753 1.31585 12.0581 1.43306C11.9408 1.55027 11.875 1.70924 11.875 1.875V2.9725L11.0981 2.19563C10.9809 2.07846 10.822 2.01263 10.6562 2.01263C10.4905 2.01263 10.3316 2.07846 10.2144 2.19563L8.44562 3.96438C8.32846 4.08158 8.26263 4.24052 8.26263 4.40625C8.26263 4.57198 8.32846 4.73092 8.44562 4.84812L9.2225 5.625H8.125C7.95924 5.625 7.80027 5.69085 7.68306 5.80806C7.56585 5.92527 7.5 6.08424 7.5 6.25V8.75C7.5 8.91576 7.56585 9.07473 7.68306 9.19194C7.80027 9.30915 7.95924 9.375 8.125 9.375ZM8.75 6.875H10.2188C10.3532 6.87501 10.4841 6.83166 10.5919 6.75138C10.6998 6.6711 10.7789 6.55818 10.8175 6.42937C10.8441 6.34286 10.8791 6.25914 10.9219 6.17938C10.9844 6.06142 11.0075 5.92655 10.9878 5.79452C10.9681 5.66248 10.9067 5.54021 10.8125 5.44563L9.77125 4.40625L10.6562 3.52125L11.6956 4.5625C11.7898 4.65669 11.9116 4.71835 12.0432 4.73847C12.1749 4.75859 12.3095 4.73614 12.4275 4.67438C12.5073 4.63145 12.591 4.59628 12.6775 4.56938C12.807 4.53103 12.9205 4.45179 13.0012 4.34352C13.0819 4.23525 13.1253 4.10377 13.125 3.96875V2.5H14.375V3.96875C14.375 4.10321 14.4183 4.23409 14.4986 4.34195C14.5789 4.44981 14.6918 4.52891 14.8206 4.5675C14.9071 4.59441 14.9908 4.62957 15.0706 4.6725C15.1886 4.73494 15.3235 4.75795 15.4556 4.73816C15.5876 4.71836 15.7099 4.6568 15.8044 4.5625L16.8438 3.52125L17.7287 4.40625L16.6875 5.44563C16.5933 5.53978 16.5317 5.66156 16.5115 5.79321C16.4914 5.92487 16.5139 6.05951 16.5756 6.1775C16.6186 6.25728 16.6537 6.341 16.6806 6.4275C16.719 6.55696 16.7982 6.67052 16.9065 6.75119C17.0147 6.83186 17.1462 6.87529 17.2812 6.875H18.75V8.125H17.2812C17.1468 8.12499 17.0159 8.16834 16.9081 8.24862C16.8002 8.3289 16.7211 8.44182 16.6825 8.57063C16.6556 8.65713 16.6204 8.74085 16.5775 8.82062C16.5157 8.93862 16.4933 9.07326 16.5134 9.20491C16.5335 9.33656 16.5952 9.45835 16.6894 9.5525L17.7287 10.5919L16.8438 11.4787L15.8044 10.4375C15.7102 10.3433 15.5884 10.2817 15.4568 10.2615C15.3251 10.2414 15.1905 10.2639 15.0725 10.3256C14.9927 10.3686 14.909 10.4037 14.8225 10.4306C14.693 10.469 14.5795 10.5482 14.4988 10.6565C14.4181 10.7647 14.3747 10.8962 14.375 11.0312V12.5H13.125V11.0312C13.125 10.8968 13.0817 10.7659 13.0014 10.6581C12.9211 10.5502 12.8082 10.4711 12.6794 10.4325C12.5929 10.4056 12.5092 10.3704 12.4294 10.3275C12.3114 10.2657 12.1767 10.2433 12.0451 10.2634C11.9134 10.2835 11.7917 10.3452 11.6975 10.4394L10.6562 11.4787L9.77125 10.5938L10.8125 9.55437C10.9069 9.46005 10.9686 9.33801 10.9886 9.20609C11.0086 9.07418 10.9859 8.93932 10.9238 8.82125C10.881 8.74149 10.846 8.65776 10.8194 8.57125C10.7808 8.44202 10.7015 8.32874 10.5932 8.24831C10.485 8.16788 10.3536 8.12463 10.2188 8.125H8.75V6.875Z" fill="#231F20"/>
<path id="Vector_19" d="M13.75 10C14.2445 10 14.7278 9.85338 15.1389 9.57868C15.55 9.30397 15.8705 8.91353 16.0597 8.45671C16.2489 7.9999 16.2984 7.49723 16.202 7.01228C16.1055 6.52732 15.8674 6.08187 15.5178 5.73223C15.1681 5.3826 14.7227 5.1445 14.2377 5.04804C13.7528 4.95157 13.2501 5.00108 12.7933 5.1903C12.3365 5.37952 11.946 5.69995 11.6713 6.11108C11.3966 6.5222 11.25 7.00555 11.25 7.5C11.25 8.16304 11.5134 8.79893 11.9822 9.26777C12.4511 9.73661 13.087 10 13.75 10ZM13.75 6.25C13.9972 6.25 14.2389 6.32331 14.4445 6.46066C14.65 6.59802 14.8102 6.79324 14.9048 7.02165C14.9995 7.25005 15.0242 7.50139 14.976 7.74386C14.9278 7.98634 14.8087 8.20907 14.6339 8.38388C14.4591 8.5587 14.2363 8.67775 13.9939 8.72598C13.7514 8.77421 13.5001 8.74946 13.2716 8.65485C13.0432 8.56024 12.848 8.40003 12.7107 8.19446C12.5733 7.9889 12.5 7.74723 12.5 7.5C12.5 7.16848 12.6317 6.85054 12.8661 6.61612C13.1005 6.3817 13.4185 6.25 13.75 6.25Z" fill="#231F20"/>
</g>
</g>
</g>
</svg>
