<svg width="48" height="48" viewBox="0 0 48 48" fill="none" xmlns="http://www.w3.org/2000/svg">
<g id="editor 2" clip-path="url(#clip0_21_997)">
<path id="Vector" d="M24 48C37.2548 48 48 37.2548 48 24C48 10.7452 37.2548 0 24 0C10.7452 0 0 10.7452 0 24C0 37.2548 10.7452 48 24 48Z" fill="#FFF200"/>
<path id="Vector_2" d="M48.0003 24C48.0003 22.3111 47.8249 20.6632 47.493 19.0729L40.593 12.1729L31.801 13.4258L23.344 4.96875L20.719 7.3125L23.2829 9.87638L20.7383 13.3992L19.5119 12.1729L8.07394 12.9978L7.26562 34.204L20.8567 47.7951C21.8856 47.9297 22.9346 48 24.0003 48C37.2551 48 48.0003 37.2548 48.0003 24Z" fill="#FDC300"/>
<path id="Vector_3" d="M19.5106 17.4043H8.64404V28.6318H19.5106V17.4043Z" fill="#FF0037"/>
<path id="Vector_4" d="M19.5106 23.9917H8.64404V28.6314H19.5106V23.9917Z" fill="#D30F0F"/>
<path id="Vector_5" d="M39.652 17.4043H24.397V28.6318H39.652V17.4043Z" fill="#FF0037"/>
<path id="Vector_6" d="M39.652 23.9917H24.397V28.6314H39.652V23.9917Z" fill="#D30F0F"/>
<path id="Vector_7" d="M16.6921 28.1383V18.2385H19.5119V12.1729H7.26562V34.204H19.5119V28.1384H16.6921V28.1383ZM16.6921 13.6537H18.4773V16.3721H16.6921V13.6537ZM8.88853 13.6537H10.6737V16.3721H8.88853V13.6537ZM10.6738 32.723H8.88853V30.0047H10.6737L10.6738 32.723ZM14.5755 32.723H12.7903V30.0047H14.5755V32.723ZM14.5756 28.1383H8.88853V18.2385H14.5755V28.1383H14.5756ZM14.5756 16.3721H12.7904V13.6537H14.5756V16.3721ZM16.6921 32.723V30.0047H18.4773V32.723H16.6921Z" fill="#414952"/>
<path id="Vector_8" d="M16.6921 23.9912H14.5755V28.1385H8.88853V23.9912H7.26562V34.2042H19.5119V28.1385H16.6921V23.9912ZM10.6738 32.7232H8.88853V30.0048H10.6737L10.6738 32.7232ZM14.5755 32.7232H12.7903V30.0048H14.5755V32.7232ZM18.4774 30.0048V32.7232H16.6922V30.0048H18.4774Z" fill="#23272B"/>
<path id="Vector_9" d="M40.5929 12.1729H24.3975V18.2385H31.1664V28.1383H24.3975V34.2039H40.5929V12.1729ZM27.2645 32.723H25.4793V30.0047H27.2645V32.723ZM31.1663 32.7231H29.3811V30.0048H31.1663V32.7231ZM33.2829 13.6538H35.0681V16.3722H33.2829V13.6538ZM27.2645 16.3721H25.4793V13.6537H27.2645V16.3721ZM31.1663 16.3722H29.3811V13.6537H31.1663V16.3722ZM35.0681 32.7231H33.2829V30.0048H35.0681V32.7231ZM38.9699 32.7231H37.1847V30.0048H38.9699V32.7231ZM38.9699 28.1384H33.2829V18.2386H38.9699V28.1384ZM38.9699 16.3722H37.1847V13.6538H38.9699V16.3722Z" fill="#414952"/>
<path id="Vector_10" d="M38.97 23.9912V28.1385H33.283V23.9912H31.1664V28.1385H24.3975V34.2042H40.5929V23.9912H38.97ZM27.2646 32.7232H25.4794V30.0048H27.2646V32.7232ZM31.1664 32.7233H29.3812V30.0049H31.1664V32.7233ZM35.0682 32.7233H33.283V30.0049H35.0682V32.7233ZM38.97 32.7233H37.1848V30.0049H38.97V32.7233Z" fill="#23272B"/>
<g id="Group">
<path id="Vector_11" d="M23.3438 4.96875H20.7188V7.3125H23.3438V4.96875Z" fill="#FF0037"/>
<path id="Vector_12" d="M23.3438 25.6527H20.7188V21.2227H23.3438V25.6527ZM23.3438 19.5393H20.7188V15.1094H23.3438V19.5393ZM23.3438 13.4261H20.7188V8.99609H23.3438V13.4261Z" fill="#FF0037"/>
</g>
<g id="Group_2">
<path id="Vector_13" d="M23.3438 34.668H20.7188V39.0977H23.3438V34.668Z" fill="#D30F0F"/>
<path id="Vector_14" d="M23.3438 23.9917H20.7188V26.5929H23.3438V23.9917Z" fill="#D30F0F"/>
<path id="Vector_15" d="M23.3438 28.5547H20.7188V32.9844H23.3438V28.5547Z" fill="#D30F0F"/>
<path id="Vector_16" d="M23.3438 40.7812H20.7188V43.125H23.3438V40.7812Z" fill="#D30F0F"/>
</g>
</g>
<defs>
<clipPath id="clip0_21_997">
<rect width="48" height="48" fill="white"/>
</clipPath>
</defs>
</svg>
