<svg width="624" height="469" viewBox="0 0 624 469" fill="none" xmlns="http://www.w3.org/2000/svg">
<g clip-path="url(#clip0_111_93)">
<path d="M218.742 119.327C216.41 119.327 214.078 118.438 212.3 116.658L181.864 86.2227H167.111C162.079 86.2227 158 82.1432 158 77.1113C158 72.0794 162.079 68 167.111 68H185.638C188.054 68 190.371 68.9603 192.08 70.669L225.185 103.774C228.743 107.332 228.743 113.1 225.185 116.659C223.406 118.438 221.074 119.327 218.742 119.327V119.327Z" fill="#007A9F"/>
<path d="M214.104 326.309L241.13 302.448C217.755 282.164 202.949 252.25 202.949 218.944C202.949 157.987 252.542 108.394 313.5 108.394C315.257 108.394 317.004 108.439 318.742 108.521L327.756 73.2518C323.063 72.7956 318.31 72.5557 313.5 72.5557C232.781 72.5557 167.111 138.225 167.111 218.944C167.111 261.327 185.223 299.552 214.104 326.309Z" fill="#0060B9"/>
<path d="M408.258 126.009C405.926 126.009 403.594 125.12 401.816 123.34C398.257 119.782 398.257 114.013 401.816 110.455L434.92 77.35C436.629 75.642 438.946 74.6816 441.362 74.6816H459.889C464.921 74.6816 469 78.7611 469 83.793C469 88.8249 464.921 92.9043 459.889 92.9043H445.136L414.7 123.34C412.922 125.12 410.59 126.009 408.258 126.009Z" fill="#00607F"/>
<path d="M225.12 379H206.594C201.562 379 197.482 374.921 197.482 369.889C197.482 364.857 201.562 360.778 206.594 360.778H221.346L240.697 341.427C244.255 337.869 250.024 337.869 253.582 341.427C257.14 344.986 257.14 350.754 253.582 354.313L231.563 376.332C229.854 378.04 227.537 379 225.12 379Z" fill="#007A9F"/>
<path d="M424.051 218.944C424.051 220.471 424.011 221.988 423.949 223.5H459.811L459.281 205.679C452.555 131.154 389.747 72.5557 313.5 72.5557V108.394C374.458 108.394 424.051 157.987 424.051 218.944Z" fill="#FEB512"/>
<path d="M423.95 223.5C422.772 252.399 410.452 278.473 391.174 297.529L416.503 322.858C442.273 297.313 458.62 262.282 459.811 223.5H423.95Z" fill="#F14842"/>
<path d="M313.5 365.333C353.515 365.333 389.824 349.19 416.276 323.08L393.083 295.596C372.961 316.48 344.723 329.495 313.5 329.495C282.174 329.495 253.85 316.396 233.715 295.389L208.386 320.719C235.015 348.212 272.293 365.333 313.5 365.333Z" fill="#FEB512"/>
<path d="M313.502 365.333C353.515 365.333 389.825 349.189 416.276 323.08L393.082 295.596C372.96 316.48 344.724 329.494 313.501 329.495V365.333H313.502Z" fill="#002D69"/>
</g>
<path d="M273.24 237.4C270.707 237.4 268.533 237.027 266.72 236.28C264.907 235.533 263.533 234.56 262.6 233.36C261.693 232.133 261.213 230.8 261.16 229.36C261.16 229.147 261.24 228.96 261.4 228.8C261.587 228.613 261.8 228.52 262.04 228.52H267.08C267.4 228.52 267.653 228.587 267.84 228.72C268.053 228.827 268.267 229 268.48 229.24C268.827 229.933 269.387 230.507 270.16 230.96C270.933 231.413 271.96 231.64 273.24 231.64C274.76 231.64 275.92 231.4 276.72 230.92C277.52 230.44 277.92 229.787 277.92 228.96C277.92 228.373 277.707 227.893 277.28 227.52C276.88 227.147 276.24 226.813 275.36 226.52C274.48 226.227 273.173 225.893 271.44 225.52C268.24 224.853 265.84 223.88 264.24 222.6C262.667 221.293 261.88 219.44 261.88 217.04C261.88 215.413 262.333 213.96 263.24 212.68C264.147 211.4 265.44 210.4 267.12 209.68C268.8 208.96 270.76 208.6 273 208.6C275.32 208.6 277.333 209 279.04 209.8C280.747 210.6 282.04 211.613 282.92 212.84C283.827 214.04 284.307 215.227 284.36 216.4C284.36 216.64 284.28 216.84 284.12 217C283.96 217.16 283.76 217.24 283.52 217.24H278.24C277.92 217.24 277.653 217.187 277.44 217.08C277.253 216.973 277.08 216.8 276.92 216.56C276.76 215.947 276.32 215.427 275.6 215C274.907 214.573 274.04 214.36 273 214.36C271.8 214.36 270.88 214.573 270.24 215C269.6 215.427 269.28 216.053 269.28 216.88C269.28 217.44 269.453 217.907 269.8 218.28C270.173 218.653 270.76 219 271.56 219.32C272.387 219.613 273.56 219.92 275.08 220.24C277.56 220.693 279.533 221.267 281 221.96C282.493 222.627 283.587 223.507 284.28 224.6C284.973 225.667 285.32 227.013 285.32 228.64C285.32 230.427 284.8 231.987 283.76 233.32C282.747 234.627 281.32 235.64 279.48 236.36C277.667 237.053 275.587 237.4 273.24 237.4ZM289.883 237C289.617 237 289.377 236.907 289.163 236.72C288.977 236.507 288.883 236.267 288.883 236V209.6C288.883 209.307 288.977 209.067 289.163 208.88C289.377 208.693 289.617 208.6 289.883 208.6H294.523C294.817 208.6 295.057 208.693 295.243 208.88C295.43 209.067 295.523 209.307 295.523 209.6V223L301.083 216.88C301.137 216.827 301.23 216.733 301.363 216.6C301.523 216.467 301.683 216.373 301.843 216.32C302.003 216.24 302.19 216.2 302.403 216.2H307.763C308.003 216.2 308.203 216.293 308.363 216.48C308.55 216.64 308.643 216.84 308.643 217.08C308.643 217.373 308.537 217.6 308.323 217.76L301.123 225.52L309.323 235.48C309.537 235.693 309.643 235.893 309.643 236.08C309.643 236.347 309.55 236.573 309.363 236.76C309.203 236.92 308.99 237 308.723 237H303.243C302.897 237 302.63 236.947 302.443 236.84C302.283 236.733 302.083 236.56 301.843 236.32L295.523 228.72V236C295.523 236.267 295.43 236.507 295.243 236.72C295.057 236.907 294.817 237 294.523 237H289.883ZM313.242 213.2C312.949 213.2 312.709 213.107 312.522 212.92C312.335 212.733 312.242 212.493 312.242 212.2V208.6C312.242 208.307 312.335 208.067 312.522 207.88C312.709 207.693 312.949 207.6 313.242 207.6H318.042C318.335 207.6 318.575 207.693 318.762 207.88C318.949 208.067 319.042 208.307 319.042 208.6V212.2C319.042 212.493 318.949 212.733 318.762 212.92C318.575 213.107 318.335 213.2 318.042 213.2H313.242ZM313.282 237C312.989 237 312.749 236.907 312.562 236.72C312.375 236.533 312.282 236.293 312.282 236V217.2C312.282 216.907 312.375 216.667 312.562 216.48C312.749 216.293 312.989 216.2 313.282 216.2H318.002C318.295 216.2 318.535 216.293 318.722 216.48C318.909 216.667 319.002 216.907 319.002 217.2V236C319.002 236.267 318.909 236.507 318.722 236.72C318.535 236.907 318.295 237 318.002 237H313.282ZM324.727 237C324.461 237 324.221 236.907 324.007 236.72C323.821 236.507 323.727 236.267 323.727 236V209.6C323.727 209.307 323.821 209.067 324.007 208.88C324.221 208.693 324.461 208.6 324.727 208.6H329.447C329.741 208.6 329.981 208.693 330.167 208.88C330.354 209.067 330.447 209.307 330.447 209.6V236C330.447 236.293 330.354 236.533 330.167 236.72C329.981 236.907 329.741 237 329.447 237H324.727ZM336.173 237C335.906 237 335.666 236.907 335.452 236.72C335.266 236.507 335.173 236.267 335.173 236V209.6C335.173 209.307 335.266 209.067 335.452 208.88C335.666 208.693 335.906 208.6 336.173 208.6H340.893C341.186 208.6 341.426 208.693 341.613 208.88C341.799 209.067 341.893 209.307 341.893 209.6V236C341.893 236.293 341.799 236.533 341.613 236.72C341.426 236.907 341.186 237 340.893 237H336.173ZM355.178 237.4C353.018 237.4 351.204 237.093 349.738 236.48C348.298 235.867 347.231 235.133 346.538 234.28C345.844 233.427 345.498 232.667 345.498 232C345.498 231.733 345.591 231.52 345.778 231.36C345.991 231.173 346.218 231.08 346.458 231.08H351.018C351.178 231.08 351.324 231.147 351.458 231.28C351.778 231.493 352.018 231.667 352.178 231.8C352.764 232.227 353.271 232.547 353.698 232.76C354.151 232.947 354.698 233.04 355.338 233.04C356.111 233.04 356.738 232.893 357.218 232.6C357.724 232.28 357.978 231.84 357.978 231.28C357.978 230.827 357.844 230.467 357.578 230.2C357.338 229.933 356.858 229.68 356.138 229.44C355.418 229.173 354.324 228.893 352.858 228.6C350.644 228.147 348.938 227.413 347.738 226.4C346.564 225.36 345.978 223.973 345.978 222.24C345.978 221.147 346.324 220.107 347.018 219.12C347.711 218.133 348.738 217.333 350.098 216.72C351.484 216.107 353.124 215.8 355.018 215.8C356.911 215.8 358.564 216.093 359.978 216.68C361.391 217.267 362.458 217.987 363.178 218.84C363.924 219.667 364.298 220.427 364.298 221.12C364.298 221.36 364.204 221.573 364.018 221.76C363.858 221.947 363.658 222.04 363.418 222.04H359.258C359.044 222.04 358.844 221.973 358.658 221.84C358.311 221.653 358.004 221.453 357.738 221.24C357.284 220.893 356.858 220.627 356.458 220.44C356.058 220.253 355.564 220.16 354.978 220.16C354.284 220.16 353.724 220.32 353.298 220.64C352.898 220.96 352.698 221.373 352.698 221.88C352.698 222.28 352.804 222.613 353.018 222.88C353.258 223.147 353.738 223.413 354.458 223.68C355.204 223.92 356.298 224.173 357.738 224.44C360.324 224.893 362.204 225.693 363.378 226.84C364.578 227.987 365.178 229.333 365.178 230.88C365.178 232.853 364.298 234.44 362.538 235.64C360.778 236.813 358.324 237.4 355.178 237.4Z" fill="#2B303F"/>
<circle cx="31.5" cy="145.5" r="16.5" fill="#F14842"/>
<ellipse cx="241" cy="16.5" rx="17" ry="16.5" fill="#F14842"/>
<circle cx="169.5" cy="437.5" r="31.5" fill="#0060B9"/>
<circle cx="82" cy="61" r="32" fill="#0060B9"/>
<g opacity="0.15">
<path d="M47.5599 328.15C62.9962 328.15 75.5099 315.636 75.5099 300.2C75.5099 284.764 62.9962 272.25 47.5599 272.25C32.1235 272.25 19.6099 284.764 19.6099 300.2C19.6099 315.636 32.1235 328.15 47.5599 328.15Z" fill="url(#paint0_radial_111_93)"/>
</g>
<defs>
<radialGradient id="paint0_radial_111_93" cx="0" cy="0" r="1" gradientUnits="userSpaceOnUse" gradientTransform="translate(40.8296 289.277) rotate(5.10053) scale(53.389)">
<stop stop-color="#F6EEEA"/>
<stop offset="0.1266" stop-color="#EFE5E1"/>
<stop offset="0.3229" stop-color="#DECFC9"/>
<stop offset="0.4032" stop-color="#D5C4BC"/>
<stop offset="0.5105" stop-color="#D1BCB2"/>
<stop offset="0.6452" stop-color="#C7AA9C"/>
<stop offset="1" stop-color="#D5C4BC"/>
</radialGradient>
<clipPath id="clip0_111_93">
<rect width="311" height="311" fill="white" transform="translate(158 68)"/>
</clipPath>
</defs>
</svg>
