<svg width="52" height="52" viewBox="0 0 52 52" fill="none" xmlns="http://www.w3.org/2000/svg">
<g id="group 1" clip-path="url(#clip0_21_925)">
<path id="Vector" d="M46.2232 36.9562C46.8169 35.2628 47.1217 33.4817 47.1251 31.6872C47.1174 28.6732 46.2735 25.7204 44.6874 23.1574C43.1014 20.5945 40.8352 18.5219 38.1413 17.1702C37.97 15.3617 37.1305 13.682 35.7868 12.4595C34.443 11.237 32.6917 10.5596 30.8751 10.5596C29.0584 10.5596 27.3071 11.237 25.9634 12.4595C24.6197 13.682 23.7801 15.3617 23.6089 17.1702C20.915 18.5219 18.6489 20.5946 17.0628 23.1575C15.4767 25.7204 14.6329 28.6732 14.6251 31.6872C14.6284 33.4819 14.9333 35.2633 15.5269 36.9571C14.3696 37.3489 13.3289 38.0247 12.5001 38.9226C11.6714 39.8206 11.081 40.9119 10.783 42.097C10.4849 43.282 10.4888 44.5228 10.7942 45.706C11.0995 46.8891 11.6967 47.9768 12.531 48.8696C13.3653 49.7623 14.4101 50.4317 15.5699 50.8163C16.7297 51.201 17.9675 51.2887 19.1699 51.0715C20.3724 50.8543 21.5012 50.3391 22.4531 49.5729C23.405 48.8068 24.1496 47.8142 24.6188 46.6859C26.6011 47.5121 28.7275 47.9375 30.8751 47.9375C33.0227 47.9375 35.149 47.5121 37.1313 46.6859C37.5998 47.816 38.3444 48.8104 39.2967 49.5782C40.2491 50.3459 41.3788 50.8625 42.5825 51.0806C43.7862 51.2987 45.0254 51.2113 46.1866 50.8265C47.3478 50.4417 48.3939 49.7717 49.2291 48.8779C50.0643 47.9841 50.662 46.895 50.9673 45.7105C51.2726 44.5259 51.2759 43.2836 50.9768 42.0974C50.6777 40.9113 50.0859 39.8191 49.2554 38.9209C48.4249 38.0227 47.3823 37.3472 46.2232 36.9562ZM44.6453 36.6012H44.6372C44.384 36.5753 44.1296 36.5623 43.8751 36.5622C41.9363 36.5643 40.0776 37.3354 38.7067 38.7063C37.3358 40.0772 36.5647 41.9359 36.5626 43.8747C36.5715 44.2901 36.6071 44.7045 36.669 45.1154C34.8385 45.9014 32.8672 46.3067 30.8751 46.3067C28.8829 46.3067 26.9116 45.9014 25.0811 45.1154C25.1431 44.7045 25.1787 44.2901 25.1876 43.8747C25.1854 41.9359 24.4143 40.0772 23.0434 38.7063C21.6725 37.3354 19.8138 36.5643 17.8751 36.5622C17.6203 36.562 17.3656 36.5747 17.1121 36.6004H17.1048C16.5367 35.0247 16.2474 33.3621 16.2501 31.6872C16.2555 29.1058 16.942 26.5716 18.2402 24.3404C19.5384 22.1092 21.4024 20.2601 23.6438 18.9797C23.9076 20.7079 24.7817 22.2845 26.1079 23.4236C27.434 24.5627 29.1244 25.189 30.8726 25.189C32.6209 25.189 34.3112 24.5627 35.6374 23.4236C36.9636 22.2845 37.8377 20.7079 38.1014 18.9797C40.3438 20.2595 42.2087 22.1083 43.5078 24.3396C44.8069 26.5708 45.4941 29.1053 45.5001 31.6872C45.5028 33.3624 45.2135 35.0253 44.6453 36.6012Z" fill="#C4A2FC"/>
<path id="Vector_2" d="M17.0169 15.1694C16.9314 14.9715 16.7709 14.8156 16.5705 14.7361C16.3701 14.6565 16.1464 14.6598 15.9485 14.7453C15.7505 14.8307 15.5947 14.9913 15.5151 15.1917C15.4356 15.392 15.4389 15.6158 15.5243 15.8137C15.9902 16.8868 16.7535 17.8042 17.7241 18.4574C18.6946 19.1106 19.8318 19.4724 21.0014 19.5H21.2687C22.435 19.4694 23.5682 19.1061 24.5349 18.453C25.5017 17.7999 26.2617 16.8842 26.7254 15.8137C26.8109 15.6158 26.8142 15.392 26.7347 15.1917C26.6551 14.9913 26.4992 14.8307 26.3013 14.7453C26.1034 14.6598 25.8796 14.6565 25.6793 14.7361C25.4789 14.8156 25.3183 14.9715 25.2329 15.1694C24.8951 15.9522 24.3412 16.6225 23.6361 17.1017C22.9309 17.5809 22.1038 17.8492 21.2516 17.875H21.0233C20.167 17.8532 19.3348 17.5869 18.6249 17.1075C17.915 16.6281 17.357 15.9556 17.0169 15.1694Z" fill="#151A6A"/>
<path id="Vector_3" d="M34.3102 16.9512C35.4327 16.3866 36.4165 15.5807 37.1911 14.5914C37.9657 13.6021 38.5121 12.4538 38.791 11.2286C39.0699 10.0035 39.0745 8.73185 38.8045 7.50471C38.5345 6.27757 37.9965 5.1253 37.2291 4.13039C36.4617 3.13547 35.4838 2.32252 34.3655 1.74973C33.2472 1.17693 32.016 0.858464 30.7602 0.817117C29.5044 0.77577 28.255 1.01257 27.1014 1.51056C25.9478 2.00855 24.9186 2.75542 24.0874 3.6977C22.1555 3.11636 20.0953 3.11636 18.1634 3.6977C17.3319 2.75577 16.3025 2.00933 15.1487 1.51182C13.995 1.0143 12.7455 0.778023 11.4898 0.819895C10.234 0.861766 9.00307 1.18075 7.88504 1.75402C6.767 2.32728 5.78953 3.14064 5.02262 4.13587C4.2557 5.13109 3.71831 6.28357 3.4489 7.51079C3.1795 8.73801 3.18476 10.0096 3.4643 11.2346C3.74384 12.4595 4.29074 13.6075 5.06586 14.5963C5.84098 15.5852 6.82514 16.3905 7.94787 16.9545C5.85558 17.7363 4.05155 19.1378 2.77661 20.9719C1.50167 22.8059 0.816479 24.9851 0.8125 27.2188V32.5C0.8125 32.7155 0.898102 32.9222 1.05048 33.0745C1.20285 33.2269 1.40951 33.3125 1.625 33.3125H7.52863C7.38577 34.1172 7.31346 34.9328 7.3125 35.75V40.625C7.3125 40.8405 7.3981 41.0472 7.55048 41.1995C7.70285 41.3519 7.90951 41.4375 8.125 41.4375H34.125C34.3405 41.4375 34.5472 41.3519 34.6995 41.1995C34.8519 41.0472 34.9375 40.8405 34.9375 40.625V35.75C34.9365 34.9328 34.8642 34.1172 34.7214 33.3125H40.625C40.8405 33.3125 41.0472 33.2269 41.1995 33.0745C41.3519 32.9222 41.4375 32.7155 41.4375 32.5V27.2188C41.4418 24.9839 40.7609 22.8015 39.4865 20.9656C38.2121 19.1297 36.4055 17.7286 34.3102 16.9512ZM30.4688 2.43751C32.2629 2.43987 33.9858 3.14037 35.2725 4.39071C36.5593 5.64106 37.309 7.34309 37.3628 9.13647C37.4167 10.9298 36.7705 12.6738 35.5611 13.9991C34.3516 15.3244 32.6739 16.127 30.8831 16.237C31.1403 15.3152 31.2741 14.3633 31.2812 13.4063C31.2698 11.5294 30.744 9.69169 29.761 8.09285C28.778 6.49401 27.3755 5.1953 25.7059 4.33795C26.9885 3.11316 28.6953 2.43214 30.4688 2.43751ZM24.0695 5.3942C25.9448 6.07979 27.5202 7.40143 28.5214 9.12897C29.5226 10.8565 29.8861 12.8805 29.5487 14.8485C29.2113 16.8164 28.1943 18.6037 26.6748 19.8991C25.1553 21.1944 23.2296 21.9158 21.2331 21.9375C21.1152 21.9375 21.0616 21.9375 20.9251 21.9375C18.9396 21.8897 17.033 21.1509 15.5335 19.8486C14.034 18.5463 13.0355 16.7619 12.7101 14.8026C12.3846 12.8434 12.7526 10.832 13.7505 9.11484C14.7484 7.39767 16.3139 6.08222 18.1772 5.39501C20.0809 4.70614 22.1657 4.70585 24.0695 5.3942ZM4.875 9.34376C4.87408 7.99178 5.27001 6.66927 6.01368 5.5402C6.75736 4.41113 7.81607 3.52517 9.05856 2.99217C10.301 2.45917 11.6726 2.30258 13.0033 2.54181C14.3339 2.78103 15.5651 3.40556 16.5441 4.33795C14.8738 5.19444 13.4707 6.49295 12.4876 8.09198C11.5045 9.69101 10.9791 11.5292 10.9688 13.4063C10.976 14.3633 11.1099 15.3151 11.3669 16.237C9.61091 16.1295 7.96195 15.3567 6.75582 14.076C5.54969 12.7953 4.87709 11.103 4.875 9.34376ZM2.4375 27.2188C2.44145 25.9741 2.69321 24.7426 3.17809 23.5963C3.66297 22.4499 4.37127 21.4115 5.26167 20.5418C6.15207 19.672 7.20674 18.9883 8.36417 18.5304C9.5216 18.0726 10.7586 17.8498 12.0031 17.875C13.0404 19.9565 14.7502 21.6267 16.8553 22.6151C14.75 23.3052 12.8403 24.4886 11.2854 26.0668C9.73053 27.645 8.57561 29.5722 7.917 31.6875H2.4375V27.2188ZM33.3125 39.8125H8.9375V35.75C8.9375 28.258 15.652 23.1221 21.333 23.5706C24.53 23.6181 27.5797 24.9228 29.8218 27.2023C32.0639 29.4818 33.318 32.5527 33.3125 35.75V39.8125ZM39.8125 31.6875H34.3322C33.6741 29.5736 32.5209 27.6474 30.9686 26.0689C29.4162 24.4904 27.5095 23.3052 25.4069 22.6119C27.5042 21.618 29.2081 19.9504 30.2469 17.875C31.4927 17.8445 32.7321 18.0638 33.8918 18.5197C35.0516 18.9757 36.1083 19.6593 36.9998 20.53C37.8913 21.4008 38.5994 22.4413 39.0824 23.59C39.5655 24.7388 39.8137 25.9726 39.8125 27.2188V31.6875Z" fill="#151A6A"/>
</g>
<defs>
<clipPath id="clip0_21_925">
<rect width="52" height="52" fill="white"/>
</clipPath>
</defs>
</svg>
