<svg width="624" height="469" viewBox="0 0 624 469" fill="none" xmlns="http://www.w3.org/2000/svg">
<g clip-path="url(#clip0_111_68)">
<path d="M218.742 119.327C216.41 119.327 214.078 118.438 212.3 116.658L181.864 86.2227H167.111C162.079 86.2227 158 82.1432 158 77.1113C158 72.0794 162.079 68 167.111 68H185.638C188.054 68 190.371 68.9603 192.08 70.669L225.185 103.774C228.743 107.332 228.743 113.1 225.185 116.659C223.406 118.438 221.074 119.327 218.742 119.327V119.327Z" fill="#007A9F"/>
<path d="M214.104 326.309L241.13 302.448C217.755 282.164 202.949 252.25 202.949 218.944C202.949 157.987 252.542 108.394 313.5 108.394C315.257 108.394 317.004 108.439 318.742 108.521L327.756 73.2518C323.063 72.7956 318.31 72.5557 313.5 72.5557C232.781 72.5557 167.111 138.225 167.111 218.944C167.111 261.327 185.223 299.552 214.104 326.309Z" fill="#0060B9"/>
<path d="M408.258 126.009C405.926 126.009 403.594 125.12 401.816 123.34C398.257 119.782 398.257 114.013 401.816 110.455L434.92 77.35C436.629 75.642 438.946 74.6816 441.362 74.6816H459.889C464.921 74.6816 469 78.7611 469 83.793C469 88.8249 464.921 92.9043 459.889 92.9043H445.136L414.7 123.34C412.922 125.12 410.59 126.009 408.258 126.009Z" fill="#00607F"/>
<path d="M225.12 379H206.594C201.562 379 197.482 374.921 197.482 369.889C197.482 364.857 201.562 360.778 206.594 360.778H221.346L240.697 341.427C244.255 337.869 250.024 337.869 253.582 341.427C257.14 344.986 257.14 350.754 253.582 354.313L231.563 376.332C229.854 378.04 227.537 379 225.12 379Z" fill="#007A9F"/>
<path d="M424.051 218.944C424.051 220.471 424.011 221.988 423.949 223.5H459.811L459.281 205.679C452.555 131.154 389.747 72.5557 313.5 72.5557V108.394C374.458 108.394 424.051 157.987 424.051 218.944Z" fill="#FEB512"/>
<path d="M423.95 223.5C422.772 252.399 410.452 278.473 391.174 297.529L416.503 322.858C442.273 297.313 458.62 262.282 459.811 223.5H423.95Z" fill="#F14842"/>
<path d="M313.5 365.333C353.515 365.333 389.824 349.19 416.276 323.08L393.083 295.596C372.961 316.48 344.723 329.495 313.5 329.495C282.174 329.495 253.85 316.396 233.715 295.389L208.386 320.719C235.015 348.212 272.293 365.333 313.5 365.333Z" fill="#FEB512"/>
<path d="M313.502 365.333C353.515 365.333 389.825 349.189 416.276 323.08L393.082 295.596C372.96 316.48 344.724 329.494 313.501 329.495V365.333H313.502Z" fill="#002D69"/>
</g>
<circle cx="31.5" cy="145.5" r="16.5" fill="#F14842"/>
<ellipse cx="241" cy="16.5" rx="17" ry="16.5" fill="#F14842"/>
<circle cx="169.5" cy="437.5" r="31.5" fill="#0060B9"/>
<circle cx="82" cy="61" r="32" fill="#0060B9"/>
<g opacity="0.15">
<path d="M47.5599 328.15C62.9962 328.15 75.5099 315.636 75.5099 300.2C75.5099 284.764 62.9962 272.25 47.5599 272.25C32.1235 272.25 19.6099 284.764 19.6099 300.2C19.6099 315.636 32.1235 328.15 47.5599 328.15Z" fill="url(#paint0_radial_111_68)"/>
</g>
<defs>
<radialGradient id="paint0_radial_111_68" cx="0" cy="0" r="1" gradientUnits="userSpaceOnUse" gradientTransform="translate(40.8296 289.277) rotate(5.10053) scale(53.389)">
<stop stop-color="#F6EEEA"/>
<stop offset="0.1266" stop-color="#EFE5E1"/>
<stop offset="0.3229" stop-color="#DECFC9"/>
<stop offset="0.4032" stop-color="#D5C4BC"/>
<stop offset="0.5105" stop-color="#D1BCB2"/>
<stop offset="0.6452" stop-color="#C7AA9C"/>
<stop offset="1" stop-color="#D5C4BC"/>
</radialGradient>
<clipPath id="clip0_111_68">
<rect width="311" height="311" fill="white" transform="translate(158 68)"/>
</clipPath>
</defs>
</svg>
