<svg width="42" height="42" viewBox="0 0 42 42" fill="none" xmlns="http://www.w3.org/2000/svg">
<g id="idea 1" clip-path="url(#clip0_21_854)">
<path id="Vector" d="M20.3811 15.9292L7.9563 22.8128L20.3811 29.6967L32.8063 22.8128L20.3811 15.9292Z" fill="#FC3E81"/>
<path id="Vector_2" d="M32.8068 22.8124L20.3823 29.696L7.95679 22.8124L9.53845 21.937L20.3823 27.9439L31.2261 21.937L32.8068 22.8124Z" fill="#F01054"/>
<path id="Vector_3" d="M31.3109 10.9305C31.3109 13.4164 30.4803 15.7088 29.0819 17.5446C27.3368 19.8347 26.0647 22.429 25.3726 25.1799C25.2082 25.8281 25.0768 26.485 24.98 27.1486C24.9538 27.3217 24.931 27.4954 24.9099 27.669H15.8525C15.832 27.4954 15.8092 27.3217 15.7836 27.1486C15.6881 26.4866 15.5589 25.8307 15.3981 25.1841C14.7217 22.4482 13.4752 19.8658 11.7275 17.6064C10.2215 15.6572 9.35854 13.1857 9.45851 10.5094C9.67064 4.87428 14.2202 0.277321 19.8534 0.0129624C26.1301 -0.282799 31.3109 4.71919 31.3109 10.9305Z" fill="#FFDF46"/>
<path id="Vector_4" d="M25.3728 25.1792C25.2085 25.8274 25.0771 26.4843 24.9806 27.1479L24.0408 27.6683H20.8794L25.3728 25.1792Z" fill="#F9B200"/>
<path id="Vector_5" d="M15.3979 25.1836L19.8837 27.6686H16.7217L15.7834 27.1482C15.6876 26.4862 15.5588 25.8302 15.3979 25.1836Z" fill="#F9B200"/>
<path id="Vector_6" d="M31.3119 10.9305C31.3119 13.4167 30.4817 15.7082 29.0823 17.5446C26.8185 20.5153 25.3512 23.9978 24.9106 27.669H22.3106C22.7509 23.9978 24.2185 20.5153 26.4823 17.5446C27.8813 15.7082 28.7119 13.4167 28.7119 10.9305C28.7119 5.33346 24.5027 0.716637 19.0784 0.0764084C19.335 0.0472489 19.5933 0.0261002 19.8535 0.0129624C26.1295 -0.282799 31.3119 4.71919 31.3119 10.9305Z" fill="#F9B200"/>
<path id="Vector_7" d="M26.4752 28.9683V35.6314C26.4752 36.529 25.7478 37.2564 24.8503 37.2564H15.9124C15.0149 37.2564 14.2869 36.529 14.2869 35.6314V28.9683C14.2869 28.0708 15.0149 27.3428 15.9124 27.3428H24.8503C25.7478 27.3428 26.4752 28.0708 26.4752 28.9683Z" fill="#A7C7D3"/>
<path id="Vector_8" d="M24.6285 27.3428L20.3818 29.6957L16.1348 27.3428H19.2968L20.3818 27.9436L21.4665 27.3428H24.6285Z" fill="#84A1C0"/>
<path id="Vector_9" d="M25.9886 31.311H14.9377C14.5869 31.311 14.302 31.0265 14.302 30.6753C14.302 30.3241 14.5869 30.0396 14.9377 30.0396H25.9886C26.3394 30.0396 26.624 30.3241 26.624 30.6753C26.624 31.0265 26.3394 31.311 25.9886 31.311Z" fill="black"/>
<path id="Vector_10" d="M25.9886 34.561H14.9377C14.5869 34.561 14.302 34.2765 14.302 33.9253C14.302 33.5741 14.5869 33.2896 14.9377 33.2896H25.9886C26.3394 33.2896 26.624 33.5741 26.624 33.9253C26.624 34.2765 26.3394 34.561 25.9886 34.561Z" fill="black"/>
<path id="Vector_11" d="M26.7264 12.5125C26.834 12.8246 26.8917 13.1595 26.8917 13.5075C26.8917 15.201 25.519 16.574 23.8255 16.574C23.7085 16.574 23.5932 16.5673 23.4788 16.5535C23.3278 17.4264 22.5678 18.091 21.6516 18.091H21.6372C20.9406 18.0858 20.3821 17.5113 20.3821 16.8147V4.68431C20.3821 4.43662 20.476 4.19693 20.6455 4.01717C21.1668 3.46474 21.9051 3.11963 22.7235 3.11963C24.1671 3.11963 25.3604 4.1902 25.5526 5.58089C27.0772 6.1785 28.1577 7.66339 28.1577 9.40047C28.1581 10.6457 27.6028 11.7608 26.7264 12.5125Z" fill="#FC3E81"/>
<path id="Vector_12" d="M23.4795 17.1896C23.4468 17.1896 23.4135 17.187 23.3802 17.1816C22.6605 17.0688 21.9917 16.7372 21.447 16.2222C21.1916 15.9812 21.1804 15.5788 21.4214 15.3237C21.6627 15.0683 22.0648 15.0571 22.3199 15.2981C22.6775 15.6358 23.112 15.8528 23.5773 15.9258C23.924 15.9803 24.1611 16.3052 24.1066 16.6522C24.0576 16.9656 23.7871 17.1896 23.4795 17.1896Z" fill="#F01054"/>
<path id="Vector_13" d="M23.2586 7.58053C23.133 7.71768 22.9609 7.78722 22.7898 7.78722C22.6357 7.78722 22.4822 7.7321 22.3601 7.62027C21.8788 7.17871 21.2328 6.97876 20.5897 7.07104C20.5186 7.0813 20.4481 7.07873 20.3821 7.06688V5.8175C20.3904 5.81494 20.3997 5.8143 20.4093 5.81238C21.4312 5.66594 22.455 5.98285 23.2186 6.683C23.4781 6.92012 23.4951 7.32194 23.2586 7.58053Z" fill="#F01054"/>
<path id="Vector_14" d="M20.3822 4.68431V16.8147C20.3822 17.5113 19.8237 18.0858 19.127 18.091H19.1117C18.1955 18.091 17.4355 17.4264 17.2845 16.5535C17.1711 16.5673 17.0548 16.574 16.9378 16.574C15.2443 16.574 13.8716 15.201 13.8716 13.5075C13.8716 13.1595 13.9299 12.8246 14.0369 12.5125C13.1615 11.7608 12.6062 10.6457 12.6062 9.40047C12.6062 7.66307 13.6861 6.17818 15.2113 5.58089C15.4039 4.1902 16.5963 3.11963 18.0395 3.11963C18.8592 3.11963 19.5974 3.46474 20.1178 4.01717C20.288 4.19693 20.3822 4.43662 20.3822 4.68431Z" fill="#FD82AC"/>
<path id="Vector_15" d="M17.2836 17.1895C16.9759 17.1895 16.7055 16.9655 16.6561 16.6521C16.602 16.3054 16.8391 15.9802 17.1858 15.9257C17.6508 15.853 18.0856 15.6357 18.4429 15.298C18.6979 15.057 19.1004 15.0685 19.3414 15.3236C19.5827 15.5787 19.5711 15.9811 19.3161 16.2221C18.771 16.737 18.1026 17.0687 17.3826 17.1818C17.3492 17.1869 17.3162 17.1895 17.2836 17.1895Z" fill="#FD6096"/>
<path id="Vector_16" d="M20.3819 5.8175V7.06688C20.3159 7.07873 20.2454 7.0813 20.1742 7.07104C19.5308 6.97876 18.8851 7.17871 18.4038 7.62027C18.2817 7.7321 18.1276 7.78722 17.9741 7.78722C17.8021 7.78722 17.6309 7.71768 17.5053 7.58053C17.2682 7.32194 17.2858 6.92012 17.5444 6.683C18.308 5.98285 19.3318 5.66594 20.3546 5.81238C20.3639 5.8143 20.3732 5.81526 20.3819 5.8175Z" fill="#FD6096"/>
<path id="Vector_17" d="M27.3203 12.2863C26.8695 11.1007 25.8592 10.2304 24.6527 9.9715C24.614 9.38991 24.4355 8.83844 24.1301 8.3642C23.9401 8.06908 23.5469 7.98417 23.2515 8.17386C22.9563 8.3642 22.8714 8.75737 23.0614 9.05249C23.2761 9.38639 23.3899 9.78757 23.3899 10.2134C23.3899 10.7098 23.2329 11.1779 22.9477 11.5317C22.7272 11.805 22.7705 12.2049 23.0435 12.4254C23.1611 12.5202 23.3021 12.5661 23.4421 12.5661C23.6277 12.5661 23.8119 12.4853 23.9375 12.3296C24.1932 12.0123 24.3855 11.6429 24.5076 11.2449C25.233 11.4461 25.855 12.0088 26.1322 12.7381C26.2286 12.9919 26.4702 13.148 26.7263 13.148C26.8016 13.148 26.8778 13.1345 26.9522 13.1063C27.2803 12.9817 27.4453 12.6148 27.3203 12.2863Z" fill="#F01054"/>
<path id="Vector_18" d="M17.3733 10.2133C17.3733 9.78749 17.4867 9.3863 17.7017 9.05273C17.8921 8.75761 17.8068 8.36412 17.5117 8.1741C17.2166 7.98408 16.8231 8.069 16.6331 8.36412C16.3277 8.83836 16.1492 9.38983 16.1101 9.97142C14.904 10.2306 13.8937 11.1006 13.4425 12.2866C13.3179 12.6147 13.4826 12.9819 13.8107 13.1066C13.885 13.1347 13.9616 13.1482 14.0366 13.1482C14.2929 13.1482 14.5342 12.9922 14.631 12.7384C14.9082 12.0091 15.5298 11.4461 16.2556 11.2451C16.3777 11.6431 16.5699 12.0123 16.8257 12.3295C16.9513 12.4855 17.1352 12.5663 17.321 12.5663C17.4611 12.5663 17.6017 12.5205 17.7193 12.4256C17.9927 12.2052 18.0356 11.8049 17.8152 11.5319C17.5303 11.1779 17.3733 10.7097 17.3733 10.2133Z" fill="#FD6096"/>
<path id="Vector_19" d="M32.8066 22.8125V34.7388C32.8066 35.0464 32.6397 35.3303 32.3702 35.4793L20.7922 41.8944C20.7913 41.895 20.7897 41.895 20.7887 41.896C20.6618 41.9662 20.5228 42.0001 20.3821 42.0001V29.6961L32.8066 22.8125Z" fill="#E29C6D"/>
<path id="Vector_20" d="M20.3823 29.6961V42.0001C20.2458 42.0001 20.1093 41.9678 19.9846 41.9011C19.9805 41.8992 19.9753 41.8966 19.9712 41.8944L8.39418 35.4793C8.12469 35.3303 7.95679 35.0464 7.95679 34.7388V22.8125L20.3823 29.6961Z" fill="#EDB48A"/>
<path id="Vector_21" d="M35.4088 28.9456L24.4512 35.0166C24.0532 35.237 23.552 35.0999 23.3217 34.7074L20.3813 29.6964L32.8065 22.8125L35.7257 27.7879C35.9641 28.1942 35.8212 28.7175 35.4088 28.9456Z" fill="#EDB48A"/>
<path id="Vector_22" d="M5.35369 28.9456L16.3113 35.0166C16.7096 35.237 17.2107 35.0999 17.4411 34.7074L20.3811 29.6964L7.95626 22.8125L5.03678 27.7879C4.79838 28.1942 4.94161 28.7175 5.35369 28.9456Z" fill="#E29C6D"/>
<path id="Vector_23" d="M7.17692 17.784C6.82732 17.784 6.5431 17.5013 6.5415 17.1514L6.54053 16.9931C6.53893 16.6422 6.82188 16.3561 7.17307 16.3545H7.17628C7.52587 16.3545 7.81009 16.6368 7.8117 16.9867L7.81266 17.145C7.81426 17.4962 7.531 17.782 7.18012 17.784C7.17916 17.784 7.17788 17.784 7.17692 17.784Z" fill="#7884EA"/>
<path id="Vector_24" d="M7.18278 20.117C6.83319 20.117 6.54896 19.8347 6.54704 19.4844L6.5464 19.3264C6.54447 18.9753 6.82774 18.6894 7.17861 18.6875H7.18182C7.53141 18.6875 7.81564 18.9701 7.81756 19.32L7.8182 19.4783C7.82012 19.8292 7.53686 20.1154 7.18598 20.117C7.1847 20.117 7.18374 20.117 7.18278 20.117Z" fill="#7884EA"/>
<path id="Vector_25" d="M8.26678 18.8685C7.91719 18.8685 7.63296 18.5862 7.63136 18.2363C7.62943 17.8854 7.91238 17.5992 8.26358 17.5973L8.42187 17.5967H8.42507C8.77467 17.5967 9.05889 17.879 9.06082 18.2289C9.06242 18.5798 8.77947 18.8659 8.42828 18.8678L8.2703 18.8685C8.26902 18.8685 8.26774 18.8685 8.26678 18.8685Z" fill="#7884EA"/>
<path id="Vector_26" d="M5.93312 18.8743C5.58352 18.8743 5.2993 18.592 5.29737 18.2421C5.29545 17.8913 5.57871 17.6051 5.92959 17.6032L6.08789 17.6025H6.09141C6.441 17.6025 6.72491 17.8848 6.72683 18.2348C6.72875 18.5856 6.44549 18.8718 6.09461 18.8737L5.93632 18.8743C5.93536 18.8743 5.93408 18.8743 5.93312 18.8743Z" fill="#7884EA"/>
<path id="Vector_27" d="M35.2116 13.637C34.8623 13.637 34.5778 13.3547 34.5762 13.0044L34.5752 12.8465C34.5736 12.4953 34.8569 12.2094 35.2077 12.2075H35.2109C35.5605 12.2075 35.8448 12.4901 35.8467 12.8401L35.8473 12.9984C35.8492 13.3492 35.566 13.6354 35.2148 13.637C35.2138 13.637 35.2129 13.637 35.2116 13.637Z" fill="#9BE058"/>
<path id="Vector_28" d="M35.2174 15.9705C34.8679 15.9705 34.5836 15.6879 34.582 15.3379L34.5811 15.18C34.5791 14.8288 34.8624 14.5426 35.2133 14.541H35.2168C35.5664 14.541 35.8503 14.8233 35.8522 15.1732L35.8532 15.3315C35.8548 15.6824 35.5718 15.9686 35.221 15.9705C35.2197 15.9705 35.2187 15.9705 35.2174 15.9705Z" fill="#9BE058"/>
<path id="Vector_29" d="M36.3019 14.7223C35.9523 14.7223 35.6681 14.4397 35.6665 14.0898C35.6649 13.7386 35.9482 13.4528 36.2991 13.4512L36.4573 13.4502H36.4602C36.8101 13.4502 37.0944 13.7328 37.096 14.0831C37.0976 14.4339 36.8143 14.7198 36.4634 14.7217L36.3051 14.7223C36.3042 14.7223 36.3029 14.7223 36.3019 14.7223Z" fill="#9BE058"/>
<path id="Vector_30" d="M33.9692 14.7274C33.6197 14.7274 33.3354 14.4447 33.3335 14.0948C33.3319 13.744 33.6152 13.4578 33.9664 13.4562L34.1247 13.4556H34.1275C34.4771 13.4556 34.7614 13.7382 34.7633 14.0881C34.7649 14.4393 34.4816 14.7251 34.1304 14.7267L33.9721 14.7274C33.9712 14.7274 33.9702 14.7274 33.9692 14.7274Z" fill="#9BE058"/>
<g id="Group">
<path id="Vector_31" d="M8.26408 2.66774C7.91448 2.66774 7.63058 2.38512 7.62866 2.03552L7.6277 1.87723C7.62577 1.52603 7.90904 1.23988 8.25991 1.23828H8.26344C8.61303 1.23828 8.89694 1.52058 8.89886 1.8705L8.89982 2.02879C8.90143 2.37967 8.61848 2.66582 8.2676 2.66774C8.26632 2.66774 8.26504 2.66774 8.26408 2.66774Z" fill="#FC3E81"/>
<path id="Vector_32" d="M8.26969 5.00075C7.92042 5.00075 7.63619 4.71844 7.63427 4.36853L7.63331 4.21024C7.63171 3.85936 7.91465 3.57321 8.26585 3.57129H8.26905C8.61865 3.57129 8.90287 3.85391 8.90479 4.20351L8.90543 4.3618C8.90736 4.713 8.62409 4.99915 8.27322 5.00075C8.27225 5.00075 8.27097 5.00075 8.26969 5.00075Z" fill="#FC3E81"/>
<path id="Vector_33" d="M9.35401 3.75308C9.00442 3.75308 8.72019 3.47046 8.71827 3.12086C8.71667 2.76967 8.99961 2.48352 9.35081 2.48192L9.50878 2.48096H9.51231C9.8619 2.48096 10.1458 2.76326 10.1477 3.11317C10.1497 3.46437 9.86671 3.75052 9.51551 3.75212L9.35722 3.75308C9.35625 3.75308 9.35497 3.75308 9.35401 3.75308Z" fill="#FC3E81"/>
<path id="Vector_34" d="M7.02044 3.75796C6.67117 3.75796 6.38694 3.47566 6.38502 3.12575C6.3831 2.77455 6.66636 2.48872 7.01724 2.4868L7.17553 2.48584H7.17874C7.52833 2.48584 7.81256 2.76846 7.81448 3.11838C7.8164 3.46925 7.53314 3.7554 7.18226 3.75732L7.02397 3.75796C7.02268 3.75796 7.02172 3.75796 7.02044 3.75796Z" fill="#FC3E81"/>
<path id="Vector_35" d="M32.8044 17.9265C32.4548 17.9265 32.1705 17.6439 32.1686 17.294L32.168 17.136C32.1661 16.7848 32.4493 16.4987 32.8002 16.4971C33.1485 16.4974 33.4372 16.7781 33.4391 17.1293L33.4401 17.2876C33.4417 17.6385 33.1588 17.9246 32.8076 17.9265C32.8066 17.9265 32.8053 17.9265 32.8044 17.9265Z" fill="#FC3E81"/>
<path id="Vector_36" d="M32.8095 20.2595C32.4602 20.2595 32.176 19.9772 32.1741 19.6273L32.1731 19.469C32.1715 19.1181 32.4544 18.832 32.8056 18.8301H32.8088C33.1584 18.8301 33.4427 19.1127 33.4446 19.4626L33.4452 19.6206C33.4471 19.9718 33.1639 20.2576 32.813 20.2595C32.812 20.2595 32.8108 20.2595 32.8095 20.2595Z" fill="#FC3E81"/>
<path id="Vector_37" d="M33.8937 19.0119C33.5445 19.0119 33.2602 18.7292 33.2583 18.3793C33.2564 18.0285 33.5397 17.7423 33.8905 17.7404L34.0488 17.7397H34.0523C34.4016 17.7397 34.6858 18.022 34.6878 18.372C34.6897 18.7228 34.4064 19.009 34.0555 19.0109L33.8973 19.0119C33.8963 19.0119 33.895 19.0119 33.8937 19.0119Z" fill="#FC3E81"/>
<path id="Vector_38" d="M31.5602 19.0168C31.2106 19.0168 30.9264 18.7345 30.9248 18.3845C30.9229 18.0333 31.2058 17.7472 31.557 17.7456L31.7153 17.7446C32.07 17.7437 32.3523 18.026 32.3543 18.3768C32.3559 18.728 32.0729 19.0142 31.7217 19.0158L31.5638 19.0168C31.5625 19.0168 31.5615 19.0168 31.5602 19.0168Z" fill="#FC3E81"/>
</g>
<path id="Vector_39" d="M33.4366 7.13059C33.1607 7.13059 32.9066 6.94955 32.8262 6.67109C32.7288 6.33399 32.9229 5.98151 33.2604 5.8841L33.9096 5.69665C34.247 5.59891 34.5995 5.79342 34.6966 6.13084C34.7943 6.46793 34.5998 6.82041 34.2624 6.91782L33.6132 7.10528C33.5542 7.12258 33.4949 7.13059 33.4366 7.13059Z" fill="#43A3F9"/>
<path id="Vector_40" d="M32.7073 5.65891C32.5487 5.65891 32.39 5.60027 32.2667 5.48139C32.0139 5.23818 32.0058 4.83571 32.2494 4.58289L32.7179 4.09583C32.9611 3.843 33.3635 3.83499 33.6167 4.0782C33.8695 4.32173 33.8772 4.7242 33.634 4.97702L33.1655 5.46408C33.0408 5.59386 32.8742 5.65891 32.7073 5.65891Z" fill="#43A3F9"/>
<path id="Vector_41" d="M34.2606 8.92694C34.2103 8.92694 34.1587 8.92085 34.1078 8.90836L33.4515 8.7459C33.1109 8.66162 32.903 8.31715 32.9872 7.97621C33.0715 7.63559 33.4163 7.42763 33.7569 7.5119L34.4128 7.67436C34.7535 7.75864 34.9614 8.1031 34.8772 8.44373C34.8057 8.7334 34.5461 8.92694 34.2606 8.92694Z" fill="#43A3F9"/>
<path id="Vector_42" d="M6.12748 12.6556C5.79166 12.6556 5.51096 12.3925 5.49334 12.0532C5.47475 11.7026 5.74424 11.4037 6.09479 11.3851L6.76963 11.3498C7.12018 11.3284 7.41915 11.6007 7.43773 11.9513C7.456 12.3018 7.18683 12.6011 6.83596 12.6194L6.16112 12.6546C6.14991 12.6553 6.13869 12.6556 6.12748 12.6556Z" fill="#FFDF46"/>
<path id="Vector_43" d="M7.00976 10.9904C6.91235 10.9904 6.81397 10.968 6.72169 10.9209L6.11927 10.6143C5.80653 10.4547 5.6822 10.0718 5.84177 9.75933C6.00103 9.44627 6.38395 9.32226 6.69669 9.48152L7.29879 9.78817C7.61154 9.94775 7.73586 10.3303 7.57661 10.6431C7.46414 10.8636 7.24111 10.9904 7.00976 10.9904Z" fill="#FFDF46"/>
<path id="Vector_44" d="M6.61312 14.5869C6.40484 14.5869 6.20104 14.485 6.07928 14.2976C5.8883 14.0031 5.97193 13.6093 6.26641 13.4183L6.83294 13.0505C7.12742 12.8592 7.52123 12.9428 7.71221 13.2373C7.90351 13.5318 7.81988 13.9252 7.5254 14.1165L6.95855 14.4844C6.85152 14.5539 6.73168 14.5869 6.61312 14.5869Z" fill="#FFDF46"/>
</g>
<defs>
<clipPath id="clip0_21_854">
<rect width="42" height="42" fill="white"/>
</clipPath>
</defs>
</svg>
