<svg width="60" height="60" viewBox="0 0 60 60" fill="none" xmlns="http://www.w3.org/2000/svg">
<g id="photographer 1">
<path id="Vector" d="M25.6 50.5476C35.762 50.5476 44 42.3096 44 32.1476C44 21.9855 35.762 13.7476 25.6 13.7476C15.4379 13.7476 7.19995 21.9855 7.19995 32.1476C7.19995 42.3096 15.4379 50.5476 25.6 50.5476Z" fill="#E5EFEF"/>
<path id="Vector_2" d="M23.2001 54.5478C22.7583 54.5478 22.4001 54.1896 22.4001 53.7478V49.7478C22.4001 49.306 22.7583 48.9478 23.2001 48.9478C23.6419 48.9478 24.0001 49.306 24.0001 49.7478V53.7478C24.0001 54.1896 23.6419 54.5478 23.2001 54.5478Z" fill="#4C241D"/>
<path id="Vector_3" d="M50.8 32.9476C49.2562 32.9476 48 31.6914 48 30.1477C48 28.6039 49.2562 27.3477 50.8 27.3477C52.3438 27.3477 53.6 28.6039 53.6 30.1477C53.6 31.6914 52.3438 32.9476 50.8 32.9476ZM50.8 28.9477C50.1382 28.9477 49.6 29.4859 49.6 30.1477C49.6 30.8095 50.1382 31.3476 50.8 31.3476C51.4618 31.3476 52 30.8095 52 30.1477C52 29.4859 51.4618 28.9477 50.8 28.9477Z" fill="#4C241D"/>
<path id="Vector_4" d="M53.1997 19.0533C53.7 19.0533 54.1055 18.6478 54.1055 18.1475C54.1055 17.6472 53.7 17.2417 53.1997 17.2417C52.6995 17.2417 52.2939 17.6472 52.2939 18.1475C52.2939 18.6478 52.6995 19.0533 53.1997 19.0533Z" fill="#4C241D"/>
<path id="Vector_5" d="M38.8001 8.6534C39.3003 8.6534 39.7059 8.24785 39.7059 7.7476C39.7059 7.24734 39.3003 6.8418 38.8001 6.8418C38.2998 6.8418 37.8943 7.24734 37.8943 7.7476C37.8943 8.24785 38.2998 8.6534 38.8001 8.6534Z" fill="#4C241D"/>
<path id="Vector_6" d="M43.6004 36.6534C44.1006 36.6534 44.5062 36.2479 44.5062 35.7476C44.5062 35.2473 44.1006 34.8418 43.6004 34.8418C43.1001 34.8418 42.6946 35.2473 42.6946 35.7476C42.6946 36.2479 43.1001 36.6534 43.6004 36.6534Z" fill="#4C241D"/>
<path id="Vector_7" d="M38.0354 38.4913L35.1754 37.1913C35.1816 37.1095 35.2 32.1479 35.2 32.1479H28.8C28.8 32.1479 28.8182 37.1095 28.8246 37.1913L25.9646 38.4913L32 48.148L38.0354 38.4913Z" fill="#E7D1C4"/>
<path id="Vector_8" d="M31.999 48.9477C31.7232 48.9477 31.467 48.8055 31.3204 48.5715L25.2848 38.9149C25.163 38.7195 25.1308 38.4809 25.1972 38.2603C25.264 38.0395 25.4222 37.8583 25.6324 37.7631L28.0192 36.6779C28.015 36.0721 28.0086 34.8083 27.9988 32.1509C27.998 31.9381 28.082 31.7337 28.232 31.5833C28.382 31.4325 28.5862 31.3477 28.7988 31.3477H35.1988C35.4112 31.3477 35.6156 31.4325 35.7656 31.5833C35.9156 31.7337 35.9996 31.9379 35.9988 32.1509C35.989 34.8083 35.9828 36.0719 35.9784 36.6779L38.3652 37.7631C38.5754 37.8585 38.7336 38.0397 38.8004 38.2603C38.8668 38.4811 38.8348 38.7197 38.7128 38.9149L32.6772 48.5715C32.531 48.8055 32.2748 48.9477 31.999 48.9477ZM27.126 38.8415L31.999 46.6383L36.872 38.8415L34.8434 37.9193C34.5376 37.7807 34.3508 37.4651 34.3766 37.1303C34.379 37.0081 34.3888 34.7889 34.3958 32.9479H29.602C29.609 34.7893 29.6188 37.0119 29.6228 37.1611C29.6318 37.4825 29.4474 37.7865 29.1544 37.9193L27.126 38.8415Z" fill="#4C241D"/>
<path id="Vector_9" d="M49.7296 11.6175C49.525 11.6175 49.3202 11.5393 49.164 11.3831C48.8516 11.0707 48.8516 10.5643 49.164 10.2519L52.103 7.31291C52.4154 7.00051 52.9218 7.00051 53.2342 7.31291C53.5466 7.62531 53.5466 8.13171 53.2342 8.44411L50.2952 11.3831C50.139 11.5393 49.9344 11.6175 49.7296 11.6175Z" fill="#4C241D"/>
<path id="Vector_10" d="M52.6688 11.6175C52.4642 11.6175 52.2594 11.5393 52.1032 11.3831L49.164 8.44411C48.8516 8.13171 48.8516 7.62531 49.164 7.31291C49.4764 7.00051 49.9828 7.00051 50.2952 7.31291L53.2342 10.2519C53.5466 10.5643 53.5466 11.0707 53.2342 11.3831C53.0782 11.5393 52.8734 11.6175 52.6688 11.6175Z" fill="#4C241D"/>
<path id="Vector_11" d="M42.4002 23.7476C42.3414 23.7476 42.3331 23.1594 42.3427 22.4874C42.3593 21.3232 41.5801 20.2876 40.4495 20.0086C34.9209 18.6444 28.9845 18.8992 23.5961 20.554C22.8899 20.7708 22.4265 21.4486 22.4473 22.1872C22.4683 22.9364 22.4739 23.7474 22.4001 23.7474C21.2713 23.7474 20.3609 24.6826 20.4015 25.8204C20.4243 26.4602 20.8177 27.0384 21.3483 27.3964C21.9917 27.8306 22.5443 27.7998 23.0345 27.6348C23.8281 31.5066 26.6389 34.7444 30.5199 35.9936C31.6325 36.3518 32.8361 36.3176 33.9481 35.9572L34.3031 35.8422C38.1217 34.6046 40.9076 31.4344 41.7376 27.6264C42.2258 27.7986 42.782 27.8288 43.4118 27.4364C43.9216 27.1188 44.3109 26.5976 44.3842 26.0016C44.5346 24.7838 43.5884 23.7476 42.4002 23.7476Z" fill="#E7D1C4"/>
<path id="Vector_12" d="M32.15 37.0482C31.5114 37.0482 30.8804 36.951 30.2746 36.756C26.4344 35.5196 23.4878 32.4134 22.43 28.5482C21.9132 28.5704 21.3952 28.3946 20.9004 28.0604C20.1176 27.5318 19.632 26.7058 19.6012 25.8498C19.5742 25.0814 19.8524 24.3548 20.3848 23.8034C20.7414 23.4342 21.1798 23.176 21.6606 23.0456C21.6606 22.8498 21.6574 22.5804 21.6474 22.21C21.6162 21.1042 22.3212 20.1088 23.361 19.7896C28.9738 18.0658 35.1106 17.8674 40.6406 19.2326C42.1352 19.601 43.164 20.9444 43.1422 22.499C43.1386 22.7268 43.1382 22.9064 43.139 23.0474C43.6594 23.19 44.1332 23.4814 44.4976 23.8934C45.0288 24.4938 45.2766 25.2976 45.178 26.0992C45.0792 26.8992 44.5772 27.6532 43.8346 28.1156C43.3514 28.4168 42.851 28.564 42.33 28.546C41.2418 32.3324 38.3194 35.3812 34.5496 36.6034L34.1938 36.7186C33.5168 36.938 32.8288 37.0482 32.15 37.0482ZM23.034 26.8354C23.1726 26.8354 23.3102 26.8714 23.4328 26.942C23.6316 27.056 23.7714 27.2502 23.8176 27.4748C24.5652 31.1212 27.2274 34.094 30.7648 35.233C31.6784 35.5268 32.7218 35.5142 33.7008 35.1966L34.0566 35.0814C37.5324 33.9548 40.1762 31.033 40.9558 27.4564C41.0046 27.2322 41.1476 27.0396 41.348 26.9278C41.5488 26.8156 41.7878 26.7958 42.0034 26.8724C42.3666 27.0006 42.6518 26.9678 42.989 26.7576C43.325 26.5482 43.55 26.229 43.5898 25.904C43.6332 25.552 43.53 25.2146 43.2992 24.9532C43.071 24.6954 42.7434 24.5478 42.3996 24.5478C42.1856 24.5478 41.9722 24.458 41.8218 24.3056C41.5596 24.0392 41.523 23.8002 41.5422 22.476C41.5536 21.6706 41.0254 20.9752 40.2574 20.7858C35.0034 19.4894 29.171 19.6792 23.8304 21.3194C23.4758 21.4284 23.2354 21.776 23.2464 22.1654C23.2922 23.8216 23.241 24.035 22.9824 24.301C22.8316 24.456 22.6156 24.5478 22.3996 24.5478C22.071 24.5478 21.7644 24.6778 21.536 24.9146C21.3078 25.151 21.1888 25.4626 21.2004 25.7928C21.2126 26.1334 21.4406 26.4944 21.7954 26.7342C22.1848 26.9966 22.4708 26.9818 22.779 26.8772C22.862 26.849 22.948 26.8354 23.034 26.8354ZM43.1574 23.5396H43.1656H43.1574Z" fill="#4C241D"/>
<path id="Vector_13" d="M36.4001 27.7475C36.8419 27.7475 37.2001 27.3893 37.2001 26.9475C37.2001 26.5056 36.8419 26.1475 36.4001 26.1475C35.9583 26.1475 35.6001 26.5056 35.6001 26.9475C35.6001 27.3893 35.9583 27.7475 36.4001 27.7475Z" fill="#4C241D"/>
<path id="Vector_14" d="M28.4003 27.7475C28.8422 27.7475 29.2003 27.3893 29.2003 26.9475C29.2003 26.5056 28.8422 26.1475 28.4003 26.1475C27.9585 26.1475 27.6003 26.5056 27.6003 26.9475C27.6003 27.3893 27.9585 27.7475 28.4003 27.7475Z" fill="#4C241D"/>
<path id="Vector_15" d="M42.4002 16.9477C42.4002 8.14773 22.4002 6.54773 22.4442 18.4157C22.4484 19.5683 22.4734 20.8199 22.4616 21.6845C24.6476 21.7593 26.6898 21.0359 28.0396 19.6803C30.3672 24.2011 36.8558 26.0545 42.4002 21.7235C42.4002 20.0457 42.4002 17.6703 42.4002 16.9477Z" fill="#6B4F5B"/>
<path id="Vector_16" d="M35.7302 24.9815C35.0044 24.9815 34.2802 24.9041 33.5634 24.7467C31.1712 24.2217 29.1322 22.8447 27.8364 20.9099C26.3872 21.9877 24.4716 22.5563 22.4332 22.4845C21.998 22.4697 21.6546 22.1095 21.6606 21.6739C21.668 21.1371 21.661 20.4501 21.654 19.7305C21.6498 19.2965 21.645 18.8509 21.6434 18.4191C21.6274 14.1319 23.975 11.8671 25.947 10.7219C29.6622 8.56532 35.3938 8.62592 39.2806 10.8637C41.8076 12.3187 43.1994 14.4797 43.1994 16.9483V21.7241C43.1994 21.9701 43.0862 22.2031 42.892 22.3545C40.6806 24.0819 38.199 24.9815 35.7302 24.9815ZM28.0388 18.8807C28.0794 18.8807 28.1204 18.8839 28.1614 18.8901C28.4142 18.9295 28.6328 19.0869 28.75 19.3143C29.7598 21.2761 31.6394 22.6861 33.9062 23.1839C36.4772 23.7491 39.1948 23.0889 41.5992 21.3265V16.9483C41.5992 14.5487 39.9042 13.0691 38.482 12.2503C35.0528 10.2761 30.009 10.2135 26.7504 12.1061C25.1434 13.0393 23.23 14.8909 23.2434 18.4131C23.245 18.8417 23.2492 19.2839 23.2536 19.7147C23.2578 20.1183 23.2618 20.5119 23.263 20.8753C24.9376 20.7733 26.442 20.1507 27.472 19.1163C27.6232 18.9643 27.828 18.8807 28.0388 18.8807ZM42.3994 21.7241H42.4072H42.3994Z" fill="#4C241D"/>
<path id="Vector_17" d="M12.7999 15.734C14.2629 15.734 15.4489 14.548 15.4489 13.085C15.4489 11.622 14.2629 10.436 12.7999 10.436C11.3369 10.436 10.1509 11.622 10.1509 13.085C10.1509 14.548 11.3369 15.734 12.7999 15.734Z" fill="#FFCE56"/>
<g id="Group">
<path id="Vector_18" d="M12.7995 16.5347C10.8975 16.5347 9.35034 14.9875 9.35034 13.0855C9.35034 11.1839 10.8975 9.63672 12.7995 9.63672C14.7015 9.63672 16.2487 11.1839 16.2487 13.0855C16.2487 14.9875 14.7015 16.5347 12.7995 16.5347ZM12.7995 11.2367C11.7799 11.2367 10.9503 12.0659 10.9503 13.0855C10.9503 14.1051 11.7799 14.9347 12.7995 14.9347C13.8191 14.9347 14.6487 14.1051 14.6487 13.0855C14.6487 12.0659 13.8191 11.2367 12.7995 11.2367Z" fill="#4C241D"/>
<path id="Vector_19" d="M12.8 8.62964C12.3582 8.62964 12 8.27144 12 7.82964V6.25264C12 5.81084 12.3582 5.45264 12.8 5.45264C13.2418 5.45264 13.6 5.81084 13.6 6.25264V7.82964C13.6 8.27124 13.2418 8.62964 12.8 8.62964Z" fill="#4C241D"/>
<path id="Vector_20" d="M12.8 20.4441C12.3582 20.4441 12 20.0859 12 19.6441V18.0671C12 17.6253 12.3582 17.2671 12.8 17.2671C13.2418 17.2671 13.6 17.6253 13.6 18.0671V19.6441C13.6 20.0859 13.2418 20.4441 12.8 20.4441Z" fill="#4C241D"/>
<path id="Vector_21" d="M9.04842 10.1005C8.83362 10.1005 8.61942 10.0145 8.46162 9.84426L7.38982 8.68806C7.08942 8.36426 7.10862 7.85806 7.43282 7.55766C7.75622 7.25806 8.26242 7.27526 8.56322 7.60066L9.63502 8.75686C9.93542 9.08066 9.91622 9.58686 9.59202 9.88726C9.43822 10.0297 9.24342 10.1005 9.04842 10.1005Z" fill="#4C241D"/>
<path id="Vector_22" d="M17.6236 18.5521C17.4088 18.5521 17.1946 18.4661 17.0368 18.2959L15.965 17.1397C15.6646 16.8159 15.6838 16.3097 16.008 16.0093C16.3314 15.7097 16.8376 15.7269 17.1384 16.0523L18.2102 17.2085C18.5106 17.5323 18.4914 18.0385 18.1672 18.3389C18.0134 18.4813 17.8186 18.5521 17.6236 18.5521Z" fill="#4C241D"/>
<path id="Vector_23" d="M7.97662 18.5521C7.78162 18.5521 7.58682 18.4813 7.43282 18.3389C7.10862 18.0385 7.08942 17.5323 7.38982 17.2085L8.46162 16.0523C8.76282 15.7269 9.26822 15.7097 9.59202 16.0093C9.91622 16.3097 9.93542 16.8159 9.63502 17.1397L8.56322 18.2959C8.40542 18.4661 8.19142 18.5521 7.97662 18.5521Z" fill="#4C241D"/>
<path id="Vector_24" d="M16.5518 10.1005C16.3568 10.1005 16.162 10.0297 16.008 9.88726C15.6838 9.58686 15.6646 9.08066 15.965 8.75686L17.0368 7.60066C17.3376 7.27526 17.8438 7.25806 18.1672 7.55766C18.4914 7.85806 18.5106 8.36426 18.2102 8.68806L17.1384 9.84426C16.9806 10.0145 16.7666 10.1005 16.5518 10.1005Z" fill="#4C241D"/>
</g>
<path id="Vector_25" d="M7.99976 29.748H20.7998V43.3481H7.99976V29.748Z" fill="white"/>
<path id="Vector_26" d="M20.8 44.1478H7.99995C7.55815 44.1478 7.19995 43.7896 7.19995 43.3478V29.7478C7.19995 29.306 7.55815 28.9478 7.99995 28.9478H20.8C21.2418 28.9478 21.6 29.306 21.6 29.7478V43.3478C21.6 43.7896 21.2418 44.1478 20.8 44.1478ZM8.79995 42.5478H20V30.5478H8.79995V42.5478Z" fill="#4C241D"/>
<path id="Vector_27" d="M7.99976 40.9478H20.7998V43.3478H7.99976V40.9478Z" fill="#6B4F5B"/>
<path id="Vector_28" d="M20.8 44.1479H7.99995C7.55815 44.1479 7.19995 43.7897 7.19995 43.3479V40.9479C7.19995 40.5061 7.55815 40.1479 7.99995 40.1479H20.8C21.2418 40.1479 21.6 40.5061 21.6 40.9479V43.3479C21.6 43.7897 21.2418 44.1479 20.8 44.1479ZM8.79995 42.5479H20V41.7479H8.79995V42.5479Z" fill="#4C241D"/>
<path id="Vector_29" d="M7.99976 40.9477L12.2664 36.9477L16.5332 38.5477L20.7666 33.6841V40.9477H7.99976Z" fill="#A9BA5A"/>
<path id="Vector_30" d="M20.7668 41.7479H8.00004C7.67184 41.7479 7.37704 41.5475 7.25624 41.2421C7.13524 40.9371 7.21324 40.5889 7.45264 40.3643L11.7194 36.3643C11.942 36.1561 12.2628 36.0929 12.5476 36.1987L16.294 37.6037L20.1632 33.1587C20.382 32.9071 20.7342 32.8173 21.0472 32.9349C21.3596 33.0517 21.5668 33.3505 21.5668 33.6841V40.9477C21.5668 41.3897 21.2086 41.7479 20.7668 41.7479ZM10.023 40.1479H19.9668V35.8217L17.1368 39.0733C16.9168 39.3241 16.563 39.4139 16.2524 39.2971L12.4512 37.8713L10.023 40.1479Z" fill="#4C241D"/>
<path id="Vector_31" d="M8.0001 13.7479H6.4001C5.9583 13.7479 5.6001 13.3897 5.6001 12.9479C5.6001 12.5061 5.9583 12.1479 6.4001 12.1479H8.0001C8.4419 12.1479 8.8001 12.5061 8.8001 12.9479C8.8001 13.3897 8.4419 13.7479 8.0001 13.7479Z" fill="#4C241D"/>
<path id="Vector_32" d="M42.0439 40.3136L38.0345 38.4912L31.9991 48.1478L25.9637 38.4912L21.9543 40.3136C19.3059 41.5174 17.5991 44.2036 17.5991 47.1676V53.748H46.3991V47.1676C46.3991 44.2036 44.6923 41.5174 42.0439 40.3136Z" fill="#9DC1E4"/>
<path id="Vector_33" d="M46.4003 54.5478H17.6003C17.1585 54.5478 16.8003 54.1896 16.8003 53.7478V47.1674C16.8003 43.8936 18.6937 40.9174 21.6241 39.5854L25.6339 37.7632C25.9991 37.596 26.4307 37.7272 26.6433 38.0674L32.0003 46.6384L37.3573 38.0674C37.5697 37.7268 38.0019 37.5952 38.3667 37.7632L42.3761 39.5854H42.3765C45.3069 40.9174 47.2003 43.8936 47.2003 47.1674V53.7478C47.2003 54.1896 46.8421 54.5478 46.4003 54.5478ZM18.4003 52.9478H45.6003V47.1674C45.6003 44.5194 44.0749 42.115 41.7139 41.0416H41.7143L38.3429 39.5096L32.6789 48.5718C32.3859 49.0398 31.6149 49.0398 31.3219 48.5718L25.6579 39.5096L22.2865 41.0416C19.9257 42.115 18.4003 44.5194 18.4003 47.1674V52.9478Z" fill="#4C241D"/>
<path id="Vector_34" d="M19.2003 13.7479H17.6003C17.1585 13.7479 16.8003 13.3897 16.8003 12.9479C16.8003 12.5061 17.1585 12.1479 17.6003 12.1479H19.2003C19.6421 12.1479 20.0003 12.5061 20.0003 12.9479C20.0003 13.3897 19.6421 13.7479 19.2003 13.7479Z" fill="#4C241D"/>
<path id="Vector_35" d="M37.5999 44.1475H53.5999V53.7475H37.5999V44.1475Z" fill="#6B4F5B"/>
<path id="Vector_36" d="M53.5998 54.5477H37.5998C37.158 54.5477 36.7998 54.1895 36.7998 53.7477V44.1477C36.7998 43.7059 37.158 43.3477 37.5998 43.3477H53.5998C54.0416 43.3477 54.3998 43.7059 54.3998 44.1477V53.7477C54.3998 54.1895 54.0416 54.5477 53.5998 54.5477ZM38.3998 52.9477H52.7998V44.9477H38.3998V52.9477Z" fill="#4C241D"/>
<path id="Vector_37" d="M50.231 44.1478H40.9678L41.7884 40.9478H49.4104L50.231 44.1478Z" fill="#6B4F5B"/>
<path id="Vector_38" d="M50.2321 44.948H40.9689C40.7217 44.948 40.4885 44.8336 40.3369 44.6382C40.1853 44.4428 40.1327 44.1886 40.1939 43.9492L41.0147 40.7491C41.1057 40.3951 41.4245 40.1479 41.7897 40.1479H49.4115C49.7767 40.1479 50.0955 40.3951 50.1865 40.7491L51.0073 43.9492C51.0687 44.1886 51.0159 44.443 50.8643 44.6382C50.7127 44.8334 50.4795 44.948 50.2321 44.948ZM42.0001 43.348H49.2009L48.7907 41.748H42.4103L42.0001 43.348Z" fill="#4C241D"/>
<path id="Vector_39" d="M45.6 51.4837C47.0005 51.4837 48.1358 50.3484 48.1358 48.9479C48.1358 47.5474 47.0005 46.4121 45.6 46.4121C44.1995 46.4121 43.0642 47.5474 43.0642 48.9479C43.0642 50.3484 44.1995 51.4837 45.6 51.4837Z" fill="#B5A19C"/>
<path id="Vector_40" d="M45.6005 52.283C43.7615 52.283 42.2649 50.7866 42.2649 48.9474C42.2649 47.1082 43.7613 45.6118 45.6005 45.6118C47.4397 45.6118 48.9361 47.1082 48.9361 48.9474C48.9361 50.7866 47.4395 52.283 45.6005 52.283ZM45.6005 47.212C44.6435 47.212 43.8649 47.9906 43.8649 48.9476C43.8649 49.9046 44.6435 50.6832 45.6005 50.6832C46.5575 50.6832 47.3361 49.9046 47.3361 48.9476C47.3361 47.9906 46.5575 47.212 45.6005 47.212Z" fill="#4C241D"/>
<path id="Vector_41" d="M52.0986 44.8128C51.6568 44.8128 51.2986 44.4546 51.2986 44.0128V42.5476C51.2986 42.1058 51.6568 41.7476 52.0986 41.7476C52.5404 41.7476 52.8986 42.1058 52.8986 42.5476V44.0128C52.8986 44.4546 52.5404 44.8128 52.0986 44.8128Z" fill="#4C241D"/>
<path id="Vector_42" d="M23.2001 54.5481C22.7583 54.5481 22.4001 54.1899 22.4001 53.7481V48.1481C22.4001 47.7063 22.7583 47.3481 23.2001 47.3481C23.6419 47.3481 24.0001 47.7063 24.0001 48.1481V53.7481C24.0001 54.1899 23.6419 54.5481 23.2001 54.5481Z" fill="#4C241D"/>
<path id="Vector_43" d="M31.9997 54.4575C31.5579 54.4575 31.1997 54.0993 31.1997 53.6575V48.1481C31.1997 47.7063 31.5579 47.3481 31.9997 47.3481C32.4415 47.3481 32.7997 47.7063 32.7997 48.1481V53.6575C32.7997 54.0993 32.4415 54.4575 31.9997 54.4575Z" fill="#4C241D"/>
<path id="Vector_44" d="M11.6001 34.5479C12.2629 34.5479 12.8001 34.0107 12.8001 33.3479C12.8001 32.6852 12.2629 32.1479 11.6001 32.1479C10.9374 32.1479 10.4001 32.6852 10.4001 33.3479C10.4001 34.0107 10.9374 34.5479 11.6001 34.5479Z" fill="#FFCE56"/>
<path id="Vector_45" d="M11.5996 35.3477C10.4968 35.3477 9.59961 34.4505 9.59961 33.3477C9.59961 32.2449 10.4968 31.3477 11.5996 31.3477C12.7024 31.3477 13.5996 32.2449 13.5996 33.3477C13.5996 34.4505 12.7024 35.3477 11.5996 35.3477ZM11.5996 32.9477C11.3788 32.9477 11.1996 33.1269 11.1996 33.3477C11.1996 33.5685 11.3788 33.7477 11.5996 33.7477C11.8204 33.7477 11.9996 33.5685 11.9996 33.3477C11.9996 33.1269 11.8204 32.9477 11.5996 32.9477Z" fill="#4C241D"/>
</g>
</svg>
