<svg width="48" height="48" viewBox="0 0 48 48" fill="none" xmlns="http://www.w3.org/2000/svg">
<g id="speaker 1" clip-path="url(#clip0_21_931)">
<path id="Vector" d="M26.0658 37.9346L24.0176 39.9827C23.4516 40.5488 22.5354 40.5488 21.9695 39.9827C21.4034 39.4167 21.4034 38.5006 21.9695 37.9346L24.0176 35.8864C24.5827 35.3214 24.5827 34.4033 24.0176 33.8383L22.1345 31.9551C21.5684 31.3891 21.5684 30.4729 22.1345 29.907C22.7005 29.3409 23.6167 29.3409 24.1826 29.907L26.0658 31.7901C27.76 33.4842 27.76 36.2403 26.0658 37.9346Z" fill="#713708"/>
<path id="Vector_2" d="M29.1383 47.1518C28.0071 48.283 26.1731 48.283 25.042 47.1518L14.801 36.9109L18.8973 32.8145L29.1383 43.0554C30.2696 44.1866 30.2696 46.0206 29.1383 47.1518Z" fill="#994C0F"/>
<path id="Vector_3" d="M14.7183 24.5391L21.0678 30.8886L20.9449 34.8621L13.7762 42.0308C12.0762 43.7307 9.29065 43.6898 7.59068 41.9897L3.49427 37.8933C1.81474 36.2138 1.83518 33.4897 3.53533 31.7897L10.704 24.621L14.7183 24.5391Z" fill="#FE318F"/>
<path id="Vector_4" d="M17.8725 27.6934L21.0677 30.8885L20.9448 34.862L13.7761 42.0307C12.0761 43.7307 9.2905 43.6898 7.59053 41.9897L5.58325 39.9824L17.8725 27.6934Z" fill="#FD0F7F"/>
<g id="Group">
<path id="Vector_5" d="M32.7183 5.79356C31.9193 5.7945 31.2702 5.14547 31.2702 4.3455L31.2693 1.44825C31.2691 0.648095 31.9172 1.01436e-06 32.7174 1.01436e-06C33.5164 -0.000936486 34.1654 0.648095 34.1654 1.44806L34.1664 4.34531C34.1664 5.14547 33.5184 5.79356 32.7183 5.79356Z" fill="#1BD9DE"/>
<path id="Vector_6" d="M44.3048 14.4835L41.4075 14.4826C40.6075 14.4826 39.9583 13.8335 39.9595 13.0345C39.9595 12.2344 40.6076 11.5864 41.4075 11.5864L44.3048 11.5874C45.1048 11.5874 45.754 12.2364 45.7528 13.0354C45.7528 13.8354 45.1048 14.4835 44.3048 14.4835Z" fill="#1BD9DE"/>
<path id="Vector_7" d="M42.451 3.11523C43.0245 3.6887 43.0246 4.58992 42.451 5.16339L39.3787 8.23567C38.8052 8.80923 37.9039 8.80914 37.3306 8.23567C36.757 7.66211 36.757 6.76098 37.3306 6.18751L40.4028 3.11523C40.9763 2.54167 41.8774 2.54167 42.451 3.11523Z" fill="#1BD9DE"/>
</g>
<path id="Vector_8" d="M25.0416 6.18783L39.379 20.5252C39.7886 20.9349 40.3006 25.2565 40.8331 25.3385L36.7983 26.1783C30.8175 27.3662 25.144 30.6639 21.2934 34.5145L20.9453 34.8627L10.7041 24.6216L11.0523 24.2734C15.1078 20.2179 18.0981 14.8516 19.3269 8.70708L20.1667 4.5083L25.0416 6.18783Z" fill="#CAE8F9"/>
<path id="Vector_9" d="M13.7767 31.79C14.3502 32.3634 14.3503 33.2646 13.7767 33.8381L11.7286 35.8864C11.155 36.4599 10.2538 36.4598 9.68042 35.8864C9.10685 35.3128 9.10685 34.4117 9.68042 33.8382L11.7286 31.79C12.3021 31.2165 13.2033 31.2165 13.7767 31.79Z" fill="#E1E4FB"/>
<path id="Vector_10" d="M32.2107 13.3564L39.3794 20.5251C39.7891 20.9348 40.3011 25.2564 40.8336 25.3384L36.7988 26.1783C30.818 27.3662 25.1445 30.6638 21.2939 34.5144L20.9457 34.8626L15.8252 29.7421L32.2107 13.3564Z" fill="#B7E0F6"/>
<path id="Vector_11" d="M13.7762 31.79C14.3497 32.3635 14.3498 33.2647 13.7762 33.8382L11.7281 35.8864C11.1545 36.46 10.2533 36.4599 9.67993 35.8864L13.7762 31.79Z" fill="#C5C9F7"/>
<path id="Vector_12" d="M25.0417 2.09098L43.4755 20.5248C44.602 21.6513 44.602 23.4947 43.4755 24.6212C43.3526 24.7441 43.1887 24.8259 43.0247 24.9079C42.3693 25.3586 41.5911 25.5224 40.8331 25.338C40.3007 25.2561 39.7887 25.0309 39.379 24.6212L20.9452 6.18729C20.474 5.7161 20.2488 5.1222 20.1668 4.50776C20.0849 3.89332 20.2079 3.2787 20.5151 2.72586C20.6584 2.50048 20.7608 2.27529 20.9452 2.09089C22.0717 0.964481 23.9152 0.964481 25.0417 2.09098Z" fill="#FE318F"/>
<path id="Vector_13" d="M34.2581 11.3076L43.475 20.5245C44.6015 21.651 44.6015 23.4944 43.475 24.6209C43.3521 24.7438 43.1882 24.8256 43.0242 24.9076C42.3688 25.3583 41.5906 25.5221 40.8326 25.3377C40.3002 25.2558 39.7882 25.0306 39.3785 24.6209L30.1616 15.404L34.2581 11.3076Z" fill="#FD0F7F"/>
</g>
<defs>
<clipPath id="clip0_21_931">
<rect width="48" height="48" fill="white"/>
</clipPath>
</defs>
</svg>
