<svg width="74" height="74" viewBox="0 0 74 74" fill="none" xmlns="http://www.w3.org/2000/svg">
<g id="7 90">
<g id="Group">
<g id="Group_2">
<path id="Vector" d="M58.7782 16.5467L58.7708 16.5393C58.7708 16.5393 58.7634 16.5319 58.7634 16.5245C58.756 16.5171 58.756 16.5097 58.7486 16.5097C58.7486 16.5097 58.7486 16.5097 58.7412 16.5023C58.7338 16.4949 58.7338 16.4875 58.7264 16.4801L58.719 16.4727C58.7116 16.4653 58.7042 16.4505 58.6968 16.4431C58.6968 16.4431 58.6968 16.4431 58.6894 16.4357C58.6894 16.4283 58.682 16.4283 58.682 16.4209C58.682 16.4135 58.6746 16.4135 58.6746 16.4061C58.6672 16.3987 58.6598 16.3839 58.6524 16.3765C58.645 16.3691 58.6376 16.3543 58.6302 16.3469C58.6228 16.3395 58.6154 16.3321 58.6154 16.3247C58.6154 16.3247 58.6154 16.3247 58.6154 16.3173C58.6154 16.3173 58.6154 16.3099 58.608 16.3099C58.6006 16.2951 58.5932 16.2877 58.5784 16.2729C58.571 16.2655 58.571 16.2655 58.5636 16.2581C58.5636 16.2507 58.5562 16.2507 58.5562 16.2433L58.5488 16.2359C58.5414 16.2211 58.5266 16.2137 58.5192 16.1989L58.5118 16.1915C58.5044 16.1841 58.5044 16.1841 58.497 16.1767C58.4896 16.1693 58.4896 16.1693 58.4896 16.1619C58.4822 16.1471 58.4674 16.1323 58.46 16.1249C58.46 16.1249 58.46 16.1175 58.4526 16.1175C58.4526 16.1101 58.4452 16.1101 58.4452 16.1027C58.4378 16.0953 58.4378 16.0879 58.4304 16.0805C58.423 16.0657 58.4082 16.0583 58.4008 16.0435C58.4008 16.0435 58.4008 16.0435 58.3934 16.0361C58.386 16.0287 58.386 16.0287 58.3786 16.0213C58.3712 16.0139 58.3712 16.0139 58.3638 16.0065C58.3564 15.9991 58.349 15.9843 58.3342 15.9769C58.3268 15.9695 58.3194 15.9621 58.312 15.9547C58.3046 15.9473 58.2972 15.9325 58.2898 15.9251C58.2824 15.9177 58.275 15.9103 58.2676 15.9029C58.2602 15.8955 58.2528 15.8881 58.2454 15.8807C58.238 15.8733 58.238 15.8659 58.2306 15.8585C58.2232 15.8511 58.2158 15.8437 58.2084 15.8363C58.201 15.8289 58.1936 15.8215 58.1862 15.8141L58.1788 15.8067C58.1788 15.7993 58.1714 15.7993 58.1714 15.7919C58.1714 15.7919 58.1714 15.7845 58.164 15.7845C58.1566 15.7771 58.1492 15.7623 58.1418 15.7549C58.1344 15.7401 58.1196 15.7327 58.1122 15.7179C58.0826 15.6809 58.0456 15.6365 58.016 15.5995C58.0086 15.5921 58.0086 15.5921 58.0012 15.5847C57.9938 15.5699 57.9864 15.5625 57.9716 15.5477C57.9716 15.5403 57.9642 15.5403 57.9642 15.5329C57.9642 15.5329 57.9642 15.5329 57.9642 15.5255C57.9568 15.5181 57.9568 15.5181 57.9494 15.5107C57.942 15.5033 57.9346 15.4959 57.9272 15.4811C57.9198 15.4737 57.9124 15.4663 57.905 15.4515C57.8976 15.4441 57.8976 15.4367 57.8902 15.4367L57.8828 15.4293C57.8754 15.4219 57.868 15.4145 57.8606 15.3997C57.8532 15.3923 57.8458 15.3849 57.8384 15.3701C57.831 15.3627 57.8236 15.3479 57.8162 15.3405C57.8088 15.3331 57.8014 15.3183 57.794 15.3109L57.7866 15.3035C57.7792 15.2961 57.7718 15.2887 57.7644 15.2813C57.757 15.2665 57.7422 15.2591 57.7348 15.2443C57.72 15.2295 57.7126 15.2147 57.7052 15.2073C57.6978 15.1999 57.6978 15.1999 57.6904 15.1925C57.6904 15.1925 57.6904 15.1851 57.683 15.1851C57.6756 15.1777 57.6756 15.1703 57.6682 15.1703C57.6608 15.1555 57.646 15.1481 57.6386 15.1333C57.6312 15.1185 57.6164 15.1111 57.609 15.0963L57.6016 15.0889C57.6016 15.0889 57.6016 15.0889 57.6016 15.0815C57.5942 15.0741 57.5942 15.0667 57.5868 15.0667C57.5794 15.0593 57.572 15.0445 57.5646 15.0371C57.5572 15.0297 57.5498 15.0149 57.5424 15.0075L57.535 15.0001C57.5276 14.9927 57.5276 14.9927 57.5202 14.9853C57.5128 14.9779 57.5054 14.9705 57.498 14.9631C57.4906 14.9557 57.4832 14.9483 57.4758 14.9409C57.4684 14.9335 57.4684 14.9335 57.461 14.9261C57.4536 14.9187 57.4462 14.9113 57.4462 14.9039C57.4462 14.8965 57.4388 14.8965 57.4388 14.8965C57.4388 14.8965 57.4388 14.8965 57.4314 14.8891C57.424 14.8817 57.4166 14.8743 57.4166 14.8743C57.4166 14.8743 57.4166 14.8743 57.4092 14.8669C57.4092 14.8669 57.4092 14.8669 57.4018 14.8595C57.4018 14.8595 57.4018 14.8595 57.3944 14.8595C57.387 14.8595 57.387 14.8521 57.387 14.8521L10.9224 52.2443C10.9224 52.2443 10.9298 52.2443 10.9372 52.2517C10.9372 52.2517 10.9372 52.2517 10.9446 52.2591C10.952 52.2665 10.9594 52.2739 10.9668 52.2813C10.9816 52.2961 10.989 52.3109 11.0112 52.3256C11.0112 52.3256 11.0112 52.3257 11.0112 52.3331C11.026 52.3553 11.0482 52.3774 11.0704 52.3997C11.0926 52.4218 11.1148 52.4515 11.1444 52.481C11.1444 52.481 11.1444 52.4811 11.1444 52.4885C11.1666 52.5181 11.1962 52.555 11.2258 52.5846C11.2258 52.5846 11.2258 52.5921 11.2332 52.5921C11.2628 52.6291 11.2924 52.6661 11.3294 52.7105C11.3664 52.7549 11.4034 52.7993 11.4404 52.8437C11.4626 52.8733 11.4848 52.9029 11.507 52.9324C11.5218 52.9547 11.544 52.9769 11.5588 52.9917C11.5884 53.0287 11.6254 53.073 11.655 53.1101C11.6772 53.1322 11.692 53.1619 11.7142 53.1841C11.7216 53.1915 11.7216 53.1915 11.729 53.1989C11.7512 53.2211 11.766 53.2506 11.7882 53.2729C11.8326 53.3246 11.8696 53.3764 11.914 53.4282L11.9214 53.4356C11.9362 53.4579 11.9584 53.4801 11.9732 53.5023L11.9806 53.5097C11.9954 53.5318 12.0176 53.5541 12.0324 53.5763C12.0324 53.5837 12.0398 53.5836 12.0398 53.591C12.0546 53.6133 12.0694 53.6281 12.0842 53.6503L12.0916 53.6577C12.1064 53.6799 12.1212 53.6946 12.136 53.7169C12.1508 53.739 12.1656 53.7538 12.1804 53.7761C12.1952 53.7909 12.2026 53.8057 12.2174 53.8205C12.2174 53.8279 12.2248 53.8279 12.2248 53.8353C12.2322 53.8501 12.247 53.8649 12.2544 53.8723C12.2544 53.8797 12.2618 53.8797 12.2618 53.8797C12.2692 53.8871 12.2766 53.8944 12.2766 53.9018C12.284 53.9092 12.284 53.9167 12.2914 53.9167C12.2988 53.9241 12.2988 53.9314 12.3062 53.9389C12.3284 53.9685 12.3358 53.9832 12.3284 53.9832L58.8004 16.5615C58.8078 16.5911 58.8004 16.5763 58.7782 16.5467Z" fill="url(#paint0_linear_21_279)"/>
<g id="Group_3">
<path id="Vector_2" d="M10.9444 52.296C10.8408 52.1406 11.0628 52.3922 11.4328 52.851C11.8102 53.3172 12.195 53.813 12.306 53.9684C12.4096 54.1238 12.1876 53.8722 11.8102 53.4134C11.4402 52.9472 11.048 52.4514 10.9444 52.296Z" fill="#C7AA9C"/>
</g>
</g>
</g>
</g>
<defs>
<linearGradient id="paint0_linear_21_279" x1="34.048" y1="33.3751" x2="35.7514" y2="35.5132" gradientUnits="userSpaceOnUse">
<stop stop-color="#D5C4BC"/>
<stop offset="0.1828" stop-color="#F6EEEA"/>
<stop offset="0.252" stop-color="#EFE5E1"/>
<stop offset="0.3593" stop-color="#DECFC9"/>
<stop offset="0.4032" stop-color="#D5C4BC"/>
<stop offset="0.4872" stop-color="#CEB8AD"/>
<stop offset="0.602" stop-color="#C9ADA0"/>
<stop offset="0.7366" stop-color="#C7AA9C"/>
<stop offset="0.8405" stop-color="#C9AEA1"/>
<stop offset="0.9357" stop-color="#CFB8AE"/>
<stop offset="1" stop-color="#D5C4BC"/>
</linearGradient>
</defs>
</svg>
