<svg width="68" height="68" viewBox="0 0 68 68" fill="none" xmlns="http://www.w3.org/2000/svg">
<g id="3 875555">
<g id="Group">
<g id="Group_2">
<path id="Vector" d="M38.2253 16.5406C38.0142 16.5505 37.7965 16.5605 37.5856 16.5771C37.5197 16.5847 37.4603 16.5857 37.3943 16.5867C37.3481 16.5874 37.3021 16.6014 37.2559 16.6021C37.0121 16.6257 36.7683 16.656 36.5246 16.6863C36.4455 16.6941 36.3664 16.702 36.2874 16.7164C35.9713 16.761 35.6554 16.8188 35.3394 16.8766C35.3262 16.8768 35.3131 16.8836 35.2933 16.8839C35.2473 16.8913 35.2013 16.9052 35.1553 16.9191C34.879 16.9763 34.6027 17.0401 34.3266 17.1105C34.2279 17.1318 34.1294 17.1598 34.0374 17.1876C33.7679 17.2579 33.4985 17.3414 33.2292 17.4248C33.1832 17.4388 33.1373 17.4527 33.0913 17.4666C33.0716 17.4735 33.0519 17.4805 33.0322 17.4874C32.9665 17.5082 32.9009 17.5356 32.8353 17.5565C32.658 17.6187 32.4874 17.6808 32.3102 17.743C32.2249 17.7774 32.1461 17.805 32.0608 17.8394C31.9034 17.9013 31.7394 17.9633 31.582 18.0318C31.5034 18.066 31.4181 18.1004 31.3394 18.1346C31.1624 18.21 30.9921 18.2919 30.8217 18.3738C30.7628 18.4012 30.7038 18.4285 30.6448 18.4558C30.6317 18.4626 30.612 18.4695 30.5989 18.4764C30.54 18.5037 30.4811 18.5376 30.4221 18.565C30.2191 18.6672 30.0161 18.7694 29.8198 18.8781C29.7216 18.9325 29.6301 18.9867 29.5319 19.0411C29.3618 19.1362 29.1852 19.238 29.0152 19.3397C28.9171 19.4007 28.8191 19.4616 28.7144 19.5227C28.5511 19.6309 28.3812 19.7392 28.2179 19.8474C28.1265 19.9082 28.0285 19.9758 27.9371 20.0366C27.7608 20.1582 27.5847 20.293 27.4085 20.4212C27.3498 20.4684 27.291 20.5089 27.2323 20.5494C27.2193 20.5628 27.1997 20.5763 27.1867 20.5898C27.0693 20.6774 26.9587 20.7782 26.8412 20.8659C26.737 20.9533 26.6327 21.0342 26.5284 21.1216C26.4177 21.2158 26.3005 21.3167 26.1899 21.4174C26.0922 21.5048 25.988 21.5922 25.8904 21.6796C25.7798 21.7803 25.6692 21.8877 25.5653 21.995C25.4678 22.0889 25.3768 22.1762 25.2792 22.2701C25.1687 22.3775 25.0649 22.4913 24.9611 22.6052C24.8702 22.699 24.7792 22.7929 24.6949 22.8866C24.5911 23.0005 24.4874 23.1209 24.3837 23.2414C24.2994 23.3417 24.2151 23.4355 24.1309 23.5358C24.0272 23.6563 23.9302 23.7832 23.8332 23.9102C23.7556 24.0104 23.6713 24.1108 23.5937 24.211C23.4968 24.3446 23.3999 24.4781 23.303 24.6117C23.232 24.7118 23.1543 24.812 23.0899 24.9121C22.9866 25.0589 22.8965 25.2056 22.8 25.3589C22.742 25.4522 22.6774 25.5391 22.6194 25.6324L22.613 25.6391C22.5293 25.7724 22.4458 25.919 22.3687 26.0522C22.3044 26.1654 22.2335 26.2722 22.1694 26.392C22.0859 26.5385 22.0091 26.6916 21.9257 26.8447C21.868 26.9512 21.8103 27.0578 21.7527 27.1709C21.6695 27.3372 21.5865 27.5167 21.5034 27.6897C21.4587 27.7828 21.4075 27.8826 21.3627 27.9757C21.2416 28.2483 21.1205 28.5208 21.0128 28.8064C20.9556 28.9459 20.905 29.0853 20.8544 29.2247C20.8038 29.3642 20.7597 29.4969 20.7091 29.6363C20.6901 29.6894 20.6712 29.7425 20.6523 29.8022C20.5577 30.0809 20.4697 30.3596 20.3883 30.6381C20.3695 30.7044 20.3508 30.7707 20.332 30.837C20.2697 31.069 20.2074 31.301 20.1516 31.5329C20.1329 31.5992 20.1206 31.6588 20.1018 31.7251C20.0958 31.7582 20.0832 31.7981 20.0771 31.8312C20.0587 31.9173 20.0469 32.0098 20.0285 32.0959C19.9794 32.3278 19.9303 32.5662 19.8944 32.7978C19.8701 32.9302 19.8524 33.0625 19.8346 33.1948C19.8051 33.413 19.7689 33.6314 19.7461 33.8562C19.7406 33.9289 19.7285 33.9951 19.7164 34.0679C19.7109 34.134 19.7054 34.2067 19.6999 34.2728C19.6832 34.4711 19.6665 34.6694 19.6565 34.8676C19.6455 35.0064 19.6412 35.1517 19.6301 35.2904C19.6202 35.4952 19.6167 35.6933 19.6199 35.8979C19.6215 35.9969 19.6164 36.0894 19.6113 36.1885C19.612 36.2281 19.6125 36.261 19.6131 36.3006C19.6166 36.5184 19.6265 36.7295 19.6365 36.9472C19.645 37.0658 19.6469 37.1846 19.6488 37.3034C19.6662 37.5738 19.6902 37.8374 19.7209 38.1076C19.7284 38.1669 19.7294 38.2262 19.7368 38.2789C19.7369 38.2855 19.7369 38.2855 19.737 38.2921C19.7753 38.6282 19.8268 38.964 19.8784 39.2998C19.8931 39.3986 19.9145 39.4973 19.9358 39.596C19.9792 39.8329 20.0224 40.0632 20.0724 40.3001C20.0796 40.3396 20.0868 40.3791 20.094 40.412C20.1435 40.6224 20.193 40.8328 20.2492 41.0432C20.2563 41.0761 20.2701 41.1155 20.2772 41.1484C20.3405 41.3916 20.4102 41.6281 20.4866 41.8645C20.5006 41.9171 20.5213 41.9762 20.5354 42.0288C20.6049 42.2521 20.6812 42.4819 20.7639 42.7051C20.7709 42.7313 20.7846 42.7641 20.7982 42.7903C20.8258 42.8625 20.8534 42.9413 20.881 43.0134C20.9566 43.2037 21.0323 43.4005 21.1079 43.5907C21.1423 43.676 21.1832 43.7612 21.2177 43.853C21.2999 44.0431 21.3821 44.2333 21.4708 44.4167C21.505 44.4888 21.5391 44.5608 21.5733 44.6329C21.6893 44.8753 21.812 45.1176 21.9412 45.3598C21.9479 45.3663 21.9481 45.3795 21.9548 45.386C21.9888 45.4448 22.0228 45.5103 22.0567 45.5692C22.1654 45.7655 22.2741 45.9552 22.3894 46.1514C22.4436 46.2429 22.5045 46.3344 22.5587 46.4259C22.6602 46.5828 22.7552 46.7463 22.8632 46.8964C22.9308 46.9943 22.9983 47.0923 23.0593 47.1903C23.1606 47.3339 23.262 47.4842 23.3698 47.6277C23.444 47.7255 23.5115 47.8235 23.5856 47.9147C23.6935 48.0582 23.8013 48.1951 23.9156 48.3319C23.9897 48.4232 24.0637 48.5144 24.1378 48.6057C24.2589 48.749 24.3798 48.8857 24.5008 49.0224C24.5748 49.107 24.6487 49.1917 24.7227 49.2763C24.8638 49.4325 25.0113 49.582 25.1523 49.7316C25.2128 49.7966 25.2732 49.8617 25.3335 49.9201C25.5414 50.1281 25.7559 50.3359 25.977 50.537C26.0105 50.5695 26.0505 50.5953 26.084 50.6277C26.2715 50.7964 26.4589 50.9585 26.6529 51.1204C26.7331 51.1852 26.8133 51.2499 26.9002 51.3145C27.0539 51.4375 27.2077 51.5605 27.3679 51.6768C27.4615 51.7479 27.5616 51.8189 27.655 51.8835C27.802 51.9934 27.9555 52.0965 28.1089 52.1997C28.209 52.2708 28.3157 52.3351 28.4224 52.406C28.5757 52.5026 28.7291 52.5992 28.889 52.6957C28.9957 52.76 29.1023 52.8243 29.2089 52.8886C29.3689 52.9851 29.5353 53.0749 29.7018 53.1647C29.8083 53.2224 29.9082 53.2802 30.0147 53.3379C30.2011 53.434 30.3873 53.5235 30.5735 53.6129C30.6667 53.6577 30.7532 53.7025 30.8529 53.7471C31.1322 53.8748 31.418 54.0022 31.7102 54.1164C31.7102 54.1164 31.7103 54.1164 31.7168 54.1163L33.7435 54.5464C33.4513 54.4322 33.1654 54.3047 32.8796 54.1772C32.7864 54.1324 32.6933 54.0877 32.6068 54.0429C32.4206 53.9534 32.2277 53.864 32.048 53.7679C31.9415 53.7101 31.8349 53.6524 31.7351 53.6012C31.5687 53.5114 31.4022 53.4216 31.2423 53.3251C31.1357 53.2608 31.029 53.1965 30.9224 53.1322C30.7624 53.0357 30.6091 52.9391 30.4558 52.8425C30.3491 52.7782 30.249 52.7072 30.1489 52.6361C29.9954 52.533 29.8419 52.4232 29.695 52.3199C29.6015 52.2487 29.5014 52.1843 29.4079 52.1132C29.2476 51.9969 29.0939 51.8739 28.9401 51.7509C28.8599 51.6862 28.773 51.6216 28.6928 51.5568C28.4988 51.3949 28.3114 51.2328 28.124 51.0642C28.0904 51.0317 28.0504 51.0059 28.0169 50.9734C27.7959 50.7723 27.5815 50.5711 27.3735 50.3565C27.313 50.2915 27.2526 50.2264 27.1923 50.168C27.0447 50.0185 26.9037 49.8689 26.7626 49.7127C26.6887 49.6281 26.6147 49.5434 26.5409 49.4654C26.4199 49.3287 26.2988 49.1854 26.1779 49.0487C26.1038 48.9574 26.0297 48.8662 25.9557 48.7749C25.8413 48.6381 25.7334 48.4946 25.6256 48.3511C25.5514 48.2533 25.4839 48.1619 25.4098 48.0641C25.3019 47.9206 25.2005 47.7704 25.0992 47.6267C25.0317 47.5288 24.9642 47.4374 24.9033 47.3394C24.8018 47.1826 24.7003 47.0258 24.5987 46.8624C24.5444 46.7708 24.4836 46.6793 24.4293 46.5878C24.3141 46.3982 24.2054 46.2019 24.0967 46.0056C24.0628 45.9467 24.0287 45.8812 23.9948 45.8224C23.8588 45.5737 23.7361 45.3248 23.6132 45.0693C23.5791 44.9972 23.5449 44.9252 23.5108 44.8531C23.422 44.6631 23.3399 44.4796 23.2577 44.2894C23.2233 44.2042 23.1823 44.119 23.1479 44.0271C23.0657 43.837 22.9967 43.6467 22.9209 43.4498C22.8934 43.3777 22.8657 43.2989 22.8382 43.2267C22.7484 42.9773 22.6586 42.7213 22.5819 42.4651C22.5679 42.4125 22.5472 42.3534 22.5331 42.3008C22.4568 42.0644 22.3936 41.8278 22.3238 41.5847C22.3166 41.5452 22.3028 41.5124 22.2956 41.4729C22.2324 41.2297 22.1756 40.9797 22.1188 40.7298C22.069 40.4995 22.0256 40.2626 21.9823 40.0257C21.9609 39.927 21.9462 39.8282 21.9248 39.7295C21.8667 39.3938 21.8218 39.0579 21.7835 38.7218C21.7758 38.656 21.7748 38.59 21.7672 38.5307C21.7367 38.2671 21.7126 37.9969 21.6952 37.7331C21.6867 37.6144 21.6849 37.4956 21.683 37.3769C21.673 37.1658 21.663 36.9481 21.6596 36.7303C21.6575 36.5984 21.6619 36.4597 21.6598 36.3277C21.6632 36.123 21.6665 35.9183 21.67 35.7203C21.6744 35.5816 21.6854 35.4428 21.6963 35.2974C21.7064 35.0992 21.7231 34.9009 21.7397 34.7026C21.7507 34.5638 21.7683 34.4249 21.7859 34.286C21.8089 34.0679 21.8384 33.8496 21.8745 33.6246C21.8922 33.4923 21.9165 33.3599 21.9342 33.2276C21.9768 32.9959 22.0192 32.7576 22.0683 32.5258C22.0928 32.4 22.1172 32.2742 22.1482 32.1483C22.1603 32.0821 22.1791 32.0157 22.198 31.956C22.2537 31.7241 22.316 31.4921 22.3784 31.2601C22.3971 31.1938 22.4159 31.1275 22.4346 31.0612C22.5161 30.7827 22.6041 30.504 22.6922 30.232C22.7111 30.1789 22.73 30.1192 22.749 30.0661C22.8437 29.794 22.9449 29.5151 23.0528 29.2428C23.1672 28.9637 23.2816 28.6847 23.4027 28.4122C23.4408 28.3191 23.4857 28.2326 23.5305 28.1461C23.6135 27.9666 23.6964 27.787 23.7861 27.614C23.8372 27.5076 23.8951 27.4076 23.9529 27.3077C24.0362 27.148 24.1196 26.9948 24.2029 26.8351C24.2606 26.7286 24.3315 26.6218 24.3892 26.5153C24.4727 26.3688 24.5562 26.2222 24.6464 26.0822C24.7043 25.9889 24.7624 25.9021 24.8204 25.8154C24.9236 25.662 25.0201 25.502 25.1234 25.3552C25.1878 25.2551 25.2655 25.1615 25.3301 25.0681C25.4269 24.9279 25.5237 24.7878 25.6272 24.6541C25.7048 24.5539 25.7825 24.4602 25.8601 24.36C25.9637 24.2329 26.0608 24.106 26.1644 23.9789C26.2486 23.8786 26.3329 23.7849 26.4171 23.6845C26.5208 23.5641 26.618 23.4437 26.7218 23.3299C26.8126 23.2294 26.9035 23.1356 26.9944 23.0417C27.0983 22.9278 27.2022 22.8206 27.3127 22.7132C27.4036 22.6194 27.5011 22.5254 27.5988 22.4381C27.7093 22.3307 27.8132 22.2235 27.9238 22.1227C28.0215 22.0353 28.1257 21.9479 28.2233 21.8605C28.3339 21.7598 28.4446 21.659 28.5619 21.5647C28.6661 21.4773 28.7705 21.3964 28.8747 21.309C28.992 21.2147 29.1027 21.1205 29.2202 21.0329C29.2918 20.9723 29.3702 20.9183 29.4419 20.8643C29.6181 20.7361 29.7877 20.608 29.9639 20.4798C30.0553 20.4124 30.1533 20.3514 30.2448 20.2906C30.4081 20.1824 30.5714 20.0742 30.7347 19.966C30.8327 19.905 30.9308 19.8441 31.0354 19.783C31.2054 19.6813 31.3755 19.5796 31.5456 19.4845C31.6437 19.4302 31.7353 19.3759 31.8334 19.3215C32.0297 19.2128 32.2328 19.1106 32.4358 19.0084C32.5078 18.9742 32.5864 18.9334 32.6584 18.8927C32.7173 18.8653 32.7763 18.838 32.8353 18.8106C33.0056 18.7287 33.1826 18.6533 33.3531 18.578C33.4317 18.5438 33.517 18.5094 33.5957 18.4752C33.753 18.4067 33.9105 18.3448 34.0745 18.2828C34.1598 18.2484 34.2385 18.2208 34.3238 18.1864C34.501 18.1242 34.6717 18.0621 34.8489 17.9999C34.9146 17.9791 34.9802 17.9516 35.0459 17.9308C35.1115 17.91 35.1772 17.8891 35.2429 17.8683C35.5122 17.7848 35.7816 17.7079 36.051 17.6311C36.1496 17.6031 36.2483 17.5817 36.3469 17.5538C36.623 17.4834 36.8992 17.4196 37.1755 17.3625C37.2347 17.3483 37.3005 17.3341 37.3597 17.3199C37.6755 17.2555 37.9915 17.2043 38.3077 17.1597C38.3867 17.1453 38.4657 17.1374 38.5448 17.1296C38.7886 17.0993 39.0323 17.0691 39.2762 17.0454C39.3883 17.037 39.4938 17.0288 39.6058 17.0204C39.8168 17.0039 40.0279 16.9939 40.2455 16.9839C40.3577 16.9821 40.4632 16.9738 40.5754 16.9721C40.8196 16.9682 41.0637 16.9643 41.308 16.9671C41.3806 16.9659 41.4598 16.9647 41.5325 16.9701C41.856 16.9782 42.1731 16.993 42.497 17.0209C42.5763 17.0262 42.6557 17.0382 42.7416 17.0434C42.9862 17.066 43.2308 17.0885 43.4756 17.1242C43.6344 17.1481 43.7931 17.1654 43.9584 17.1892C44.0378 17.2012 44.1172 17.2131 44.2032 17.2249C44.4613 17.2671 44.7195 17.3158 44.9779 17.3711L42.9512 16.9411C42.6929 16.8858 42.4347 16.8371 42.1766 16.7949C42.0972 16.783 42.0178 16.771 41.9318 16.7592C41.8193 16.7412 41.7068 16.7231 41.5877 16.7052C41.5414 16.6994 41.4951 16.6935 41.4488 16.6876C41.2041 16.6585 40.9594 16.6293 40.7148 16.6068C40.6355 16.6015 40.5561 16.5895 40.4769 16.5842C40.153 16.5563 39.8293 16.5416 39.5123 16.5334C39.4991 16.5336 39.4859 16.5338 39.4727 16.534C39.4133 16.535 39.3473 16.536 39.288 16.537C39.0437 16.5342 38.7994 16.5315 38.5553 16.5419C38.4429 16.5305 38.3309 16.5389 38.2253 16.5406Z" fill="url(#paint0_linear_21_287)"/>
<g id="Group_3">
<path id="Vector_2" d="M23.0462 29.2361C27.0269 19.239 38.2702 14.3614 48.1681 18.3304L33.7566 54.5328C23.8651 50.557 19.0655 39.2333 23.0462 29.2361Z" fill="#F8D33B"/>
</g>
</g>
</g>
</g>
<defs>
<linearGradient id="paint0_linear_21_287" x1="22.55" y1="47.1784" x2="54.3106" y2="6.74147" gradientUnits="userSpaceOnUse">
<stop stop-color="#CF9011"/>
<stop offset="0.1993" stop-color="#DE9D0A"/>
<stop offset="0.3978" stop-color="#E9A602"/>
<stop offset="0.6232" stop-color="#F0BC22"/>
<stop offset="0.8522" stop-color="#F6CD34"/>
<stop offset="1" stop-color="#F8D33B"/>
</linearGradient>
</defs>
</svg>
