<svg width="500" height="500" viewBox="0 0 500 500" fill="none" xmlns="http://www.w3.org/2000/svg">
<path d="M314.26 109.04C303.95 97.2902 317.11 86.2302 318.59 83.9802C318.65 83.9002 318.72 83.8102 318.78 83.7202C326.28 73.4202 329.93 57.3202 320.3 46.9902C309.96 35.9002 293.28 31.7502 279 36.9602C262.12 43.1202 254.83 58.8602 252.59 75.6202C250.87 87.0602 256.56 98.1102 256.56 98.1102L314.26 109.04Z" fill="#012D69"/>
<path d="M310.42 59.9702C311.51 67.5402 313.18 70.6502 312.15 76.4202L311.24 78.8302C311.18 78.9302 311.13 79.0302 311.06 79.1302L311.14 79.0802L308.39 86.4002C304.92 95.6602 294.59 100.35 285.33 96.8802C276.07 93.4102 271.38 83.0802 274.85 73.8202L277.94 65.5802C283.27 58.4602 302 69.3402 310.42 59.9702Z" fill="#E7AFA7"/>
<path d="M282 69.4204C280.69 72.9104 276.8 74.6704 273.32 73.3704C269.83 72.0604 268.07 68.1704 269.37 64.6904C270.68 61.2004 274.57 59.4404 278.05 60.7404C281.54 62.0404 283.31 65.9304 282 69.4204Z" fill="#E7AFA7"/>
<path d="M274.7 86.5303C272.71 88.4403 249.25 117.15 249.25 117.15L283.35 122.3L285.33 96.8803L274.7 86.5303Z" fill="#E7AFA7"/>
<path d="M329.43 190.21C333.64 194.43 333.63 201.27 329.41 205.47C325.19 209.68 318.35 209.67 314.15 205.45C309.94 201.23 309.95 194.39 314.17 190.19C318.39 185.98 325.22 185.99 329.43 190.21Z" fill="#E7AFA7"/>
<path d="M332.11 194.4L312.63 203.7L277.58 136.58C272.89 129.55 275.53 119.99 283.15 116.35C290.78 112.71 306.1 118.91 308.63 126.98L332.11 194.4Z" fill="#E7AFA7"/>
<path d="M432.69 258.45H288.65L282.23 221.2L408.85 229.87C422.66 232.39 432.69 244.42 432.69 258.45Z" fill="#0051C7"/>
<path d="M441.15 394.57H450.61L443.78 362.8H429.94L441.15 394.57Z" fill="#E7AFA7"/>
<path d="M369.38 391.83H378.84L386.06 362.8H372.22L369.38 391.83Z" fill="#E7AFA7"/>
<path d="M381.15 388.72L373.57 392.04L366.54 388.72L360.23 409.33H418.77C418.77 399.03 396.76 399.03 396.76 399.03L381.15 388.72Z" fill="#FDB512"/>
<path d="M452.07 388.72L444.49 392.04L437.46 388.72L431.15 409.33H489.69C489.69 399.03 467.68 399.03 467.68 399.03L452.07 388.72Z" fill="#FDB512"/>
<path d="M446.46 372.8H432.63L387.32 258.45H432.69L446.46 372.8Z" fill="#0051C7"/>
<path d="M407.8 263.96L363.51 273.17L236.23 209.57L383.97 235.38C397.77 237.89 407.8 249.92 407.8 263.96Z" fill="#0060B9"/>
<path d="M238.31 204.43C237.29 211.9 227.18 221.53 227.52 243.86C227.73 257.26 236.55 265.57 246.57 270.07C254.96 273.84 266.36 273.16 273.44 273.16C280.52 273.16 363.5 273.16 363.5 273.16L310.64 221.19L238.31 204.43Z" fill="#0060B9"/>
<path d="M384.26 372.8H370.43L363.51 273.16L407.8 263.96L384.26 372.8Z" fill="#0060B9"/>
<path d="M388.57 217.46L322.86 208.59L317.72 187.08L388.57 206.9V217.46Z" fill="#E7AFA7"/>
<path d="M236.23 209.56L240.35 190.63L227.88 117.33C228.38 109.93 235.2 104.6 242.5 105.91L292.37 110.65C299.67 111.97 304.21 119.34 302.09 126.45L289.32 215.67L236.23 209.56Z" fill="#FEB512"/>
<path d="M322.15 159.87L296.73 170.75L276.41 137.46C270.74 127.72 275.4 115.22 286.07 111.58C295.18 108.47 305.12 113.16 308.52 122.16L322.15 159.87Z" fill="#FEB512"/>
<path d="M404.62 229.68L301.67 224.35V221.19L404.62 226.53V229.68Z" fill="#F14841"/>
<path d="M408.02 227.33L339.32 224.44L357.98 174.57H426.76L408.02 227.33Z" fill="#F14842"/>
<path d="M288.21 221.44L219.54 212.67L217.36 191.06L288.21 210.88V221.44Z" fill="#E7AFA7"/>
<path d="M231.69 200.38C232.52 206.28 228.41 211.74 222.5 212.57C216.6 213.4 211.14 209.29 210.31 203.38C209.48 197.48 213.59 192.02 219.5 191.19C225.4 190.36 230.86 194.47 231.69 200.38Z" fill="#E7AFA7"/>
<path d="M288.21 210.88L297.11 208.61C304.33 206.77 312.01 208.46 317.79 213.17L329.41 222.63L288.22 221.33V210.88H288.21Z" fill="#E7AFA7"/>
<path d="M310.99 273.16H172.25V409.33H310.99V273.16Z" fill="#F14842"/>
<path d="M172.24 273.16H118.09V409.33H172.24V273.16Z" fill="#FF524B"/>
<path d="M274.91 73.73L256.55 75.35V98.12C272.2 109.04 285.02 92.5 285.02 92.5C272.34 83.35 273.94 76.34 274.87 73.82" fill="#002D69"/>
<path d="M231.32 205.34L210.32 200.32L225.65 123.88C226.13 115.44 230.77 111.86 239.06 113.53C247.34 115.2 255.87 129.37 253.05 137.33L231.32 205.34Z" fill="#E7AFA7"/>
<path d="M244.79 166.6L218.47 158.13L224.99 119.68C227.1 108.61 238.82 102.24 249.26 106.49C258.18 110.13 262.6 120.18 259.26 129.21L244.79 166.6Z" fill="#FEB512"/>
<path d="M249.26 106.49L283.62 141.1L287.56 109.94L249.26 106.49Z" fill="#E7AFA7"/>
<path d="M84.1402 241.98C86.3002 241.86 88.6602 242.71 91.1502 244.51C91.3402 244.64 91.5202 244.78 91.7002 244.92C99.5702 250.95 103.61 261.99 103.71 277.75C103.78 289.73 102.29 301.92 99.1502 314.78C98.5602 309.99 97.3302 305 95.4602 299.98C92.9002 293.1 89.4602 286.52 86.1402 280.16C83.5502 275.2 80.8702 270.08 78.6502 264.88C76.8502 260.67 75.1002 255.71 75.8002 250.94C76.4302 246.73 79.7102 242.23 84.1402 241.98Z" fill="#7AA9FE"/>
<path d="M28.72 287.32C30.62 286.29 33.11 286.05 36.13 286.6C36.36 286.64 36.58 286.69 36.8 286.73C46.5 288.81 54.87 297.07 61.71 311.27C66.9 322.06 70.77 333.72 73.44 346.69C70.86 342.61 67.6 338.63 63.77 334.89C58.52 329.77 52.59 325.29 46.87 320.96C42.41 317.59 37.8 314.1 33.57 310.35C30.14 307.31 26.44 303.58 25.03 298.98C23.78 294.92 24.82 289.44 28.72 287.32Z" fill="#7AA9FE"/>
<path d="M21.4701 334.31C21.9301 332.9 23.0601 331.62 24.8201 330.48C24.9501 330.39 25.0801 330.31 25.2201 330.23C31.0201 326.72 39.0501 326.9 49.1101 330.76C56.7501 333.69 64.1401 337.68 71.5401 342.88C68.3501 342.06 64.8601 341.61 61.2001 341.54C56.1901 341.45 51.1401 342 46.2701 342.54C42.4701 342.95 38.5401 343.38 34.6801 343.5C31.5501 343.6 27.9601 343.48 25.1001 341.85C22.5801 340.41 20.5301 337.2 21.4701 334.31Z" fill="#7AA9FE"/>
<path d="M77.3601 395.891C77.3601 395.891 116.86 343.861 87.2901 251.311" stroke="#1A55B5" stroke-width="0.4988" stroke-miterlimit="10" stroke-linecap="round" stroke-linejoin="round"/>
<path d="M77.3602 395.89C77.3602 395.89 89.8502 339.34 37.1602 298.94" stroke="#1A55B5" stroke-width="0.4988" stroke-miterlimit="10" stroke-linecap="round" stroke-linejoin="round"/>
<path d="M71.7302 343.84C71.7302 343.84 62.1002 335.27 28.4602 335.01" stroke="#1A55B5" stroke-width="0.4988" stroke-miterlimit="10" stroke-linecap="round" stroke-linejoin="round"/>
<path d="M151.4 309.91C150.09 313.08 147.22 315.48 144.58 317.4C141.33 319.77 137.83 321.93 134.44 324.03C130.09 326.71 125.59 329.49 121.53 332.77C118.56 335.16 115.99 337.77 113.89 340.49C116.65 331.48 120.17 323.47 124.57 316.17C130.37 306.56 136.85 301.28 143.87 300.45C144.03 300.43 144.19 300.41 144.36 300.4C146.53 300.21 148.29 300.54 149.57 301.4C152.19 303.16 152.56 307.11 151.4 309.91Z" fill="#7AA9FE"/>
<path d="M165 357.79C162.46 360.1 158.84 361.03 155.63 361.64C151.68 362.39 147.59 362.85 143.63 363.29C138.55 363.86 133.3 364.44 128.22 365.66C124.52 366.55 121.07 367.81 118.01 369.36C124.36 362.39 130.97 356.67 138.07 351.95C147.42 345.75 155.55 343.75 162.24 346C162.4 346.05 162.55 346.11 162.7 346.16C164.75 346.92 166.19 347.97 166.98 349.29C168.6 352.02 167.25 355.75 165 357.79Z" fill="#7AA9FE"/>
<path d="M149.36 383.99C147.02 383.95 144.78 382.72 142.9 381.52C140.58 380.04 138.33 378.35 136.16 376.72C133.37 374.62 130.48 372.45 127.38 370.68C125.12 369.39 122.82 368.4 120.57 367.74C126.99 367.25 132.96 367.5 138.71 368.49C146.27 369.79 151.25 372.6 153.52 376.86C153.57 376.96 153.62 377.06 153.67 377.16C154.33 378.5 154.56 379.69 154.33 380.72C153.85 382.81 151.43 384.03 149.36 383.99Z" fill="#7AA9FE"/>
<path d="M97.72 398.04C97.72 398.04 92.48 351.83 144.25 305.96" stroke="#1A55B5" stroke-width="0.4988" stroke-miterlimit="10" stroke-linecap="round" stroke-linejoin="round"/>
<path d="M97.72 398.04C97.72 398.04 110.65 358.89 157.59 353.34" stroke="#1A55B5" stroke-width="0.4988" stroke-miterlimit="10" stroke-linecap="round" stroke-linejoin="round"/>
<path d="M120.1 368.25C120.1 368.25 129.11 366.51 149.79 378.59" stroke="#1A55B5" stroke-width="0.4988" stroke-miterlimit="10" stroke-linecap="round" stroke-linejoin="round"/>
<path d="M112.92 455.171H77.91C74.6 455.171 71.7 452.971 70.81 449.791L53.23 386.891H137.58L120 449.791C119.13 452.971 116.23 455.171 112.92 455.171Z" fill="#1B3874"/>
</svg>
