<svg width="201" height="201" viewBox="0 0 201 201" fill="none" xmlns="http://www.w3.org/2000/svg">
<g opacity="0.2" clip-path="url(#clip0_21_642)">
<path d="M106.562 23.8791C107.752 24.1478 108.929 23.4012 109.197 22.2148C109.224 22.0968 109.234 21.9784 109.239 21.8625C107.778 21.6978 106.317 21.5779 104.861 21.497C104.748 22.5911 105.461 23.6304 106.562 23.8791Z" fill="#171414"/>
<path d="M121.147 27.174C122.336 27.4427 123.514 26.696 123.782 25.5096C123.83 25.2966 123.836 25.0878 123.821 24.8811C122.503 24.4767 121.171 24.1069 119.818 23.7702C119.66 23.9963 119.539 24.255 119.475 24.5401C119.211 25.724 119.957 26.9052 121.147 27.174Z" fill="#171414"/>
<path d="M75.3695 26.2659C74.1798 25.9972 73.0018 26.7438 72.7339 27.9303C72.4651 29.12 73.2118 30.2979 74.3982 30.5659C75.5879 30.8346 76.7659 30.088 77.0338 28.9015C77.3051 27.7158 76.5592 26.5346 75.3695 26.2659Z" fill="#171414"/>
<path d="M89.9542 29.5598C88.7645 29.2911 87.5866 30.0378 87.3186 31.2242C87.0498 32.4139 87.7965 33.5919 88.9829 33.8598C90.1727 34.1286 91.3506 33.3819 91.6186 32.1955C91.8866 31.009 91.1406 29.8278 89.9542 29.5598Z" fill="#171414"/>
<path d="M104.535 32.8533C103.346 32.5846 102.168 33.3312 101.9 34.5177C101.631 35.7074 102.378 36.8853 103.564 37.1533C104.754 37.422 105.932 36.6754 106.2 35.4889C106.471 34.3032 105.725 33.122 104.535 32.8533Z" fill="#171414"/>
<path d="M119.12 36.1477C117.93 35.879 116.752 36.6257 116.484 37.8121C116.215 39.0018 116.962 40.1797 118.148 40.4477C119.338 40.7165 120.516 39.9698 120.784 38.7834C121.052 37.5969 120.306 36.4157 119.12 36.1477Z" fill="#171414"/>
<path d="M132.729 43.7441C133.919 44.0128 135.097 43.2662 135.365 42.0797C135.633 40.89 134.887 39.7121 133.7 39.4441C132.511 39.1754 131.333 39.9221 131.065 41.1085C130.797 42.2949 131.543 43.4761 132.729 43.7441Z" fill="#171414"/>
<path d="M147.314 47.0385C148.501 47.3068 149.681 46.5616 149.949 45.3742C150.218 44.1868 149.472 43.0068 148.285 42.7386C147.098 42.4704 145.918 43.2155 145.649 44.4029C145.381 45.5903 146.126 46.7703 147.314 47.0385Z" fill="#171414"/>
<path d="M57.7882 36.2483C56.5985 35.9796 55.4205 36.7263 55.1526 37.9127C54.8838 39.1024 55.6305 40.2803 56.8169 40.5483C58.0066 40.817 59.1846 40.0704 59.4526 38.8839C59.7238 37.6983 58.9779 36.517 57.7882 36.2483Z" fill="#171414"/>
<path d="M72.3707 39.5423C71.181 39.2735 70.0031 40.0202 69.7351 41.2066C69.4664 42.3963 70.213 43.5743 71.3994 43.8423C72.5892 44.111 73.7671 43.3643 74.0351 42.1779C74.3063 40.9922 73.5604 39.811 72.3707 39.5423Z" fill="#171414"/>
<path d="M86.9554 42.8362C85.7657 42.5675 84.5878 43.3142 84.3198 44.5006C84.0511 45.6903 84.7977 46.8682 85.9842 47.1362C87.1739 47.4049 88.3518 46.6583 88.6198 45.4718C88.8878 44.2854 88.1419 43.1042 86.9554 42.8362Z" fill="#171414"/>
<path d="M101.536 46.1302C100.347 45.8614 99.1688 46.6081 98.9008 47.7945C98.6321 48.9842 99.3788 50.1622 100.565 50.4302C101.755 50.6989 102.933 49.9522 103.201 48.7658C103.472 47.5801 102.726 46.3989 101.536 46.1302Z" fill="#171414"/>
<path d="M116.121 49.4241C114.931 49.1554 113.753 49.902 113.485 51.0885C113.217 52.2782 113.963 53.4561 115.15 53.7241C116.339 53.9928 117.517 53.2462 117.785 52.0597C118.053 50.8733 117.307 49.6921 116.121 49.4241Z" fill="#171414"/>
<path d="M129.73 57.021C130.92 57.2897 132.098 56.543 132.366 55.3566C132.635 54.1669 131.888 52.989 130.702 52.721C129.512 52.4523 128.334 53.1989 128.066 54.3853C127.798 55.5718 128.544 56.753 129.73 57.021Z" fill="#171414"/>
<path d="M144.315 60.3154C145.502 60.5836 146.682 59.8384 146.95 58.651C147.219 57.4636 146.473 56.2836 145.286 56.0154C144.099 55.7472 142.919 56.4924 142.65 57.6798C142.382 58.8672 143.127 60.0472 144.315 60.3154Z" fill="#171414"/>
<path d="M158.896 63.6089C160.083 63.8771 161.263 63.1319 161.532 61.9445C161.8 60.7571 161.055 59.5771 159.867 59.3089C158.68 59.0407 157.5 59.7858 157.232 60.9732C156.963 62.1606 157.709 63.3407 158.896 63.6089Z" fill="#171414"/>
<path d="M41.8718 48.8709C41.9784 48.399 41.9195 47.9275 41.7405 47.5151C40.8588 48.4906 39.9989 49.4916 39.1615 50.515C39.1877 50.5209 39.2092 50.5326 39.2321 50.5378C40.4218 50.8065 41.603 50.0606 41.8718 48.8709Z" fill="#171414"/>
<path d="M54.7887 49.5291C53.599 49.2604 52.421 50.007 52.153 51.1935C51.8843 52.3832 52.631 53.5611 53.8174 53.8291C55.0071 54.0978 56.1851 53.3511 56.453 52.1647C56.7243 50.979 55.9784 49.7978 54.7887 49.5291Z" fill="#171414"/>
<path d="M69.3709 52.8225C68.1812 52.5538 67.0033 53.3005 66.7353 54.4869C66.4666 55.6766 67.2133 56.8546 68.3997 57.1225C69.5894 57.3913 70.7673 56.6446 71.0353 55.4582C71.3066 54.2725 70.5607 53.0913 69.3709 52.8225Z" fill="#171414"/>
<path d="M83.9557 56.117C82.766 55.8483 81.588 56.5949 81.32 57.7813C81.0513 58.9711 81.798 60.149 82.9844 60.417C84.1741 60.6857 85.352 59.939 85.62 58.7526C85.888 57.5662 85.1421 56.385 83.9557 56.117Z" fill="#171414"/>
<path d="M98.5367 59.4104C97.347 59.1417 96.1691 59.8884 95.9011 61.0748C95.6324 62.2645 96.379 63.4424 97.5655 63.7104C98.7552 63.9792 99.9331 63.2325 100.201 62.0461C100.472 60.8604 99.7264 59.6792 98.5367 59.4104Z" fill="#171414"/>
<path d="M113.121 62.7049C111.932 62.4361 110.754 63.1828 110.486 64.3692C110.217 65.5589 110.964 66.7369 112.15 67.0049C113.34 67.2736 114.518 66.5269 114.786 65.3405C115.054 64.1541 114.308 62.9728 113.121 62.7049Z" fill="#171414"/>
<path d="M126.73 70.3017C127.92 70.5705 129.098 69.8238 129.366 68.6374C129.635 67.4477 128.888 66.2697 127.702 66.0017C126.512 65.733 125.334 66.4797 125.066 67.6661C124.798 68.8525 125.544 70.0338 126.73 70.3017Z" fill="#171414"/>
<path d="M141.316 73.5923C142.503 73.8605 143.683 73.1153 143.951 71.9279C144.22 70.7405 143.474 69.5605 142.287 69.2923C141.1 69.0241 139.92 69.7692 139.651 70.9566C139.383 72.144 140.128 73.3241 141.316 73.5923Z" fill="#171414"/>
<path d="M155.897 76.8857C157.084 77.1539 158.264 76.4088 158.533 75.2214C158.801 74.0339 158.056 72.8539 156.868 72.5857C155.681 72.3175 154.501 73.0627 154.233 74.2501C153.964 75.4375 154.71 76.6175 155.897 76.8857Z" fill="#171414"/>
<path d="M170.481 80.1836C171.67 80.4523 172.848 79.7056 173.116 78.5192C173.385 77.3295 172.638 76.1516 171.452 75.8836C170.262 75.6149 169.084 76.3615 168.816 77.5479C168.545 78.7336 169.291 79.9149 170.481 80.1836Z" fill="#171414"/>
<path d="M37.2086 59.5125C36.0189 59.2438 34.8409 59.9904 34.573 61.1769C34.3042 62.3666 35.0509 63.5445 36.2373 63.8125C37.427 64.0812 38.605 63.3345 38.873 62.1481C39.1409 60.9617 38.395 59.7805 37.2086 59.5125Z" fill="#171414"/>
<path d="M51.7896 62.8059C50.5999 62.5372 49.422 63.2839 49.154 64.4703C48.8853 65.66 49.632 66.8379 50.8184 67.1059C52.0081 67.3747 53.186 66.628 53.454 65.4416C53.7253 64.2559 52.9794 63.0747 51.7896 62.8059Z" fill="#171414"/>
<path d="M66.3722 66.0999C65.1825 65.8312 64.0045 66.5778 63.7365 67.7643C63.4678 68.954 64.2145 70.1319 65.4009 70.3999C66.5906 70.6686 67.7686 69.9219 68.0365 68.7355C68.3078 67.5498 67.5619 66.3686 66.3722 66.0999Z" fill="#171414"/>
<path d="M80.9566 69.3938C79.7669 69.1251 78.589 69.8718 78.321 71.0582C78.0523 72.2479 78.799 73.4258 79.9854 73.6938C81.1751 73.9625 82.353 73.2159 82.621 72.0295C82.889 70.843 82.1431 69.6618 80.9566 69.3938Z" fill="#171414"/>
<path d="M95.5377 72.6873C94.348 72.4186 93.1701 73.1652 92.9021 74.3517C92.6333 75.5414 93.38 76.7193 94.5664 76.9873C95.7561 77.256 96.9341 76.5093 97.2021 75.3229C97.4733 74.1372 96.7274 72.956 95.5377 72.6873Z" fill="#171414"/>
<path d="M110.122 75.9817C108.933 75.713 107.755 76.4597 107.487 77.6461C107.218 78.8358 107.965 80.0137 109.151 80.2817C110.341 80.5504 111.519 79.8038 111.787 78.6173C112.055 77.4309 111.309 76.2497 110.122 75.9817Z" fill="#171414"/>
<path d="M123.732 83.5781C124.921 83.8468 126.099 83.1002 126.367 81.9137C126.636 80.724 125.889 79.5461 124.703 79.2781C123.513 79.0094 122.335 79.7561 122.067 80.9425C121.799 82.1289 122.545 83.3101 123.732 83.5781Z" fill="#171414"/>
<path d="M138.316 86.8721C139.504 87.1403 140.684 86.3951 140.952 85.2077C141.22 84.0203 140.475 82.8403 139.287 82.5721C138.1 82.3038 136.92 83.049 136.652 84.2364C136.384 85.4238 137.129 86.6038 138.316 86.8721Z" fill="#171414"/>
<path d="M152.897 90.166C154.085 90.4342 155.265 89.689 155.533 88.5016C155.801 87.3142 155.056 86.1342 153.869 85.866C152.681 85.5978 151.501 86.343 151.233 87.5304C150.965 88.7178 151.71 89.8978 152.897 90.166Z" fill="#171414"/>
<path d="M167.482 93.4599C168.672 93.7287 169.85 92.982 170.118 91.7956C170.386 90.6059 169.64 89.4279 168.453 89.1599C167.264 88.8912 166.086 89.6379 165.818 90.8243C165.546 92.01 166.292 93.1912 167.482 93.4599Z" fill="#171414"/>
<path d="M34.2098 72.7889C33.0201 72.5201 31.8422 73.2668 31.5742 74.4532C31.3055 75.6429 32.0521 76.8209 33.2386 77.0888C34.4283 77.3576 35.6062 76.6109 35.8742 75.4245C36.1422 74.238 35.3962 73.0568 34.2098 72.7889Z" fill="#171414"/>
<path d="M48.7899 76.0818C47.6002 75.8131 46.4222 76.5598 46.1543 77.7462C45.8855 78.9359 46.6322 80.1138 47.8186 80.3818C49.0083 80.6505 50.1863 79.9039 50.4543 78.7175C50.7255 77.5318 49.9796 76.3505 48.7899 76.0818Z" fill="#171414"/>
<path d="M63.3734 79.3763C62.1837 79.1075 61.0057 79.8542 60.7378 81.0406C60.469 82.2303 61.2157 83.4083 62.4021 83.6763C63.5918 83.945 64.7698 83.1983 65.0378 82.0119C65.309 80.8262 64.5631 79.645 63.3734 79.3763Z" fill="#171414"/>
<path d="M77.9579 82.6702C76.7682 82.4015 75.5902 83.1481 75.3222 84.3346C75.0535 85.5243 75.8002 86.7022 76.9866 86.9702C78.1763 87.2389 79.3542 86.4923 79.6222 85.3058C79.8902 84.1194 79.1443 82.9382 77.9579 82.6702Z" fill="#171414"/>
<path d="M92.5389 85.9637C91.3492 85.6949 90.1713 86.4416 89.9033 87.628C89.6346 88.8177 90.3812 89.9957 91.5677 90.2637C92.7574 90.5324 93.9353 89.7857 94.2033 88.5993C94.4745 87.4136 93.7286 86.2324 92.5389 85.9637Z" fill="#171414"/>
<path d="M107.124 89.2581C105.934 88.9894 104.756 89.736 104.488 90.9225C104.219 92.1122 104.966 93.2901 106.152 93.5581C107.342 93.8268 108.52 93.0801 108.788 91.8937C109.056 90.7073 108.31 89.5261 107.124 89.2581Z" fill="#171414"/>
<path d="M120.733 96.855C121.922 97.1237 123.1 96.377 123.368 95.1906C123.637 94.0009 122.89 92.8229 121.704 92.555C120.514 92.2862 119.336 93.0329 119.068 94.2193C118.8 95.4058 119.546 96.587 120.733 96.855Z" fill="#171414"/>
<path d="M135.317 100.149C136.507 100.418 137.685 99.6715 137.953 98.485C138.222 97.2953 137.475 96.1174 136.288 95.8494C135.099 95.5807 133.921 96.3273 133.653 97.5138C133.382 98.6995 134.127 99.8807 135.317 100.149Z" fill="#171414"/>
<path d="M149.898 103.443C151.088 103.712 152.266 102.965 152.534 101.778C152.803 100.589 152.056 99.4108 150.87 99.1429C149.68 98.8741 148.502 99.6208 148.234 100.807C147.966 101.994 148.712 103.175 149.898 103.443Z" fill="#171414"/>
<path d="M164.483 106.737C165.673 107.006 166.851 106.259 167.119 105.073C167.387 103.883 166.641 102.705 165.454 102.437C164.264 102.169 163.087 102.915 162.819 104.102C162.547 105.287 163.293 106.469 164.483 106.737Z" fill="#171414"/>
<path d="M177.4 107.395C177.131 108.585 177.878 109.762 179.064 110.03C179.107 110.04 179.145 110.038 179.189 110.045C179.367 108.583 179.499 107.128 179.594 105.672C178.568 105.654 177.635 106.356 177.4 107.395Z" fill="#171414"/>
<path d="M31.2101 86.0691C30.0203 85.8004 28.8424 86.5471 28.5744 87.7335C28.3064 88.9199 29.0524 90.1011 30.2388 90.3691C31.4285 90.6378 32.6064 89.8912 32.8744 88.7047C33.1424 87.5183 32.3965 86.3371 31.2101 86.0691Z" fill="#171414"/>
<path d="M45.7911 89.3626C44.6014 89.0939 43.4235 89.8405 43.1555 91.0269C42.8875 92.2134 43.6334 93.3946 44.8199 93.6626C46.0096 93.9313 47.1875 93.1846 47.4555 91.9982C47.7235 90.8118 46.9808 89.6313 45.7911 89.3626Z" fill="#171414"/>
<path d="M60.3736 92.6565C59.1839 92.3878 58.006 93.1345 57.738 94.3209C57.47 95.5073 58.2159 96.6885 59.4024 96.9565C60.5921 97.2252 61.77 96.4786 62.038 95.2922C62.306 94.1057 61.5633 92.9253 60.3736 92.6565Z" fill="#171414"/>
<path d="M74.9581 95.951C73.7684 95.6822 72.5905 96.4289 72.3225 97.6153C72.0545 98.8018 72.8004 99.983 73.9869 100.251C75.1766 100.52 76.3545 99.773 76.6225 98.5866C76.8905 97.4002 76.1445 96.2189 74.9581 95.951Z" fill="#171414"/>
<path d="M89.5394 99.2444C88.3497 98.9757 87.1718 99.7224 86.9038 100.909C86.6358 102.095 87.3817 103.276 88.5681 103.544C89.7579 103.813 90.9358 103.066 91.2038 101.88C91.4718 100.694 90.7291 99.5131 89.5394 99.2444Z" fill="#171414"/>
<path d="M104.124 102.538C102.934 102.27 101.756 103.016 101.488 104.203C101.22 105.389 101.966 106.57 103.153 106.838C104.342 107.107 105.52 106.36 105.788 105.174C106.056 103.988 105.31 102.806 104.124 102.538Z" fill="#171414"/>
<path d="M117.733 110.136C118.923 110.404 120.101 109.658 120.369 108.471C120.637 107.285 119.891 106.104 118.704 105.836C117.514 105.567 116.337 106.314 116.069 107.5C115.801 108.687 116.547 109.868 117.733 110.136Z" fill="#171414"/>
<path d="M132.318 113.426C133.506 113.694 134.686 112.949 134.954 111.762C135.222 110.574 134.477 109.394 133.29 109.126C132.102 108.858 130.922 109.603 130.654 110.791C130.386 111.978 131.131 113.158 132.318 113.426Z" fill="#171414"/>
<path d="M146.899 116.72C148.087 116.988 149.267 116.243 149.535 115.055C149.803 113.868 149.058 112.688 147.871 112.42C146.683 112.152 145.503 112.897 145.235 114.084C144.967 115.271 145.712 116.451 146.899 116.72Z" fill="#171414"/>
<path d="M161.483 120.018C162.673 120.286 163.851 119.54 164.119 118.353C164.387 117.167 163.641 115.986 162.455 115.718C161.265 115.449 160.087 116.196 159.819 117.382C159.551 118.568 160.294 119.749 161.483 120.018Z" fill="#171414"/>
<path d="M174.401 120.672C174.132 121.862 174.879 123.039 176.065 123.307C176.18 123.333 176.292 123.341 176.404 123.349C176.813 121.978 177.188 120.592 177.527 119.184C177.372 119.107 177.211 119.043 177.037 119.004C175.85 118.739 174.669 119.485 174.401 120.672Z" fill="#171414"/>
<path d="M28.211 99.3465C27.0213 99.0777 25.8434 99.8244 25.5754 101.011C25.3067 102.201 26.0533 103.378 27.2398 103.646C28.4295 103.915 29.6074 103.169 29.8754 101.982C30.1434 100.796 29.3975 99.6145 28.211 99.3465Z" fill="#171414"/>
<path d="M42.7923 102.64C41.6026 102.371 40.4247 103.118 40.1567 104.304C39.888 105.494 40.6346 106.672 41.8211 106.94C43.0108 107.209 44.1887 106.462 44.4567 105.276C44.728 104.09 43.982 102.909 42.7923 102.64Z" fill="#171414"/>
<path d="M57.3746 105.933C56.1849 105.665 55.007 106.411 54.739 107.598C54.4703 108.787 55.2169 109.965 56.4034 110.233C57.5931 110.502 58.771 109.755 59.039 108.569C59.3102 107.383 58.5643 106.202 57.3746 105.933Z" fill="#171414"/>
<path d="M71.9593 109.228C70.7696 108.959 69.5917 109.706 69.3237 110.892C69.055 112.082 69.8016 113.26 70.9881 113.528C72.1778 113.797 73.3557 113.05 73.6237 111.863C73.8917 110.677 73.1458 109.496 71.9593 109.228Z" fill="#171414"/>
<path d="M86.5404 112.521C85.3507 112.253 84.1727 112.999 83.9048 114.186C83.636 115.375 84.3827 116.553 85.5691 116.821C86.7588 117.09 87.9368 116.343 88.2047 115.157C88.476 113.971 87.7301 112.79 86.5404 112.521Z" fill="#171414"/>
<path d="M101.125 115.816C99.9351 115.547 98.7572 116.294 98.4892 117.48C98.2205 118.67 98.9672 119.848 100.154 120.116C101.343 120.384 102.521 119.638 102.789 118.451C103.057 117.265 102.311 116.084 101.125 115.816Z" fill="#171414"/>
<path d="M114.734 123.412C115.924 123.681 117.102 122.934 117.37 121.748C117.639 120.558 116.892 119.38 115.705 119.112C114.516 118.843 113.338 119.59 113.07 120.776C112.802 121.963 113.548 123.144 114.734 123.412Z" fill="#171414"/>
<path d="M129.319 126.706C130.506 126.974 131.686 126.229 131.955 125.042C132.223 123.854 131.478 122.674 130.29 122.406C129.103 122.138 127.923 122.883 127.655 124.07C127.386 125.258 128.131 126.438 129.319 126.706Z" fill="#171414"/>
<path d="M143.9 129.999C145.087 130.268 146.267 129.523 146.536 128.335C146.804 127.148 146.059 125.968 144.871 125.699C143.684 125.431 142.504 126.176 142.236 127.364C141.967 128.551 142.713 129.731 143.9 129.999Z" fill="#171414"/>
<path d="M158.485 133.294C159.674 133.563 160.852 132.816 161.12 131.63C161.389 130.44 160.642 129.262 159.456 128.994C158.266 128.725 157.088 129.472 156.82 130.658C156.549 131.844 157.295 133.025 158.485 133.294Z" fill="#171414"/>
<path d="M171.401 133.952C171.275 134.509 171.378 135.063 171.642 135.525C172.166 134.455 172.665 133.373 173.145 132.272C172.307 132.427 171.601 133.067 171.401 133.952Z" fill="#171414"/>
<path d="M24.2403 116.926C25.43 117.195 26.6079 116.448 26.8759 115.262C27.1446 114.072 26.398 112.894 25.2115 112.626C24.0218 112.358 22.8439 113.104 22.5759 114.291C22.5618 114.353 22.5616 114.415 22.5541 114.479C22.6356 114.941 22.7276 115.403 22.8197 115.865C23.1095 116.381 23.611 116.784 24.2403 116.926Z" fill="#171414"/>
<path d="M39.7933 115.916C38.6036 115.648 37.4257 116.394 37.1577 117.581C36.889 118.77 37.6356 119.948 38.8221 120.216C40.0118 120.485 41.1897 119.738 41.4577 118.552C41.7289 117.366 40.983 116.185 39.7933 115.916Z" fill="#171414"/>
<path d="M54.3758 119.21C53.1861 118.941 52.0082 119.688 51.7402 120.874C51.4715 122.064 52.2181 123.242 53.4046 123.51C54.5943 123.778 55.7722 123.032 56.0402 121.845C56.3115 120.66 55.5655 119.478 54.3758 119.21Z" fill="#171414"/>
<path d="M68.9603 122.504C67.7706 122.235 66.5927 122.982 66.3247 124.169C66.0559 125.358 66.8026 126.536 67.989 126.804C69.1788 127.073 70.3567 126.326 70.6247 125.14C70.8927 123.953 70.1467 122.772 68.9603 122.504Z" fill="#171414"/>
<path d="M83.5416 125.798C82.3519 125.529 81.174 126.276 80.906 127.462C80.6372 128.652 81.3839 129.83 82.5703 130.098C83.76 130.366 84.938 129.62 85.206 128.433C85.4772 127.248 84.7313 126.066 83.5416 125.798Z" fill="#171414"/>
<path d="M98.1261 129.092C96.9364 128.823 95.7584 129.57 95.4904 130.756C95.2217 131.946 95.9684 133.124 97.1548 133.392C98.3445 133.661 99.5224 132.914 99.7904 131.728C100.058 130.541 99.3125 129.36 98.1261 129.092Z" fill="#171414"/>
<path d="M111.735 136.689C112.925 136.958 114.103 136.211 114.371 135.025C114.64 133.835 113.893 132.657 112.707 132.389C111.517 132.12 110.339 132.867 110.071 134.053C109.803 135.24 110.549 136.421 111.735 136.689Z" fill="#171414"/>
<path d="M126.32 139.983C127.51 140.252 128.687 139.505 128.955 138.319C129.224 137.129 128.478 135.951 127.291 135.683C126.101 135.415 124.923 136.161 124.655 137.348C124.384 138.533 125.13 139.715 126.32 139.983Z" fill="#171414"/>
<path d="M140.901 143.277C142.091 143.546 143.269 142.799 143.537 141.612C143.806 140.423 143.059 139.245 141.872 138.977C140.683 138.708 139.505 139.455 139.237 140.641C138.969 141.828 139.715 143.009 140.901 143.277Z" fill="#171414"/>
<path d="M155.486 146.571C156.675 146.84 157.853 146.093 158.121 144.907C158.39 143.717 157.643 142.539 156.457 142.271C155.267 142.003 154.089 142.749 153.821 143.936C153.55 145.121 154.296 146.303 155.486 146.571Z" fill="#171414"/>
<path d="M36.7938 129.197C35.6041 128.928 34.4262 129.675 34.1582 130.861C33.8894 132.051 34.6361 133.229 35.8225 133.497C37.0123 133.765 38.1902 133.019 38.4582 131.832C38.7294 130.647 37.9835 129.465 36.7938 129.197Z" fill="#171414"/>
<path d="M51.3761 132.491C50.1864 132.222 49.0084 132.968 48.7404 134.155C48.4717 135.345 49.2184 136.523 50.4048 136.791C51.5945 137.059 52.7725 136.313 53.0404 135.126C53.3117 133.94 52.5658 132.759 51.3761 132.491Z" fill="#171414"/>
<path d="M65.9608 135.785C64.7711 135.516 63.5931 136.263 63.3252 137.449C63.0564 138.639 63.8031 139.817 64.9895 140.085C66.1792 140.354 67.3572 139.607 67.6252 138.421C67.8931 137.234 67.1472 136.053 65.9608 135.785Z" fill="#171414"/>
<path d="M80.5418 139.078C79.3521 138.81 78.1742 139.556 77.9062 140.743C77.6375 141.932 78.3842 143.11 79.5706 143.378C80.7603 143.647 81.9382 142.9 82.2062 141.714C82.4775 140.528 81.7315 139.347 80.5418 139.078Z" fill="#171414"/>
<path d="M95.1266 142.372C93.9368 142.104 92.7589 142.85 92.4909 144.037C92.2222 145.226 92.9689 146.404 94.1553 146.672C95.345 146.941 96.5229 146.194 96.7909 145.008C97.0589 143.822 96.313 142.64 95.1266 142.372Z" fill="#171414"/>
<path d="M108.736 149.969C109.925 150.238 111.103 149.491 111.371 148.305C111.64 147.115 110.893 145.937 109.707 145.669C108.517 145.4 107.339 146.147 107.071 147.334C106.803 148.52 107.549 149.701 108.736 149.969Z" fill="#171414"/>
<path d="M123.32 153.264C124.51 153.532 125.688 152.786 125.956 151.599C126.224 150.41 125.478 149.232 124.291 148.964C123.102 148.695 121.924 149.442 121.656 150.628C121.384 151.814 122.13 152.995 123.32 153.264Z" fill="#171414"/>
<path d="M137.901 156.557C139.091 156.826 140.269 156.079 140.537 154.893C140.806 153.703 140.059 152.525 138.873 152.257C137.683 151.988 136.505 152.735 136.237 153.921C135.969 155.108 136.715 156.289 137.901 156.557Z" fill="#171414"/>
<path d="M153.458 155.548C152.268 155.279 151.09 156.026 150.822 157.212C150.554 158.402 151.3 159.58 152.487 159.848C152.673 159.89 152.857 159.901 153.041 159.894C153.755 159.263 154.459 158.62 155.151 157.963C155.285 156.853 154.572 155.8 153.458 155.548Z" fill="#171414"/>
<path d="M33.7948 142.474C33.6276 142.436 33.4618 142.422 33.2997 142.424C33.952 143.47 34.6252 144.501 35.3258 145.517C35.3824 145.388 35.4298 145.254 35.4624 145.11C35.7304 143.924 34.9845 142.742 33.7948 142.474Z" fill="#171414"/>
<path d="M48.3773 145.767C47.1876 145.499 46.0097 146.245 45.7417 147.432C45.4729 148.621 46.2196 149.799 47.406 150.067C48.5957 150.336 49.7737 149.589 50.0417 148.403C50.3129 147.217 49.567 146.036 48.3773 145.767Z" fill="#171414"/>
<path d="M62.9618 149.062C61.7721 148.793 60.5941 149.54 60.3261 150.726C60.0574 151.916 60.8041 153.094 61.9905 153.362C63.1802 153.631 64.3582 152.884 64.6261 151.697C64.8941 150.511 64.1482 149.33 62.9618 149.062Z" fill="#171414"/>
<path d="M77.5428 152.355C76.3531 152.087 75.1752 152.833 74.9072 154.02C74.6385 155.209 75.3851 156.387 76.5716 156.655C77.7613 156.924 78.9392 156.177 79.2072 154.991C79.4784 153.805 78.7325 152.624 77.5428 152.355Z" fill="#171414"/>
<path d="M92.1275 155.65C90.9378 155.381 89.7599 156.128 89.4919 157.314C89.2232 158.504 89.9698 159.682 91.1563 159.95C92.346 160.218 93.5239 159.472 93.7919 158.285C94.0599 157.099 93.314 155.918 92.1275 155.65Z" fill="#171414"/>
<path d="M105.737 163.246C106.927 163.515 108.104 162.768 108.372 161.582C108.641 160.392 107.895 159.214 106.708 158.946C105.518 158.677 104.34 159.424 104.072 160.61C103.804 161.797 104.55 162.978 105.737 163.246Z" fill="#171414"/>
<path d="M120.321 166.54C121.509 166.808 122.689 166.063 122.957 164.876C123.225 163.688 122.48 162.508 121.293 162.24C120.105 161.972 118.925 162.717 118.657 163.904C118.389 165.092 119.134 166.272 120.321 166.54Z" fill="#171414"/>
<path d="M134.903 169.833C136.09 170.102 137.27 169.357 137.538 168.169C137.806 166.982 137.061 165.802 135.874 165.533C134.686 165.265 133.506 166.01 133.238 167.198C132.97 168.385 133.715 169.565 134.903 169.833Z" fill="#171414"/>
<path d="M59.963 162.338C58.7733 162.069 57.5953 162.816 57.3274 164.003C57.0586 165.192 57.8053 166.37 58.9917 166.638C60.1814 166.907 61.3594 166.16 61.6274 164.974C61.8953 163.787 61.1494 162.606 59.963 162.338Z" fill="#171414"/>
<path d="M74.544 165.632C73.3543 165.363 72.1764 166.11 71.9084 167.296C71.6397 168.486 72.3864 169.664 73.5728 169.932C74.7625 170.2 75.9404 169.454 76.2084 168.267C76.4797 167.082 75.7337 165.9 74.544 165.632Z" fill="#171414"/>
<path d="M89.1278 168.926C87.9381 168.657 86.7601 169.404 86.4922 170.59C86.2234 171.78 86.9701 172.958 88.1565 173.226C89.3462 173.494 90.5241 172.748 90.7921 171.561C91.0601 170.375 90.3142 169.194 89.1278 168.926Z" fill="#171414"/>
<path d="M102.738 176.523C103.928 176.792 105.105 176.045 105.373 174.859C105.642 173.669 104.896 172.491 103.709 172.223C102.519 171.954 101.341 172.701 101.073 173.887C100.805 175.074 101.551 176.255 102.738 176.523Z" fill="#171414"/>
<path d="M118.295 175.514C117.105 175.245 115.927 175.992 115.659 177.178C115.569 177.578 115.6 177.971 115.718 178.335C117.153 178.053 118.578 177.738 119.992 177.379C119.872 176.49 119.222 175.723 118.295 175.514Z" fill="#171414"/>
<path d="M82.7959 25.6558C83.9856 25.9245 85.1636 25.1778 85.4316 23.9914C85.5219 23.5916 85.4901 23.1986 85.3725 22.8345C83.9378 23.1167 82.5128 23.432 81.0986 23.7912C81.2216 24.6802 81.8717 25.447 82.7959 25.6558Z" fill="#171414"/>
<path d="M97.3806 28.9502C98.5681 29.2184 99.7481 28.4732 100.016 27.2858C100.284 26.0984 99.5393 24.9184 98.3519 24.6502C97.1645 24.382 95.9845 25.1271 95.7163 26.3145C95.4481 27.502 96.1932 28.682 97.3806 28.9502Z" fill="#171414"/>
<path d="M111.962 32.2436C113.149 32.5118 114.329 31.7667 114.597 30.5793C114.866 29.3919 114.12 28.2118 112.933 27.9436C111.746 27.6754 110.566 28.4206 110.297 29.608C110.029 30.7954 110.774 31.9754 111.962 32.2436Z" fill="#171414"/>
<path d="M126.546 35.5381C127.734 35.8063 128.914 35.0611 129.182 33.8737C129.45 32.6863 128.705 31.5063 127.518 31.2381C126.33 30.9699 125.15 31.715 124.882 32.9024C124.614 34.0898 125.359 35.2699 126.546 35.5381Z" fill="#171414"/>
<path d="M141.127 38.8313C142.317 39.1 143.495 38.3533 143.763 37.1669C144.032 35.9772 143.285 34.7993 142.099 34.5313C140.909 34.2626 139.728 35.0085 139.46 36.1949C139.195 37.3821 139.941 38.5633 141.127 38.8313Z" fill="#171414"/>
<path d="M65.2146 35.6391C66.402 35.9073 67.5821 35.1622 67.8503 33.9748C68.1185 32.7874 67.3733 31.6073 66.1859 31.3391C64.9985 31.0709 63.8185 31.8161 63.5503 33.0035C63.2821 34.1909 64.0272 35.3709 65.2146 35.6391Z" fill="#171414"/>
<path d="M79.7971 38.9331C80.9846 39.2013 82.1646 38.4561 82.4328 37.2687C82.701 36.0813 81.9558 34.9013 80.7684 34.6331C79.581 34.3649 78.401 35.11 78.1328 36.2975C77.8646 37.4849 78.6097 38.6649 79.7971 38.9331Z" fill="#171414"/>
<path d="M94.3816 42.227C95.569 42.4952 96.749 41.7501 97.0172 40.5627C97.2854 39.3752 96.5403 38.1952 95.3529 37.927C94.1655 37.6588 92.9855 38.404 92.7173 39.5914C92.449 40.7788 93.1942 41.9588 94.3816 42.227Z" fill="#171414"/>
<path d="M108.963 45.5205C110.15 45.7887 111.33 45.0435 111.599 43.8561C111.867 42.6687 111.122 41.4887 109.934 41.2205C108.747 40.9523 107.567 41.6975 107.299 42.8849C107.03 44.0723 107.776 45.2523 108.963 45.5205Z" fill="#171414"/>
<path d="M123.547 48.8149C124.735 49.0831 125.915 48.338 126.183 47.1506C126.451 45.9631 125.706 44.7831 124.519 44.5149C123.331 44.2467 122.151 44.9919 121.883 46.1793C121.615 47.3667 122.36 48.5467 123.547 48.8149Z" fill="#171414"/>
<path d="M138.128 52.1111C139.318 52.3798 140.495 51.6331 140.763 50.4467C141.032 49.257 140.286 48.0791 139.099 47.8111C137.909 47.5423 136.728 48.2883 136.46 49.4747C136.195 50.6619 136.941 51.8431 138.128 52.1111Z" fill="#171414"/>
<path d="M152.713 55.4028C153.901 55.671 155.081 54.9259 155.349 53.7384C155.617 52.551 154.872 51.371 153.684 51.1028C152.497 50.8346 151.317 51.5798 151.049 52.7672C150.781 53.9546 151.526 55.1346 152.713 55.4028Z" fill="#171414"/>
<path d="M47.6349 45.6254C48.8246 45.8941 50.0025 45.1475 50.2705 43.961C50.5393 42.7713 49.7926 41.5934 48.6062 41.3254C48.4193 41.2832 48.235 41.276 48.0516 41.2794C47.3373 41.9103 46.6339 42.554 45.9413 43.2105C45.8045 44.3198 46.5206 45.3737 47.6349 45.6254Z" fill="#171414"/>
<path d="M62.2158 48.9155C63.4033 49.1837 64.5833 48.4385 64.8515 47.2511C65.1197 46.0637 64.3745 44.8837 63.1871 44.6155C61.9997 44.3473 60.8197 45.0925 60.5515 46.2799C60.2833 47.4673 61.0284 48.6473 62.2158 48.9155Z" fill="#171414"/>
<path d="M76.7984 52.2095C77.9858 52.4777 79.1658 51.7325 79.434 50.5451C79.7022 49.3577 78.957 48.1777 77.7696 47.9095C76.5822 47.6413 75.4022 48.3864 75.134 49.5738C74.8658 50.7612 75.611 51.9412 76.7984 52.2095Z" fill="#171414"/>
<path d="M91.3828 55.5034C92.5703 55.7716 93.7503 55.0264 94.0185 53.839C94.2867 52.6516 93.5415 51.4716 92.3541 51.2034C91.1667 50.9352 89.9867 51.6804 89.7185 52.8678C89.4503 54.0552 90.1954 55.2352 91.3828 55.5034Z" fill="#171414"/>
<path d="M105.964 58.7969C107.152 59.0651 108.332 58.3199 108.6 57.1325C108.868 55.9451 108.123 54.7651 106.935 54.4969C105.748 54.2287 104.568 54.9738 104.3 56.1612C104.032 57.3486 104.777 58.5286 105.964 58.7969Z" fill="#171414"/>
<path d="M120.549 62.0913C121.736 62.3595 122.916 61.6143 123.184 60.4269C123.452 59.2395 122.707 58.0595 121.52 57.7913C120.332 57.5231 119.152 58.2682 118.884 59.4557C118.616 60.6431 119.361 61.8231 120.549 62.0913Z" fill="#171414"/>
<path d="M135.129 65.3884C136.318 65.6571 137.496 64.9105 137.764 63.724C138.033 62.5343 137.286 61.3564 136.1 61.0884C134.91 60.8197 133.729 61.5656 133.461 62.752C133.196 63.9392 133.942 65.1204 135.129 65.3884Z" fill="#171414"/>
<path d="M149.714 68.6792C150.902 68.9474 152.082 68.2022 152.35 67.0148C152.618 65.8274 151.873 64.6474 150.686 64.3792C149.498 64.111 148.318 64.8561 148.05 66.0436C147.782 67.231 148.527 68.411 149.714 68.6792Z" fill="#171414"/>
<path d="M164.295 71.9726C165.483 72.2408 166.663 71.4957 166.931 70.3083C167.199 69.1209 166.454 67.9408 165.267 67.6726C164.079 67.4044 162.899 68.1496 162.631 69.337C162.363 70.5244 163.108 71.7044 164.295 71.9726Z" fill="#171414"/>
<path d="M45.607 54.5989C44.4173 54.3302 43.2394 55.0768 42.9714 56.2633C42.7027 57.453 43.4493 58.6309 44.6358 58.8989C45.8255 59.1676 47.0034 58.421 47.2714 57.2345C47.5394 56.0481 46.7935 54.8669 45.607 54.5989Z" fill="#171414"/>
<path d="M60.1883 57.8924C58.9986 57.6236 57.8207 58.3703 57.5527 59.5567C57.284 60.7464 58.0306 61.9244 59.2171 62.1924C60.4068 62.4611 61.5847 61.7144 61.8527 60.528C62.1207 59.3416 61.378 58.1611 60.1883 57.8924Z" fill="#171414"/>
<path d="M74.7706 61.1863C73.5809 60.9176 72.403 61.6642 72.135 62.8507C71.8663 64.0404 72.6129 65.2183 73.7993 65.4863C74.9891 65.755 76.167 65.0084 76.435 63.8219C76.7062 62.6362 75.9603 61.455 74.7706 61.1863Z" fill="#171414"/>
<path d="M89.3553 64.4807C88.1656 64.212 86.9877 64.9587 86.7197 66.1451C86.451 67.3348 87.1976 68.5128 88.3841 68.7807C89.5738 69.0495 90.7517 68.3028 91.0197 67.1164C91.2877 65.9299 90.5417 64.7487 89.3553 64.4807Z" fill="#171414"/>
<path d="M103.936 67.7742C102.747 67.5055 101.569 68.2521 101.301 69.4386C101.032 70.6283 101.779 71.8062 102.965 72.0742C104.155 72.3429 105.333 71.5963 105.601 70.4098C105.872 69.2241 105.126 68.0429 103.936 67.7742Z" fill="#171414"/>
<path d="M117.549 75.3716C118.739 75.6403 119.916 74.8936 120.184 73.7072C120.453 72.5175 119.707 71.3395 118.52 71.0716C117.33 70.8028 116.152 71.5495 115.884 72.7359C115.613 73.9216 116.359 75.1028 117.549 75.3716Z" fill="#171414"/>
<path d="M132.13 78.6653C133.32 78.934 134.498 78.1873 134.766 77.0009C135.034 75.8112 134.288 74.6333 133.101 74.3653C131.912 74.0965 130.73 74.8425 130.462 76.0289C130.198 77.2161 130.944 78.3973 132.13 78.6653Z" fill="#171414"/>
<path d="M146.715 81.9595C147.904 82.2282 149.082 81.4815 149.35 80.2951C149.619 79.1054 148.872 77.9274 147.686 77.6595C146.496 77.3907 145.318 78.1374 145.05 79.3238C144.779 80.5095 145.525 81.6907 146.715 81.9595Z" fill="#171414"/>
<path d="M161.296 85.2529C162.486 85.5216 163.664 84.775 163.932 83.5885C164.2 82.3988 163.454 81.2209 162.267 80.9529C161.077 80.6842 159.9 81.4309 159.632 82.6173C159.364 83.8037 160.109 84.9849 161.296 85.2529Z" fill="#171414"/>
<path d="M176.852 84.2439C175.663 83.9752 174.485 84.7219 174.217 85.9083C173.948 87.098 174.695 88.2759 175.881 88.5439C177.071 88.8126 178.249 88.066 178.517 86.8796C178.531 86.8173 178.531 86.7553 178.539 86.6916C178.457 86.2288 178.365 85.7671 178.273 85.3054C177.98 84.788 177.482 84.3861 176.852 84.2439Z" fill="#171414"/>
<path d="M42.6073 67.8797C41.4176 67.6109 40.2396 68.3576 39.9716 69.544C39.7029 70.7337 40.4496 71.9117 41.636 72.1797C42.8257 72.4484 44.0037 71.7017 44.2716 70.5153C44.5404 69.3256 43.7937 68.1477 42.6073 67.8797Z" fill="#171414"/>
<path d="M56.2173 75.4731C57.4047 75.7413 58.5847 74.9962 58.8529 73.8088C59.1211 72.6213 58.376 71.4413 57.1886 71.1731C56.0012 70.9049 54.8212 71.6501 54.5529 72.8375C54.2847 74.0249 55.0299 75.2049 56.2173 75.4731Z" fill="#171414"/>
<path d="M70.7996 78.7666C71.987 79.0348 73.167 78.2896 73.4352 77.1022C73.7034 75.9148 72.9583 74.7348 71.7708 74.4666C70.5834 74.1984 69.4034 74.9435 69.1352 76.131C68.867 77.3184 69.6122 78.4984 70.7996 78.7666Z" fill="#171414"/>
<path d="M85.3843 82.061C86.5717 82.3292 87.7517 81.5841 88.0199 80.3966C88.2881 79.2092 87.543 78.0292 86.3556 77.761C85.1682 77.4928 83.9881 78.238 83.7199 79.4254C83.4517 80.6128 84.1969 81.7928 85.3843 82.061Z" fill="#171414"/>
<path d="M99.9654 85.3545C101.153 85.6227 102.333 84.8775 102.601 83.6901C102.869 82.5027 102.124 81.3227 100.937 81.0545C99.7492 80.7863 98.5692 81.5314 98.301 82.7188C98.0328 83.9063 98.778 85.0863 99.9654 85.3545Z" fill="#171414"/>
<path d="M114.55 88.6489C115.737 88.9171 116.917 88.1719 117.186 86.9845C117.454 85.7971 116.709 84.6171 115.521 84.3489C114.334 84.0807 113.154 84.8259 112.886 86.0133C112.618 87.2007 113.363 88.3807 114.55 88.6489Z" fill="#171414"/>
<path d="M129.13 91.945C130.32 92.2138 131.498 91.4671 131.766 90.2807C132.035 89.091 131.288 87.913 130.102 87.6451C128.912 87.3763 127.731 88.1223 127.463 89.3087C127.198 90.4959 127.944 91.6771 129.13 91.945Z" fill="#171414"/>
<path d="M143.716 95.2368C144.903 95.505 146.083 94.7598 146.351 93.5724C146.619 92.385 145.874 91.205 144.687 90.9368C143.499 90.6686 142.319 91.4138 142.051 92.6012C141.783 93.7886 142.528 94.9686 143.716 95.2368Z" fill="#171414"/>
<path d="M158.297 98.5302C159.484 98.7985 160.664 98.0533 160.933 96.8659C161.201 95.6785 160.456 94.4985 159.268 94.2303C158.081 93.9621 156.901 94.7072 156.633 95.8946C156.364 97.082 157.109 98.262 158.297 98.5302Z" fill="#171414"/>
<path d="M172.881 101.824C174.069 102.092 175.249 101.347 175.517 100.16C175.785 98.9724 175.04 97.7924 173.853 97.5242C172.665 97.256 171.485 98.0012 171.217 99.1886C170.949 100.376 171.694 101.556 172.881 101.824Z" fill="#171414"/>
<path d="M26.692 80.4982C26.9608 79.3085 26.2141 78.1305 25.0277 77.8625C24.913 77.8366 24.8011 77.8286 24.6892 77.8205C24.2796 79.192 23.9045 80.5781 23.5658 81.9863C23.7207 82.0626 23.882 82.1266 24.0557 82.1658C25.2421 82.4338 26.4233 81.6879 26.692 80.4982Z" fill="#171414"/>
<path d="M39.6085 81.156C38.4188 80.8873 37.2409 81.634 36.9729 82.8204C36.7041 84.0101 37.4508 85.1881 38.6372 85.456C39.8269 85.7248 41.0049 84.9781 41.2729 83.7917C41.5408 82.6052 40.7949 81.424 39.6085 81.156Z" fill="#171414"/>
<path d="M53.2185 88.7495C54.4059 89.0177 55.586 88.2725 55.8542 87.0851C56.1224 85.8977 55.3772 84.7177 54.1898 84.4495C53.0024 84.1813 51.8224 84.9265 51.5542 86.1139C51.286 87.3013 52.0311 88.4813 53.2185 88.7495Z" fill="#171414"/>
<path d="M67.8008 92.043C68.9882 92.3112 70.1682 91.566 70.4364 90.3786C70.7046 89.1912 69.9595 88.0112 68.7721 87.743C67.5847 87.4747 66.4046 88.2199 66.1364 89.4073C65.8682 90.5947 66.6134 91.7747 67.8008 92.043Z" fill="#171414"/>
<path d="M82.3855 95.3374C83.5729 95.6056 84.7529 94.8604 85.0211 93.673C85.2894 92.4856 84.5442 91.3056 83.3568 91.0374C82.1694 90.7692 80.9894 91.5143 80.7212 92.7018C80.453 93.8892 81.1981 95.0692 82.3855 95.3374Z" fill="#171414"/>
<path d="M96.9666 98.6308C98.154 98.899 99.334 98.1539 99.6022 96.9665C99.8704 95.7791 99.1252 94.599 97.9378 94.3308C96.7504 94.0626 95.5704 94.8078 95.3022 95.9952C95.034 97.1826 95.7792 98.3626 96.9666 98.6308Z" fill="#171414"/>
<path d="M111.551 101.925C112.739 102.193 113.919 101.448 114.187 100.261C114.455 99.0735 113.71 97.8935 112.523 97.6253C111.335 97.3571 110.155 98.1022 109.887 99.2897C109.619 100.477 110.364 101.657 111.551 101.925Z" fill="#171414"/>
<path d="M126.131 105.222C127.321 105.491 128.499 104.744 128.767 103.558C129.036 102.368 128.289 101.19 127.103 100.922C125.913 100.653 124.732 101.399 124.464 102.586C124.199 103.773 124.945 104.954 126.131 105.222Z" fill="#171414"/>
<path d="M140.717 108.513C141.904 108.781 143.084 108.036 143.352 106.849C143.621 105.661 142.875 104.481 141.688 104.213C140.501 103.945 139.321 104.69 139.052 105.878C138.784 107.065 139.529 108.245 140.717 108.513Z" fill="#171414"/>
<path d="M155.298 111.807C156.486 112.075 157.666 111.33 157.934 110.142C158.202 108.955 157.457 107.775 156.269 107.507C155.082 107.238 153.902 107.984 153.634 109.171C153.366 110.358 154.111 111.538 155.298 111.807Z" fill="#171414"/>
<path d="M169.883 115.101C171.07 115.369 172.25 114.624 172.518 113.436C172.786 112.249 172.041 111.069 170.854 110.801C169.666 110.532 168.486 111.278 168.218 112.465C167.95 113.652 168.695 114.832 169.883 115.101Z" fill="#171414"/>
<path d="M23.6924 93.7787C23.9611 92.589 23.2144 91.4111 22.028 91.1431C21.9854 91.1335 21.9471 91.1352 21.9038 91.1288C21.7252 92.5904 21.5955 94.0491 21.4983 95.5015C22.5248 95.5164 23.4577 94.8177 23.6924 93.7787Z" fill="#171414"/>
<path d="M36.6097 94.4329C35.42 94.1642 34.2421 94.9108 33.9741 96.0973C33.7054 97.287 34.452 98.4649 35.6385 98.7329C36.8282 99.0016 38.0061 98.2549 38.2741 97.0685C38.5421 95.8821 37.7961 94.7009 36.6097 94.4329Z" fill="#171414"/>
<path d="M50.2188 102.03C51.4062 102.298 52.5862 101.553 52.8544 100.365C53.1226 99.178 52.3774 97.998 51.19 97.7298C50.0026 97.4616 48.8226 98.2067 48.5544 99.3941C48.2862 100.582 49.0314 101.762 50.2188 102.03Z" fill="#171414"/>
<path d="M64.8011 105.324C65.9885 105.592 67.1685 104.847 67.4367 103.659C67.7049 102.472 66.9597 101.292 65.7723 101.024C64.5849 100.756 63.4049 101.501 63.1367 102.688C62.8685 103.875 63.6136 105.056 64.8011 105.324Z" fill="#171414"/>
<path d="M79.3858 108.618C80.5732 108.886 81.7532 108.141 82.0214 106.954C82.2896 105.766 81.5444 104.586 80.357 104.318C79.1696 104.05 77.9896 104.795 77.7214 105.983C77.4532 107.17 78.1984 108.35 79.3858 108.618Z" fill="#171414"/>
<path d="M93.9668 111.912C95.1542 112.18 96.3342 111.435 96.6024 110.247C96.8707 109.06 96.1255 107.88 94.9381 107.612C93.7507 107.343 92.5707 108.089 92.3025 109.276C92.0343 110.463 92.7794 111.643 93.9668 111.912Z" fill="#171414"/>
<path d="M108.552 115.206C109.739 115.474 110.919 114.729 111.187 113.541C111.455 112.354 110.71 111.174 109.523 110.906C108.335 110.637 107.155 111.383 106.887 112.57C106.619 113.757 107.364 114.937 108.552 115.206Z" fill="#171414"/>
<path d="M123.132 118.499C124.322 118.768 125.5 118.021 125.768 116.835C126.037 115.645 125.29 114.467 124.104 114.199C122.914 113.931 121.733 114.676 121.465 115.863C121.2 117.05 121.946 118.231 123.132 118.499Z" fill="#171414"/>
<path d="M137.717 121.793C138.905 122.062 140.085 121.316 140.353 120.129C140.621 118.942 139.876 117.762 138.689 117.493C137.501 117.225 136.321 117.97 136.053 119.158C135.785 120.345 136.53 121.525 137.717 121.793Z" fill="#171414"/>
<path d="M152.298 125.087C153.486 125.355 154.666 124.61 154.934 123.423C155.202 122.235 154.457 121.055 153.27 120.787C152.082 120.519 150.902 121.264 150.634 122.451C150.366 123.639 151.111 124.819 152.298 125.087Z" fill="#171414"/>
<path d="M166.883 128.381C168.071 128.65 169.251 127.904 169.519 126.717C169.787 125.53 169.042 124.35 167.854 124.081C166.667 123.813 165.487 124.558 165.219 125.746C164.951 126.933 165.696 128.113 166.883 128.381Z" fill="#171414"/>
<path d="M33.61 107.713C32.4202 107.444 31.2423 108.191 30.9743 109.378C30.7056 110.567 31.4523 111.745 32.6387 112.013C33.8284 112.282 35.0063 111.535 35.2743 110.349C35.543 109.159 34.7964 107.981 33.61 107.713Z" fill="#171414"/>
<path d="M48.191 111.007C47.0013 110.738 45.8234 111.485 45.5554 112.671C45.2867 113.861 46.0333 115.039 47.2198 115.307C48.4095 115.576 49.5874 114.829 49.8554 113.643C50.1241 112.453 49.3807 111.276 48.191 111.007Z" fill="#171414"/>
<path d="M62.7735 114.301C61.5838 114.032 60.4059 114.779 60.1379 115.965C59.8692 117.155 60.6158 118.333 61.8023 118.601C62.992 118.869 64.1699 118.123 64.4379 116.936C64.7099 115.747 63.9632 114.569 62.7735 114.301Z" fill="#171414"/>
<path d="M77.358 117.595C76.1683 117.326 74.9904 118.073 74.7224 119.259C74.4537 120.449 75.2003 121.627 76.3867 121.895C77.5765 122.164 78.7544 121.417 79.0224 120.231C79.2911 119.041 78.5444 117.863 77.358 117.595Z" fill="#171414"/>
<path d="M91.9393 120.888C90.7496 120.62 89.5717 121.366 89.3037 122.553C89.035 123.743 89.7816 124.92 90.968 125.188C92.1577 125.457 93.3357 124.711 93.6037 123.524C93.8757 122.335 93.129 121.157 91.9393 120.888Z" fill="#171414"/>
<path d="M105.553 128.483C106.742 128.752 107.92 128.005 108.188 126.819C108.457 125.629 107.71 124.451 106.524 124.183C105.334 123.914 104.156 124.661 103.888 125.847C103.616 127.036 104.363 128.214 105.553 128.483Z" fill="#171414"/>
<path d="M120.134 131.776C121.323 132.045 122.501 131.298 122.769 130.112C123.038 128.922 122.291 127.744 121.105 127.476C119.915 127.207 118.734 127.953 118.466 129.14C118.201 130.33 118.947 131.508 120.134 131.776Z" fill="#171414"/>
<path d="M134.718 135.07C135.908 135.339 137.086 134.592 137.354 133.406C137.623 132.216 136.876 131.038 135.69 130.77C134.5 130.502 133.322 131.248 133.054 132.435C132.782 133.624 133.529 134.802 134.718 135.07Z" fill="#171414"/>
<path d="M149.299 138.364C150.489 138.633 151.667 137.886 151.935 136.7C152.204 135.51 151.457 134.332 150.271 134.064C149.081 133.796 147.903 134.542 147.635 135.729C147.366 136.918 148.113 138.096 149.299 138.364Z" fill="#171414"/>
<path d="M163.884 141.658C165.074 141.927 166.252 141.18 166.52 139.994C166.788 138.804 166.042 137.626 164.855 137.358C163.666 137.089 162.488 137.836 162.22 139.023C161.948 140.212 162.694 141.389 163.884 141.658Z" fill="#171414"/>
<path d="M30.6112 120.99C29.4215 120.721 28.2435 121.468 27.9756 122.654C27.7068 123.844 28.4535 125.022 29.6399 125.29C30.8296 125.559 32.0076 124.812 32.2755 123.626C32.5435 122.439 31.7976 121.258 30.6112 120.99Z" fill="#171414"/>
<path d="M44.221 128.583C45.4084 128.852 46.5884 128.107 46.8566 126.919C47.1248 125.732 46.3796 124.552 45.1922 124.283C44.0048 124.015 42.8248 124.76 42.5566 125.948C42.2884 127.135 43.0336 128.315 44.221 128.583Z" fill="#171414"/>
<path d="M58.8035 131.877C59.9909 132.145 61.1709 131.4 61.4391 130.213C61.7073 129.025 60.9622 127.845 59.7748 127.577C58.5873 127.309 57.4073 128.054 57.1391 129.241C56.8709 130.429 57.6161 131.609 58.8035 131.877Z" fill="#171414"/>
<path d="M73.3889 135.172C74.5764 135.44 75.7564 134.695 76.0246 133.507C76.2928 132.32 75.5476 131.14 74.3602 130.872C73.1728 130.604 71.9928 131.349 71.7246 132.536C71.4564 133.724 72.2015 134.904 73.3889 135.172Z" fill="#171414"/>
<path d="M87.9693 138.465C89.1567 138.733 90.3367 137.988 90.6049 136.8C90.8731 135.613 90.1279 134.433 88.9405 134.165C87.7531 133.897 86.5731 134.642 86.3049 135.829C86.0367 137.017 86.7819 138.197 87.9693 138.465Z" fill="#171414"/>
<path d="M102.554 141.759C103.741 142.027 104.921 141.282 105.189 140.095C105.458 138.907 104.712 137.727 103.525 137.459C102.338 137.191 101.158 137.936 100.889 139.124C100.621 140.311 101.366 141.491 102.554 141.759Z" fill="#171414"/>
<path d="M117.134 145.056C118.324 145.325 119.502 144.578 119.77 143.392C120.038 142.202 119.292 141.024 118.105 140.756C116.915 140.487 115.734 141.233 115.466 142.42C115.202 143.607 115.947 144.788 117.134 145.056Z" fill="#171414"/>
<path d="M131.72 148.347C132.907 148.615 134.087 147.87 134.355 146.683C134.623 145.495 133.878 144.315 132.691 144.047C131.503 143.779 130.323 144.524 130.055 145.712C129.787 146.899 130.532 148.079 131.72 148.347Z" fill="#171414"/>
<path d="M146.301 151.641C147.488 151.909 148.668 151.164 148.936 149.976C149.204 148.789 148.459 147.609 147.272 147.341C146.084 147.072 144.904 147.818 144.636 149.005C144.368 150.192 145.113 151.372 146.301 151.641Z" fill="#171414"/>
<path d="M159.217 152.298C159.111 152.77 159.17 153.242 159.349 153.654C160.23 152.679 161.09 151.678 161.927 150.658C161.901 150.652 161.879 150.64 161.856 150.635C160.667 150.366 159.485 151.112 159.217 152.298Z" fill="#171414"/>
<path d="M41.2212 141.864C42.4086 142.132 43.5886 141.387 43.8568 140.199C44.1251 139.012 43.3799 137.832 42.1925 137.564C41.0051 137.296 39.8251 138.041 39.5569 139.228C39.2886 140.416 40.0338 141.596 41.2212 141.864Z" fill="#171414"/>
<path d="M55.8037 145.158C56.9912 145.426 58.1712 144.681 58.4394 143.493C58.7076 142.306 57.9624 141.126 56.775 140.858C55.5876 140.589 54.4076 141.335 54.1394 142.522C53.8712 143.709 54.6163 144.889 55.8037 145.158Z" fill="#171414"/>
<path d="M70.3882 148.452C71.5756 148.72 72.7556 147.975 73.0238 146.787C73.292 145.6 72.5469 144.42 71.3595 144.152C70.1721 143.883 68.9921 144.629 68.7238 145.816C68.4556 147.003 69.2008 148.183 70.3882 148.452Z" fill="#171414"/>
<path d="M84.9695 151.746C86.1569 152.014 87.3369 151.269 87.6051 150.081C87.8733 148.894 87.1282 147.714 85.9408 147.446C84.7534 147.177 83.5733 147.923 83.3051 149.11C83.0369 150.297 83.7821 151.477 84.9695 151.746Z" fill="#171414"/>
<path d="M99.554 155.04C100.741 155.308 101.921 154.563 102.19 153.375C102.458 152.188 101.713 151.008 100.525 150.74C99.3378 150.471 98.1578 151.216 97.8896 152.404C97.6214 153.591 98.3666 154.771 99.554 155.04Z" fill="#171414"/>
<path d="M114.135 158.333C115.325 158.602 116.503 157.855 116.771 156.669C117.039 155.479 116.293 154.301 115.106 154.033C113.917 153.765 112.735 154.51 112.467 155.697C112.203 156.884 112.949 158.065 114.135 158.333Z" fill="#171414"/>
<path d="M128.72 161.627C129.907 161.896 131.087 161.15 131.355 159.963C131.624 158.776 130.878 157.596 129.691 157.327C128.504 157.059 127.324 157.804 127.055 158.992C126.787 160.179 127.532 161.359 128.72 161.627Z" fill="#171414"/>
<path d="M143.301 164.921C144.488 165.189 145.668 164.444 145.937 163.257C146.205 162.069 145.46 160.889 144.272 160.621C143.085 160.353 141.905 161.098 141.637 162.285C141.368 163.473 142.114 164.653 143.301 164.921Z" fill="#171414"/>
<path d="M39.3774 150.9C39.8721 151.501 40.3755 152.093 40.887 152.681C40.7688 151.862 40.1969 151.161 39.3774 150.9Z" fill="#171414"/>
<path d="M53.776 154.135C52.5863 153.866 51.4083 154.612 51.1403 155.799C50.8716 156.989 51.6183 158.167 52.8047 158.435C53.9944 158.703 55.1724 157.957 55.4403 156.77C55.7123 155.581 54.9657 154.403 53.776 154.135Z" fill="#171414"/>
<path d="M68.3607 157.429C67.171 157.16 65.993 157.907 65.7251 159.093C65.4563 160.283 66.203 161.461 67.3894 161.729C68.5791 161.998 69.7571 161.251 70.0251 160.065C70.2938 158.875 69.5471 157.697 68.3607 157.429Z" fill="#171414"/>
<path d="M82.9417 160.722C81.752 160.454 80.5741 161.2 80.3061 162.387C80.0374 163.577 80.7841 164.754 81.9705 165.022C83.1602 165.291 84.3381 164.545 84.6061 163.358C84.8781 162.169 84.1314 160.991 82.9417 160.722Z" fill="#171414"/>
<path d="M96.5552 168.317C97.7449 168.586 98.9228 167.839 99.1908 166.653C99.4596 165.463 98.7129 164.285 97.5265 164.017C96.3368 163.748 95.1588 164.495 94.8908 165.681C94.6188 166.87 95.3655 168.048 96.5552 168.317Z" fill="#171414"/>
<path d="M111.136 171.61C112.326 171.879 113.504 171.132 113.772 169.946C114.04 168.756 113.294 167.578 112.107 167.31C110.918 167.041 109.736 167.787 109.468 168.974C109.203 170.164 109.95 171.342 111.136 171.61Z" fill="#171414"/>
<path d="M125.721 174.904C126.91 175.173 128.088 174.426 128.356 173.24C128.625 172.05 127.878 170.872 126.692 170.604C125.502 170.336 124.324 171.082 124.056 172.269C123.784 173.458 124.531 174.636 125.721 174.904Z" fill="#171414"/>
<path d="M65.361 170.705C64.8727 170.595 64.3924 170.662 63.9665 170.855C64.9687 171.374 65.986 171.873 67.0142 172.353C66.8257 171.556 66.2098 170.897 65.361 170.705Z" fill="#171414"/>
<path d="M79.943 173.999C78.7533 173.73 77.5753 174.477 77.3073 175.663C77.2592 175.876 77.2534 176.085 77.2687 176.292C78.5862 176.696 79.9185 177.066 81.2719 177.403C81.4298 177.176 81.5502 176.918 81.6146 176.633C81.8786 175.449 81.1327 174.268 79.943 173.999Z" fill="#171414"/>
<path d="M94.5277 177.293C93.338 177.025 92.16 177.771 91.8921 178.958C91.8654 179.076 91.8559 179.194 91.8504 179.31C93.3116 179.475 94.7726 179.594 96.2287 179.675C96.3422 178.578 95.6322 177.543 94.5277 177.293Z" fill="#171414"/>
</g>
<defs>
<clipPath id="clip0_21_642">
<rect width="168" height="168" fill="white" transform="translate(37.0144) rotate(12.728)"/>
</clipPath>
</defs>
</svg>
